<?xml version="1.0" encoding="utf-8" standalone="no"?>
<!DOCTYPE svg PUBLIC "-//W3C//DTD SVG 1.1//EN"
  "http://www.w3.org/Graphics/SVG/1.1/DTD/svg11.dtd">
<svg xmlns:xlink="http://www.w3.org/1999/xlink" width="864pt" height="360pt" viewBox="0 0 864 360" xmlns="http://www.w3.org/2000/svg" version="1.1">
 <metadata>
  <rdf:RDF xmlns:dc="http://purl.org/dc/elements/1.1/" xmlns:cc="http://creativecommons.org/ns#" xmlns:rdf="http://www.w3.org/1999/02/22-rdf-syntax-ns#">
   <cc:Work>
    <dc:type rdf:resource="http://purl.org/dc/dcmitype/StillImage"/>
    <dc:date>2026-04-07T11:29:29.260927</dc:date>
    <dc:format>image/svg+xml</dc:format>
    <dc:creator>
     <cc:Agent>
      <dc:title>Matplotlib v3.9.4, https://matplotlib.org/</dc:title>
     </cc:Agent>
    </dc:creator>
   </cc:Work>
  </rdf:RDF>
 </metadata>
 <defs>
  <style type="text/css">*{stroke-linejoin: round; stroke-linecap: butt}</style>
 </defs>
 <g id="figure_1">
  <g id="patch_1">
   <path d="M 0 360 
L 864 360 
L 864 0 
L 0 0 
z
" style="fill: #ffffff"/>
  </g>
  <g id="axes_1">
   <g id="patch_2">
    <path d="M 51.005 318.04 
L 853.2 318.04 
L 853.2 26.16 
L 51.005 26.16 
z
" style="fill: #ffffff"/>
   </g>
   <g id="matplotlib.axis_1">
    <g id="xtick_1">
     <g id="line2d_1">
      <defs>
       <path id="mf87cd5b8d4" d="M 0 0 
L 0 3.5 
" style="stroke: #000000; stroke-width: 0.8"/>
      </defs>
      <g>
       <use xlink:href="#mf87cd5b8d4" x="87.158214" y="318.04" style="stroke: #000000; stroke-width: 0.8"/>
      </g>
     </g>
     <g id="text_1">
      <!-- 0 -->
      <g transform="translate(83.976964 332.638438) scale(0.1 -0.1)">
       <defs>
        <path id="DejaVuSans-30" d="M 2034 4250 
Q 1547 4250 1301 3770 
Q 1056 3291 1056 2328 
Q 1056 1369 1301 889 
Q 1547 409 2034 409 
Q 2525 409 2770 889 
Q 3016 1369 3016 2328 
Q 3016 3291 2770 3770 
Q 2525 4250 2034 4250 
z
M 2034 4750 
Q 2819 4750 3233 4129 
Q 3647 3509 3647 2328 
Q 3647 1150 3233 529 
Q 2819 -91 2034 -91 
Q 1250 -91 836 529 
Q 422 1150 422 2328 
Q 422 3509 836 4129 
Q 1250 4750 2034 4750 
z
" transform="scale(0.015625)"/>
       </defs>
       <use xlink:href="#DejaVuSans-30"/>
      </g>
     </g>
    </g>
    <g id="xtick_2">
     <g id="line2d_2">
      <g>
       <use xlink:href="#mf87cd5b8d4" x="242.255658" y="318.04" style="stroke: #000000; stroke-width: 0.8"/>
      </g>
     </g>
     <g id="text_2">
      <!-- 500 -->
      <g transform="translate(232.711908 332.638438) scale(0.1 -0.1)">
       <defs>
        <path id="DejaVuSans-35" d="M 691 4666 
L 3169 4666 
L 3169 4134 
L 1269 4134 
L 1269 2991 
Q 1406 3038 1543 3061 
Q 1681 3084 1819 3084 
Q 2600 3084 3056 2656 
Q 3513 2228 3513 1497 
Q 3513 744 3044 326 
Q 2575 -91 1722 -91 
Q 1428 -91 1123 -41 
Q 819 9 494 109 
L 494 744 
Q 775 591 1075 516 
Q 1375 441 1709 441 
Q 2250 441 2565 725 
Q 2881 1009 2881 1497 
Q 2881 1984 2565 2268 
Q 2250 2553 1709 2553 
Q 1456 2553 1204 2497 
Q 953 2441 691 2322 
L 691 4666 
z
" transform="scale(0.015625)"/>
       </defs>
       <use xlink:href="#DejaVuSans-35"/>
       <use xlink:href="#DejaVuSans-30" x="63.623047"/>
       <use xlink:href="#DejaVuSans-30" x="127.246094"/>
      </g>
     </g>
    </g>
    <g id="xtick_3">
     <g id="line2d_3">
      <g>
       <use xlink:href="#mf87cd5b8d4" x="397.353102" y="318.04" style="stroke: #000000; stroke-width: 0.8"/>
      </g>
     </g>
     <g id="text_3">
      <!-- 1000 -->
      <g transform="translate(384.628102 332.638438) scale(0.1 -0.1)">
       <defs>
        <path id="DejaVuSans-31" d="M 794 531 
L 1825 531 
L 1825 4091 
L 703 3866 
L 703 4441 
L 1819 4666 
L 2450 4666 
L 2450 531 
L 3481 531 
L 3481 0 
L 794 0 
L 794 531 
z
" transform="scale(0.015625)"/>
       </defs>
       <use xlink:href="#DejaVuSans-31"/>
       <use xlink:href="#DejaVuSans-30" x="63.623047"/>
       <use xlink:href="#DejaVuSans-30" x="127.246094"/>
       <use xlink:href="#DejaVuSans-30" x="190.869141"/>
      </g>
     </g>
    </g>
    <g id="xtick_4">
     <g id="line2d_4">
      <g>
       <use xlink:href="#mf87cd5b8d4" x="552.450546" y="318.04" style="stroke: #000000; stroke-width: 0.8"/>
      </g>
     </g>
     <g id="text_4">
      <!-- 1500 -->
      <g transform="translate(539.725546 332.638438) scale(0.1 -0.1)">
       <use xlink:href="#DejaVuSans-31"/>
       <use xlink:href="#DejaVuSans-35" x="63.623047"/>
       <use xlink:href="#DejaVuSans-30" x="127.246094"/>
       <use xlink:href="#DejaVuSans-30" x="190.869141"/>
      </g>
     </g>
    </g>
    <g id="xtick_5">
     <g id="line2d_5">
      <g>
       <use xlink:href="#mf87cd5b8d4" x="707.54799" y="318.04" style="stroke: #000000; stroke-width: 0.8"/>
      </g>
     </g>
     <g id="text_5">
      <!-- 2000 -->
      <g transform="translate(694.82299 332.638438) scale(0.1 -0.1)">
       <defs>
        <path id="DejaVuSans-32" d="M 1228 531 
L 3431 531 
L 3431 0 
L 469 0 
L 469 531 
Q 828 903 1448 1529 
Q 2069 2156 2228 2338 
Q 2531 2678 2651 2914 
Q 2772 3150 2772 3378 
Q 2772 3750 2511 3984 
Q 2250 4219 1831 4219 
Q 1534 4219 1204 4116 
Q 875 4013 500 3803 
L 500 4441 
Q 881 4594 1212 4672 
Q 1544 4750 1819 4750 
Q 2544 4750 2975 4387 
Q 3406 4025 3406 3419 
Q 3406 3131 3298 2873 
Q 3191 2616 2906 2266 
Q 2828 2175 2409 1742 
Q 1991 1309 1228 531 
z
" transform="scale(0.015625)"/>
       </defs>
       <use xlink:href="#DejaVuSans-32"/>
       <use xlink:href="#DejaVuSans-30" x="63.623047"/>
       <use xlink:href="#DejaVuSans-30" x="127.246094"/>
       <use xlink:href="#DejaVuSans-30" x="190.869141"/>
      </g>
     </g>
    </g>
    <g id="text_6">
     <!-- Alignment Column -->
     <g transform="translate(405.748594 346.316563) scale(0.1 -0.1)">
      <defs>
       <path id="DejaVuSans-41" d="M 2188 4044 
L 1331 1722 
L 3047 1722 
L 2188 4044 
z
M 1831 4666 
L 2547 4666 
L 4325 0 
L 3669 0 
L 3244 1197 
L 1141 1197 
L 716 0 
L 50 0 
L 1831 4666 
z
" transform="scale(0.015625)"/>
       <path id="DejaVuSans-6c" d="M 603 4863 
L 1178 4863 
L 1178 0 
L 603 0 
L 603 4863 
z
" transform="scale(0.015625)"/>
       <path id="DejaVuSans-69" d="M 603 3500 
L 1178 3500 
L 1178 0 
L 603 0 
L 603 3500 
z
M 603 4863 
L 1178 4863 
L 1178 4134 
L 603 4134 
L 603 4863 
z
" transform="scale(0.015625)"/>
       <path id="DejaVuSans-67" d="M 2906 1791 
Q 2906 2416 2648 2759 
Q 2391 3103 1925 3103 
Q 1463 3103 1205 2759 
Q 947 2416 947 1791 
Q 947 1169 1205 825 
Q 1463 481 1925 481 
Q 2391 481 2648 825 
Q 2906 1169 2906 1791 
z
M 3481 434 
Q 3481 -459 3084 -895 
Q 2688 -1331 1869 -1331 
Q 1566 -1331 1297 -1286 
Q 1028 -1241 775 -1147 
L 775 -588 
Q 1028 -725 1275 -790 
Q 1522 -856 1778 -856 
Q 2344 -856 2625 -561 
Q 2906 -266 2906 331 
L 2906 616 
Q 2728 306 2450 153 
Q 2172 0 1784 0 
Q 1141 0 747 490 
Q 353 981 353 1791 
Q 353 2603 747 3093 
Q 1141 3584 1784 3584 
Q 2172 3584 2450 3431 
Q 2728 3278 2906 2969 
L 2906 3500 
L 3481 3500 
L 3481 434 
z
" transform="scale(0.015625)"/>
       <path id="DejaVuSans-6e" d="M 3513 2113 
L 3513 0 
L 2938 0 
L 2938 2094 
Q 2938 2591 2744 2837 
Q 2550 3084 2163 3084 
Q 1697 3084 1428 2787 
Q 1159 2491 1159 1978 
L 1159 0 
L 581 0 
L 581 3500 
L 1159 3500 
L 1159 2956 
Q 1366 3272 1645 3428 
Q 1925 3584 2291 3584 
Q 2894 3584 3203 3211 
Q 3513 2838 3513 2113 
z
" transform="scale(0.015625)"/>
       <path id="DejaVuSans-6d" d="M 3328 2828 
Q 3544 3216 3844 3400 
Q 4144 3584 4550 3584 
Q 5097 3584 5394 3201 
Q 5691 2819 5691 2113 
L 5691 0 
L 5113 0 
L 5113 2094 
Q 5113 2597 4934 2840 
Q 4756 3084 4391 3084 
Q 3944 3084 3684 2787 
Q 3425 2491 3425 1978 
L 3425 0 
L 2847 0 
L 2847 2094 
Q 2847 2600 2669 2842 
Q 2491 3084 2119 3084 
Q 1678 3084 1418 2786 
Q 1159 2488 1159 1978 
L 1159 0 
L 581 0 
L 581 3500 
L 1159 3500 
L 1159 2956 
Q 1356 3278 1631 3431 
Q 1906 3584 2284 3584 
Q 2666 3584 2933 3390 
Q 3200 3197 3328 2828 
z
" transform="scale(0.015625)"/>
       <path id="DejaVuSans-65" d="M 3597 1894 
L 3597 1613 
L 953 1613 
Q 991 1019 1311 708 
Q 1631 397 2203 397 
Q 2534 397 2845 478 
Q 3156 559 3463 722 
L 3463 178 
Q 3153 47 2828 -22 
Q 2503 -91 2169 -91 
Q 1331 -91 842 396 
Q 353 884 353 1716 
Q 353 2575 817 3079 
Q 1281 3584 2069 3584 
Q 2775 3584 3186 3129 
Q 3597 2675 3597 1894 
z
M 3022 2063 
Q 3016 2534 2758 2815 
Q 2500 3097 2075 3097 
Q 1594 3097 1305 2825 
Q 1016 2553 972 2059 
L 3022 2063 
z
" transform="scale(0.015625)"/>
       <path id="DejaVuSans-74" d="M 1172 4494 
L 1172 3500 
L 2356 3500 
L 2356 3053 
L 1172 3053 
L 1172 1153 
Q 1172 725 1289 603 
Q 1406 481 1766 481 
L 2356 481 
L 2356 0 
L 1766 0 
Q 1100 0 847 248 
Q 594 497 594 1153 
L 594 3053 
L 172 3053 
L 172 3500 
L 594 3500 
L 594 4494 
L 1172 4494 
z
" transform="scale(0.015625)"/>
       <path id="DejaVuSans-20" transform="scale(0.015625)"/>
       <path id="DejaVuSans-43" d="M 4122 4306 
L 4122 3641 
Q 3803 3938 3442 4084 
Q 3081 4231 2675 4231 
Q 1875 4231 1450 3742 
Q 1025 3253 1025 2328 
Q 1025 1406 1450 917 
Q 1875 428 2675 428 
Q 3081 428 3442 575 
Q 3803 722 4122 1019 
L 4122 359 
Q 3791 134 3420 21 
Q 3050 -91 2638 -91 
Q 1578 -91 968 557 
Q 359 1206 359 2328 
Q 359 3453 968 4101 
Q 1578 4750 2638 4750 
Q 3056 4750 3426 4639 
Q 3797 4528 4122 4306 
z
" transform="scale(0.015625)"/>
       <path id="DejaVuSans-6f" d="M 1959 3097 
Q 1497 3097 1228 2736 
Q 959 2375 959 1747 
Q 959 1119 1226 758 
Q 1494 397 1959 397 
Q 2419 397 2687 759 
Q 2956 1122 2956 1747 
Q 2956 2369 2687 2733 
Q 2419 3097 1959 3097 
z
M 1959 3584 
Q 2709 3584 3137 3096 
Q 3566 2609 3566 1747 
Q 3566 888 3137 398 
Q 2709 -91 1959 -91 
Q 1206 -91 779 398 
Q 353 888 353 1747 
Q 353 2609 779 3096 
Q 1206 3584 1959 3584 
z
" transform="scale(0.015625)"/>
       <path id="DejaVuSans-75" d="M 544 1381 
L 544 3500 
L 1119 3500 
L 1119 1403 
Q 1119 906 1312 657 
Q 1506 409 1894 409 
Q 2359 409 2629 706 
Q 2900 1003 2900 1516 
L 2900 3500 
L 3475 3500 
L 3475 0 
L 2900 0 
L 2900 538 
Q 2691 219 2414 64 
Q 2138 -91 1772 -91 
Q 1169 -91 856 284 
Q 544 659 544 1381 
z
M 1991 3584 
L 1991 3584 
z
" transform="scale(0.015625)"/>
      </defs>
      <use xlink:href="#DejaVuSans-41"/>
      <use xlink:href="#DejaVuSans-6c" x="68.408203"/>
      <use xlink:href="#DejaVuSans-69" x="96.191406"/>
      <use xlink:href="#DejaVuSans-67" x="123.974609"/>
      <use xlink:href="#DejaVuSans-6e" x="187.451172"/>
      <use xlink:href="#DejaVuSans-6d" x="250.830078"/>
      <use xlink:href="#DejaVuSans-65" x="348.242188"/>
      <use xlink:href="#DejaVuSans-6e" x="409.765625"/>
      <use xlink:href="#DejaVuSans-74" x="473.144531"/>
      <use xlink:href="#DejaVuSans-20" x="512.353516"/>
      <use xlink:href="#DejaVuSans-43" x="544.140625"/>
      <use xlink:href="#DejaVuSans-6f" x="613.964844"/>
      <use xlink:href="#DejaVuSans-6c" x="675.146484"/>
      <use xlink:href="#DejaVuSans-75" x="702.929688"/>
      <use xlink:href="#DejaVuSans-6d" x="766.308594"/>
      <use xlink:href="#DejaVuSans-6e" x="863.720703"/>
     </g>
    </g>
   </g>
   <g id="matplotlib.axis_2">
    <g id="ytick_1">
     <g id="line2d_6">
      <defs>
       <path id="m58c56fd777" d="M 0 0 
L -3.5 0 
" style="stroke: #000000; stroke-width: 0.8"/>
      </defs>
      <g>
       <use xlink:href="#m58c56fd777" x="51.005" y="318.04" style="stroke: #000000; stroke-width: 0.8"/>
      </g>
     </g>
     <g id="text_7">
      <!-- 0 -->
      <g transform="translate(37.6425 321.839219) scale(0.1 -0.1)">
       <use xlink:href="#DejaVuSans-30"/>
      </g>
     </g>
    </g>
    <g id="ytick_2">
     <g id="line2d_7">
      <g>
       <use xlink:href="#m58c56fd777" x="51.005" y="259.664" style="stroke: #000000; stroke-width: 0.8"/>
      </g>
     </g>
     <g id="text_8">
      <!-- 20 -->
      <g transform="translate(31.28 263.463219) scale(0.1 -0.1)">
       <use xlink:href="#DejaVuSans-32"/>
       <use xlink:href="#DejaVuSans-30" x="63.623047"/>
      </g>
     </g>
    </g>
    <g id="ytick_3">
     <g id="line2d_8">
      <g>
       <use xlink:href="#m58c56fd777" x="51.005" y="201.288" style="stroke: #000000; stroke-width: 0.8"/>
      </g>
     </g>
     <g id="text_9">
      <!-- 40 -->
      <g transform="translate(31.28 205.087219) scale(0.1 -0.1)">
       <defs>
        <path id="DejaVuSans-34" d="M 2419 4116 
L 825 1625 
L 2419 1625 
L 2419 4116 
z
M 2253 4666 
L 3047 4666 
L 3047 1625 
L 3713 1625 
L 3713 1100 
L 3047 1100 
L 3047 0 
L 2419 0 
L 2419 1100 
L 313 1100 
L 313 1709 
L 2253 4666 
z
" transform="scale(0.015625)"/>
       </defs>
       <use xlink:href="#DejaVuSans-34"/>
       <use xlink:href="#DejaVuSans-30" x="63.623047"/>
      </g>
     </g>
    </g>
    <g id="ytick_4">
     <g id="line2d_9">
      <g>
       <use xlink:href="#m58c56fd777" x="51.005" y="142.912" style="stroke: #000000; stroke-width: 0.8"/>
      </g>
     </g>
     <g id="text_10">
      <!-- 60 -->
      <g transform="translate(31.28 146.711219) scale(0.1 -0.1)">
       <defs>
        <path id="DejaVuSans-36" d="M 2113 2584 
Q 1688 2584 1439 2293 
Q 1191 2003 1191 1497 
Q 1191 994 1439 701 
Q 1688 409 2113 409 
Q 2538 409 2786 701 
Q 3034 994 3034 1497 
Q 3034 2003 2786 2293 
Q 2538 2584 2113 2584 
z
M 3366 4563 
L 3366 3988 
Q 3128 4100 2886 4159 
Q 2644 4219 2406 4219 
Q 1781 4219 1451 3797 
Q 1122 3375 1075 2522 
Q 1259 2794 1537 2939 
Q 1816 3084 2150 3084 
Q 2853 3084 3261 2657 
Q 3669 2231 3669 1497 
Q 3669 778 3244 343 
Q 2819 -91 2113 -91 
Q 1303 -91 875 529 
Q 447 1150 447 2328 
Q 447 3434 972 4092 
Q 1497 4750 2381 4750 
Q 2619 4750 2861 4703 
Q 3103 4656 3366 4563 
z
" transform="scale(0.015625)"/>
       </defs>
       <use xlink:href="#DejaVuSans-36"/>
       <use xlink:href="#DejaVuSans-30" x="63.623047"/>
      </g>
     </g>
    </g>
    <g id="ytick_5">
     <g id="line2d_10">
      <g>
       <use xlink:href="#m58c56fd777" x="51.005" y="84.536" style="stroke: #000000; stroke-width: 0.8"/>
      </g>
     </g>
     <g id="text_11">
      <!-- 80 -->
      <g transform="translate(31.28 88.335219) scale(0.1 -0.1)">
       <defs>
        <path id="DejaVuSans-38" d="M 2034 2216 
Q 1584 2216 1326 1975 
Q 1069 1734 1069 1313 
Q 1069 891 1326 650 
Q 1584 409 2034 409 
Q 2484 409 2743 651 
Q 3003 894 3003 1313 
Q 3003 1734 2745 1975 
Q 2488 2216 2034 2216 
z
M 1403 2484 
Q 997 2584 770 2862 
Q 544 3141 544 3541 
Q 544 4100 942 4425 
Q 1341 4750 2034 4750 
Q 2731 4750 3128 4425 
Q 3525 4100 3525 3541 
Q 3525 3141 3298 2862 
Q 3072 2584 2669 2484 
Q 3125 2378 3379 2068 
Q 3634 1759 3634 1313 
Q 3634 634 3220 271 
Q 2806 -91 2034 -91 
Q 1263 -91 848 271 
Q 434 634 434 1313 
Q 434 1759 690 2068 
Q 947 2378 1403 2484 
z
M 1172 3481 
Q 1172 3119 1398 2916 
Q 1625 2713 2034 2713 
Q 2441 2713 2670 2916 
Q 2900 3119 2900 3481 
Q 2900 3844 2670 4047 
Q 2441 4250 2034 4250 
Q 1625 4250 1398 4047 
Q 1172 3844 1172 3481 
z
" transform="scale(0.015625)"/>
       </defs>
       <use xlink:href="#DejaVuSans-38"/>
       <use xlink:href="#DejaVuSans-30" x="63.623047"/>
      </g>
     </g>
    </g>
    <g id="ytick_6">
     <g id="line2d_11">
      <g>
       <use xlink:href="#m58c56fd777" x="51.005" y="26.16" style="stroke: #000000; stroke-width: 0.8"/>
      </g>
     </g>
     <g id="text_12">
      <!-- 100 -->
      <g transform="translate(24.9175 29.959219) scale(0.1 -0.1)">
       <use xlink:href="#DejaVuSans-31"/>
       <use xlink:href="#DejaVuSans-30" x="63.623047"/>
       <use xlink:href="#DejaVuSans-30" x="127.246094"/>
      </g>
     </g>
    </g>
    <g id="text_13">
     <!-- Gap Percentage (%) -->
     <g transform="translate(18.837812 222.165625) rotate(-90) scale(0.1 -0.1)">
      <defs>
       <path id="DejaVuSans-47" d="M 3809 666 
L 3809 1919 
L 2778 1919 
L 2778 2438 
L 4434 2438 
L 4434 434 
Q 4069 175 3628 42 
Q 3188 -91 2688 -91 
Q 1594 -91 976 548 
Q 359 1188 359 2328 
Q 359 3472 976 4111 
Q 1594 4750 2688 4750 
Q 3144 4750 3555 4637 
Q 3966 4525 4313 4306 
L 4313 3634 
Q 3963 3931 3569 4081 
Q 3175 4231 2741 4231 
Q 1884 4231 1454 3753 
Q 1025 3275 1025 2328 
Q 1025 1384 1454 906 
Q 1884 428 2741 428 
Q 3075 428 3337 486 
Q 3600 544 3809 666 
z
" transform="scale(0.015625)"/>
       <path id="DejaVuSans-61" d="M 2194 1759 
Q 1497 1759 1228 1600 
Q 959 1441 959 1056 
Q 959 750 1161 570 
Q 1363 391 1709 391 
Q 2188 391 2477 730 
Q 2766 1069 2766 1631 
L 2766 1759 
L 2194 1759 
z
M 3341 1997 
L 3341 0 
L 2766 0 
L 2766 531 
Q 2569 213 2275 61 
Q 1981 -91 1556 -91 
Q 1019 -91 701 211 
Q 384 513 384 1019 
Q 384 1609 779 1909 
Q 1175 2209 1959 2209 
L 2766 2209 
L 2766 2266 
Q 2766 2663 2505 2880 
Q 2244 3097 1772 3097 
Q 1472 3097 1187 3025 
Q 903 2953 641 2809 
L 641 3341 
Q 956 3463 1253 3523 
Q 1550 3584 1831 3584 
Q 2591 3584 2966 3190 
Q 3341 2797 3341 1997 
z
" transform="scale(0.015625)"/>
       <path id="DejaVuSans-70" d="M 1159 525 
L 1159 -1331 
L 581 -1331 
L 581 3500 
L 1159 3500 
L 1159 2969 
Q 1341 3281 1617 3432 
Q 1894 3584 2278 3584 
Q 2916 3584 3314 3078 
Q 3713 2572 3713 1747 
Q 3713 922 3314 415 
Q 2916 -91 2278 -91 
Q 1894 -91 1617 61 
Q 1341 213 1159 525 
z
M 3116 1747 
Q 3116 2381 2855 2742 
Q 2594 3103 2138 3103 
Q 1681 3103 1420 2742 
Q 1159 2381 1159 1747 
Q 1159 1113 1420 752 
Q 1681 391 2138 391 
Q 2594 391 2855 752 
Q 3116 1113 3116 1747 
z
" transform="scale(0.015625)"/>
       <path id="DejaVuSans-50" d="M 1259 4147 
L 1259 2394 
L 2053 2394 
Q 2494 2394 2734 2622 
Q 2975 2850 2975 3272 
Q 2975 3691 2734 3919 
Q 2494 4147 2053 4147 
L 1259 4147 
z
M 628 4666 
L 2053 4666 
Q 2838 4666 3239 4311 
Q 3641 3956 3641 3272 
Q 3641 2581 3239 2228 
Q 2838 1875 2053 1875 
L 1259 1875 
L 1259 0 
L 628 0 
L 628 4666 
z
" transform="scale(0.015625)"/>
       <path id="DejaVuSans-72" d="M 2631 2963 
Q 2534 3019 2420 3045 
Q 2306 3072 2169 3072 
Q 1681 3072 1420 2755 
Q 1159 2438 1159 1844 
L 1159 0 
L 581 0 
L 581 3500 
L 1159 3500 
L 1159 2956 
Q 1341 3275 1631 3429 
Q 1922 3584 2338 3584 
Q 2397 3584 2469 3576 
Q 2541 3569 2628 3553 
L 2631 2963 
z
" transform="scale(0.015625)"/>
       <path id="DejaVuSans-63" d="M 3122 3366 
L 3122 2828 
Q 2878 2963 2633 3030 
Q 2388 3097 2138 3097 
Q 1578 3097 1268 2742 
Q 959 2388 959 1747 
Q 959 1106 1268 751 
Q 1578 397 2138 397 
Q 2388 397 2633 464 
Q 2878 531 3122 666 
L 3122 134 
Q 2881 22 2623 -34 
Q 2366 -91 2075 -91 
Q 1284 -91 818 406 
Q 353 903 353 1747 
Q 353 2603 823 3093 
Q 1294 3584 2113 3584 
Q 2378 3584 2631 3529 
Q 2884 3475 3122 3366 
z
" transform="scale(0.015625)"/>
       <path id="DejaVuSans-28" d="M 1984 4856 
Q 1566 4138 1362 3434 
Q 1159 2731 1159 2009 
Q 1159 1288 1364 580 
Q 1569 -128 1984 -844 
L 1484 -844 
Q 1016 -109 783 600 
Q 550 1309 550 2009 
Q 550 2706 781 3412 
Q 1013 4119 1484 4856 
L 1984 4856 
z
" transform="scale(0.015625)"/>
       <path id="DejaVuSans-25" d="M 4653 2053 
Q 4381 2053 4226 1822 
Q 4072 1591 4072 1178 
Q 4072 772 4226 539 
Q 4381 306 4653 306 
Q 4919 306 5073 539 
Q 5228 772 5228 1178 
Q 5228 1588 5073 1820 
Q 4919 2053 4653 2053 
z
M 4653 2450 
Q 5147 2450 5437 2106 
Q 5728 1763 5728 1178 
Q 5728 594 5436 251 
Q 5144 -91 4653 -91 
Q 4153 -91 3862 251 
Q 3572 594 3572 1178 
Q 3572 1766 3864 2108 
Q 4156 2450 4653 2450 
z
M 1428 4353 
Q 1159 4353 1004 4120 
Q 850 3888 850 3481 
Q 850 3069 1003 2837 
Q 1156 2606 1428 2606 
Q 1700 2606 1854 2837 
Q 2009 3069 2009 3481 
Q 2009 3884 1853 4118 
Q 1697 4353 1428 4353 
z
M 4250 4750 
L 4750 4750 
L 1831 -91 
L 1331 -91 
L 4250 4750 
z
M 1428 4750 
Q 1922 4750 2215 4408 
Q 2509 4066 2509 3481 
Q 2509 2891 2217 2550 
Q 1925 2209 1428 2209 
Q 931 2209 642 2551 
Q 353 2894 353 3481 
Q 353 4063 643 4406 
Q 934 4750 1428 4750 
z
" transform="scale(0.015625)"/>
       <path id="DejaVuSans-29" d="M 513 4856 
L 1013 4856 
Q 1481 4119 1714 3412 
Q 1947 2706 1947 2009 
Q 1947 1309 1714 600 
Q 1481 -109 1013 -844 
L 513 -844 
Q 928 -128 1133 580 
Q 1338 1288 1338 2009 
Q 1338 2731 1133 3434 
Q 928 4138 513 4856 
z
" transform="scale(0.015625)"/>
      </defs>
      <use xlink:href="#DejaVuSans-47"/>
      <use xlink:href="#DejaVuSans-61" x="77.490234"/>
      <use xlink:href="#DejaVuSans-70" x="138.769531"/>
      <use xlink:href="#DejaVuSans-20" x="202.246094"/>
      <use xlink:href="#DejaVuSans-50" x="234.033203"/>
      <use xlink:href="#DejaVuSans-65" x="290.710938"/>
      <use xlink:href="#DejaVuSans-72" x="352.234375"/>
      <use xlink:href="#DejaVuSans-63" x="391.097656"/>
      <use xlink:href="#DejaVuSans-65" x="446.078125"/>
      <use xlink:href="#DejaVuSans-6e" x="507.601562"/>
      <use xlink:href="#DejaVuSans-74" x="570.980469"/>
      <use xlink:href="#DejaVuSans-61" x="610.189453"/>
      <use xlink:href="#DejaVuSans-67" x="671.46875"/>
      <use xlink:href="#DejaVuSans-65" x="734.945312"/>
      <use xlink:href="#DejaVuSans-20" x="796.46875"/>
      <use xlink:href="#DejaVuSans-28" x="828.255859"/>
      <use xlink:href="#DejaVuSans-25" x="867.269531"/>
      <use xlink:href="#DejaVuSans-29" x="962.289062"/>
     </g>
    </g>
   </g>
   <g id="line2d_12">
    <path d="M 87.468409 26.209262 
L 89.329578 26.307787 
L 90.880553 26.5541 
L 91.190748 26.455575 
L 91.811138 26.504837 
L 92.121332 26.307787 
L 96.464061 26.406312 
L 98.015035 26.652624 
L 98.32523 27.046724 
L 99.876205 27.391561 
L 100.1864 28.57386 
L 101.116984 28.37681 
L 101.427179 28.57386 
L 101.737374 28.524597 
L 102.047569 29.411322 
L 102.978153 30.445833 
L 103.288348 30.051733 
L 103.598543 31.874444 
L 103.908738 32.170019 
L 104.218933 47.145803 
L 104.529128 45.667929 
L 105.459713 36.800689 
L 105.769907 34.091254 
L 106.080102 33.00748 
L 106.390297 32.416331 
L 106.700492 32.120756 
L 107.010687 31.529607 
L 107.320882 30.051733 
L 107.941272 28.426073 
L 108.251467 28.57386 
L 108.561661 28.426073 
L 109.182051 27.490086 
L 109.492246 27.391561 
L 109.802441 26.898937 
L 110.733026 26.35705 
L 113.834975 26.406312 
L 114.145169 26.209262 
L 114.455364 26.307787 
L 114.765559 26.209262 
L 116.316534 26.455575 
L 116.626729 27.095986 
L 116.936923 27.293036 
L 117.247118 27.687136 
L 117.867508 27.884186 
L 119.108288 29.805421 
L 119.418483 31.18477 
L 119.728677 31.431082 
L 120.038872 31.18477 
L 120.349067 31.18477 
L 120.969457 29.854684 
L 121.279652 29.706896 
L 121.589847 29.115747 
L 121.900042 28.820172 
L 122.210237 27.982711 
L 122.520431 27.687136 
L 122.830626 26.800412 
L 123.140821 26.652624 
L 124.071406 26.701887 
L 124.381601 27.095986 
L 124.691796 27.095986 
L 125.312185 26.701887 
L 125.932575 26.751149 
L 126.24277 27.785661 
L 126.86316 29.066484 
L 127.173355 30.495095 
L 129.034524 44.288581 
L 129.344719 48.919251 
L 129.965109 63.697985 
L 130.275304 167.543224 
L 130.585499 153.700476 
L 131.826278 73.008587 
L 132.136473 61.5797 
L 133.067058 44.534893 
L 133.377253 41.529884 
L 133.687447 40.150535 
L 134.618032 33.253792 
L 134.928227 31.972969 
L 135.238422 30.150258 
L 135.548617 26.35705 
L 135.858812 26.307787 
L 136.789396 26.504837 
L 137.099591 26.406312 
L 137.409786 29.066484 
L 137.719981 28.820172 
L 138.030176 28.77091 
L 138.340371 29.411322 
L 138.960761 31.234032 
L 139.270955 31.332557 
L 139.58115 31.283295 
L 139.891345 33.746417 
L 140.20154 30.98772 
L 140.511735 31.234032 
L 140.82193 31.18477 
L 141.44232 32.170019 
L 142.062709 27.342299 
L 142.372904 26.307787 
L 142.683099 27.095986 
L 143.303489 27.293036 
L 143.613684 27.490086 
L 143.923879 27.539349 
L 144.544268 28.229023 
L 144.854463 28.623122 
L 145.164658 28.77091 
L 145.474853 29.312797 
L 145.785048 36.012489 
L 146.095243 38.180037 
L 146.715633 46.554653 
L 147.025828 49.411875 
L 147.336022 48.180314 
L 147.646217 46.259078 
L 147.956412 33.056743 
L 148.576802 27.933448 
L 148.886997 27.293036 
L 149.197192 27.490086 
L 150.127776 27.095986 
L 150.437971 27.046724 
L 150.748166 26.209262 
L 151.058361 26.5541 
L 151.368556 26.209262 
L 151.678751 27.046724 
L 151.988946 27.440824 
L 152.609336 27.637873 
L 152.91953 28.17976 
L 153.229725 28.37681 
L 153.53992 28.229023 
L 153.850115 28.475335 
L 154.16031 28.475335 
L 154.470505 26.800412 
L 154.7807 26.209262 
L 155.090895 26.997462 
L 156.952064 27.293036 
L 157.262259 27.046724 
L 157.882649 28.278285 
L 158.192844 28.524597 
L 158.503038 29.066484 
L 158.813233 32.908955 
L 159.123428 34.337566 
L 159.433623 39.362336 
L 159.743818 47.934002 
L 160.054013 61.875274 
L 160.364208 55.471156 
L 160.674403 54.584432 
L 160.984598 49.756712 
L 161.294792 42.515132 
L 161.915182 35.470603 
L 162.535572 32.514856 
L 162.845767 29.953208 
L 163.155962 28.57386 
L 163.466157 28.130498 
L 164.086546 28.17976 
L 164.706936 27.440824 
L 165.017131 27.095986 
L 166.257911 28.278285 
L 166.568106 28.278285 
L 166.8783 27.834923 
L 167.49869 28.081235 
L 168.11908 28.031973 
L 168.73947 27.588611 
L 169.35986 26.800412 
L 169.980249 26.35705 
L 170.600639 26.258525 
L 171.221029 26.849674 
L 171.531224 26.898937 
L 171.841419 27.145249 
L 172.151614 27.637873 
L 172.772003 27.440824 
L 173.702588 28.623122 
L 174.012783 28.524597 
L 174.322978 29.362059 
L 174.633173 30.741408 
L 174.943368 31.381819 
L 175.563757 34.189779 
L 175.873952 36.357327 
L 176.804537 57.047554 
L 178.355511 120.448324 
L 178.665706 46.702441 
L 178.975901 34.288304 
L 179.286096 34.534616 
L 179.596291 28.130498 
L 179.906486 27.391561 
L 180.216681 26.948199 
L 180.526876 26.898937 
L 180.83707 26.258525 
L 181.147265 26.5541 
L 181.45746 26.209262 
L 181.767655 26.455575 
L 182.07785 26.5541 
L 182.388045 27.391561 
L 182.69824 30.100996 
L 183.008435 31.18477 
L 183.31863 28.081235 
L 183.628824 26.849674 
L 183.939019 26.701887 
L 184.249214 26.751149 
L 184.559409 26.504837 
L 185.179799 26.455575 
L 185.489994 26.652624 
L 186.110383 26.258525 
L 188.591943 26.307787 
L 188.902137 26.652624 
L 189.212332 27.440824 
L 189.832722 28.081235 
L 190.142917 28.229023 
L 190.453112 29.460584 
L 190.763307 31.874444 
L 191.383697 38.278562 
L 191.693891 45.224567 
L 192.004086 56.998292 
L 192.624476 210.056716 
L 192.934671 31.234032 
L 193.244866 30.938457 
L 193.865256 27.588611 
L 194.175451 26.898937 
L 194.485645 26.898937 
L 194.79584 27.391561 
L 195.106035 27.095986 
L 195.41623 31.431082 
L 195.726425 32.219281 
L 196.03662 307.251524 
L 196.346815 27.982711 
L 196.65701 26.701887 
L 197.277399 26.849674 
L 197.587594 26.652624 
L 197.897789 26.209262 
L 198.207984 26.209262 
L 198.518179 26.701887 
L 198.828374 26.701887 
L 199.448764 26.258525 
L 200.379348 26.307787 
L 200.689543 26.258525 
L 200.999738 26.504837 
L 201.309933 26.35705 
L 201.620128 26.455575 
L 201.930323 27.342299 
L 202.240518 26.603362 
L 202.550713 26.307787 
L 203.171102 26.406312 
L 203.791492 26.307787 
L 204.101687 26.209262 
L 205.032272 26.5541 
L 205.342467 26.504837 
L 205.962856 26.997462 
L 206.273051 27.293036 
L 206.583246 309.911696 
L 206.893441 26.800412 
L 207.513831 26.258525 
L 209.064805 26.406312 
L 211.856559 26.35705 
L 212.166754 26.209262 
L 212.476949 26.5541 
L 212.787144 26.258525 
L 213.717729 26.652624 
L 214.027923 309.222022 
L 214.338118 27.588611 
L 214.958508 26.652624 
L 215.268703 26.455575 
L 215.889093 26.406312 
L 216.819677 26.209262 
L 217.129872 26.209262 
L 217.440067 26.455575 
L 217.750262 26.258525 
L 218.370652 26.258525 
L 218.680847 26.258525 
L 218.991042 26.603362 
L 219.921626 26.209262 
L 221.162406 26.307787 
L 223.023575 26.504837 
L 223.643965 26.5541 
L 224.57455 26.751149 
L 225.194939 26.751149 
L 225.815329 26.258525 
L 227.676498 26.35705 
L 228.296888 26.406312 
L 228.607083 26.652624 
L 228.917278 26.652624 
L 229.227473 27.095986 
L 229.847863 27.243774 
L 230.158058 27.490086 
L 230.468252 309.616122 
L 230.778447 26.5541 
L 231.088642 26.455575 
L 231.398837 26.504837 
L 232.639617 26.209262 
L 234.500786 26.209262 
L 234.810981 26.406312 
L 235.121176 26.406312 
L 235.431371 26.5541 
L 235.741566 314.394579 
L 236.05176 26.5541 
L 236.361955 26.307787 
L 236.67215 26.504837 
L 236.982345 313.754167 
L 237.29254 26.406312 
L 238.223125 26.209262 
L 243.496438 26.258525 
L 244.116828 26.35705 
L 245.667802 26.209262 
L 246.598387 26.209262 
L 246.908582 26.603362 
L 247.218776 26.307787 
L 247.839166 26.258525 
L 248.459556 26.35705 
L 248.769751 26.35705 
L 249.079946 26.209262 
L 249.390141 26.258525 
L 249.700336 26.504837 
L 250.01053 314.788678 
L 250.320725 26.35705 
L 251.25131 26.307787 
L 251.561505 26.5541 
L 251.8717 26.209262 
L 253.422674 26.5541 
L 253.732869 316.069502 
L 254.043064 26.307787 
L 254.353259 26.307787 
L 254.663454 316.168027 
L 254.973649 316.217289 
L 255.283844 26.209262 
L 256.834818 26.209262 
L 257.145013 26.35705 
L 257.455208 316.463602 
L 257.765403 26.307787 
L 263.9693 26.258525 
L 264.279495 316.857701 
L 264.58969 27.095986 
L 264.899885 26.307787 
L 266.140665 26.209262 
L 266.761054 26.209262 
L 268.001834 26.258525 
L 268.312029 26.406312 
L 268.622224 316.512864 
L 268.932419 26.406312 
L 269.242613 26.209262 
L 274.826121 26.307787 
L 275.136316 303.162741 
L 275.446511 26.307787 
L 276.687291 26.209262 
L 277.92807 26.209262 
L 278.238265 26.406312 
L 279.16885 26.307787 
L 279.479045 26.701887 
L 279.78924 316.463602 
L 280.099435 26.258525 
L 280.719824 26.258525 
L 281.030019 316.611389 
L 281.340214 26.35705 
L 281.650409 26.209262 
L 288.474697 26.209262 
L 288.784891 26.35705 
L 289.095086 26.209262 
L 290.956256 26.258525 
L 291.266451 305.281026 
L 291.576645 26.504837 
L 291.88684 30.150258 
L 292.197035 317.005489 
L 292.50723 317.202538 
L 292.817425 26.307787 
L 293.12762 26.504837 
L 293.437815 317.054751 
L 293.74801 317.104014 
L 294.058205 26.35705 
L 297.780543 26.307787 
L 298.090738 37.8352 
L 299.021323 37.933725 
L 299.331518 26.209262 
L 299.641713 37.982987 
L 299.951907 317.202538 
L 300.262102 26.209262 
L 301.192687 26.35705 
L 301.502882 317.350326 
L 301.813077 317.498113 
L 302.123272 26.209262 
L 303.984441 26.258525 
L 304.294636 317.547376 
L 304.604831 26.258525 
L 306.155805 26.258525 
L 306.466 317.547376 
L 306.776195 26.258525 
L 307.08639 26.258525 
L 307.396585 317.448851 
L 307.70678 27.342299 
L 308.016974 27.194511 
L 308.327169 27.194511 
L 308.637364 26.504837 
L 308.947559 26.35705 
L 309.878144 26.35705 
L 310.188339 26.209262 
L 310.498534 26.406312 
L 310.808728 316.857701 
L 311.118923 27.194511 
L 311.429118 27.194511 
L 311.739313 26.258525 
L 312.359703 26.209262 
L 312.669898 26.35705 
L 312.980093 26.209262 
L 314.841262 26.307787 
L 315.151457 26.849674 
L 315.461652 317.202538 
L 315.771847 26.35705 
L 316.082042 317.448851 
L 316.392236 317.399588 
L 316.702431 26.5541 
L 317.012626 26.307787 
L 317.322821 26.406312 
L 317.633016 317.695163 
L 317.943211 317.695163 
L 318.253406 26.406312 
L 318.563601 317.498113 
L 318.873796 26.455575 
L 319.18399 26.209262 
L 319.494185 317.202538 
L 319.80438 317.399588 
L 320.114575 26.209262 
L 328.489837 26.258525 
L 328.800032 317.793688 
L 329.420422 317.695163 
L 329.730617 26.455575 
L 330.040812 26.209262 
L 330.351006 26.209262 
L 330.661201 317.695163 
L 330.971396 26.258525 
L 331.281591 317.6459 
L 331.591786 26.455575 
L 331.901981 317.153276 
L 332.212176 317.104014 
L 332.522371 26.5541 
L 332.832566 26.307787 
L 333.76315 26.258525 
L 334.693735 26.307787 
L 338.416074 26.209262 
L 338.726268 26.504837 
L 339.036463 26.504837 
L 339.346658 316.857701 
L 339.656853 316.315814 
L 339.967048 26.504837 
L 340.277243 316.808439 
L 340.587438 26.258525 
L 340.897633 26.455575 
L 341.207828 317.498113 
L 341.518022 26.35705 
L 342.758802 26.455575 
L 343.068997 315.133516 
L 343.379192 28.918697 
L 343.689387 28.524597 
L 343.999582 26.35705 
L 344.309776 26.209262 
L 345.860751 26.209262 
L 346.170946 26.948199 
L 347.10153 26.948199 
L 347.411725 26.307787 
L 348.032115 26.209262 
L 349.583089 26.209262 
L 349.893284 26.406312 
L 350.203479 26.209262 
L 352.374843 26.209262 
L 352.685038 26.652624 
L 352.995233 294.196976 
L 353.305428 313.01523 
L 353.615623 313.507855 
L 353.925818 26.258525 
L 354.546208 26.209262 
L 354.856403 26.455575 
L 355.166597 26.209262 
L 355.476792 26.258525 
L 355.786987 315.034991 
L 356.097182 26.307787 
L 356.407377 308.680135 
L 356.717572 27.095986 
L 357.027767 26.603362 
L 357.958351 26.307787 
L 358.268546 26.504837 
L 358.578741 27.982711 
L 358.888936 26.209262 
L 359.199131 26.307787 
L 359.509326 30.741408 
L 359.819521 315.62614 
L 360.129716 27.046724 
L 360.439911 26.701887 
L 361.0603 26.603362 
L 361.370495 26.209262 
L 361.68069 26.652624 
L 361.990885 26.652624 
L 362.30108 26.209262 
L 362.611275 26.406312 
L 362.92147 26.209262 
L 363.231665 26.35705 
L 363.541859 26.209262 
L 363.852054 26.701887 
L 364.472444 26.701887 
L 364.782639 26.209262 
L 365.403029 26.209262 
L 367.264198 26.258525 
L 367.884588 26.406312 
L 369.745757 26.406312 
L 370.366147 26.209262 
L 370.676342 26.406312 
L 370.986537 26.455575 
L 371.296732 26.849674 
L 371.606927 26.898937 
L 371.917121 314.493104 
L 372.227316 26.5541 
L 372.537511 26.209262 
L 376.570045 26.209262 
L 376.88024 277.102906 
L 377.190435 26.35705 
L 377.500629 26.603362 
L 377.810824 26.258525 
L 378.121019 26.258525 
L 378.431214 61.678224 
L 378.741409 311.19252 
L 379.051604 26.307787 
L 384.635112 26.258525 
L 384.945307 310.404321 
L 385.255502 27.243774 
L 385.565697 26.307787 
L 385.875891 42.761445 
L 386.186086 26.997462 
L 386.496281 26.652624 
L 387.116671 27.194511 
L 387.426866 308.926447 
L 387.737061 30.79067 
L 388.047256 30.741408 
L 388.357451 26.948199 
L 388.667645 28.918697 
L 388.97784 307.350049 
L 389.288035 38.03225 
L 389.59823 26.307787 
L 390.21862 26.258525 
L 390.528815 27.194511 
L 390.83901 288.088432 
L 391.149204 26.35705 
L 391.459399 27.933448 
L 391.769594 279.467504 
L 392.079789 27.736398 
L 392.700179 27.391561 
L 393.010374 26.504837 
L 393.320569 26.258525 
L 393.630764 26.948199 
L 393.940958 26.258525 
L 394.251153 26.5541 
L 394.561348 26.5541 
L 394.871543 26.258525 
L 395.181738 26.504837 
L 395.491933 26.997462 
L 395.802128 26.209262 
L 396.112323 30.889195 
L 396.422518 30.642883 
L 396.732712 26.35705 
L 397.042907 44.042268 
L 397.353102 44.140793 
L 397.663297 53.845495 
L 397.973492 314.394579 
L 398.283687 26.800412 
L 398.593882 26.504837 
L 398.904077 26.455575 
L 399.214272 26.258525 
L 399.524466 26.751149 
L 399.834661 26.35705 
L 400.144856 26.209262 
L 402.31622 26.209262 
L 402.626415 26.35705 
L 402.93661 26.209262 
L 403.557 26.258525 
L 403.867195 26.209262 
L 404.487585 26.307787 
L 404.79778 26.307787 
L 405.107974 26.455575 
L 406.038559 26.455575 
L 406.348754 26.652624 
L 406.658949 306.069225 
L 406.969144 27.834923 
L 407.279339 26.209262 
L 407.589534 27.046724 
L 407.899728 26.307787 
L 408.209923 26.209262 
L 408.520118 27.095986 
L 409.450703 27.194511 
L 409.760898 27.440824 
L 410.071093 27.440824 
L 410.381288 315.675403 
L 410.691482 26.455575 
L 411.001677 26.258525 
L 411.311872 26.258525 
L 411.622067 26.603362 
L 412.242457 26.603362 
L 412.552652 316.365077 
L 412.862847 26.948199 
L 413.173042 26.504837 
L 413.483236 26.258525 
L 414.413821 26.209262 
L 415.034211 26.209262 
L 415.344406 26.209262 
L 415.654601 26.5541 
L 415.964796 26.701887 
L 416.27499 305.034714 
L 416.585185 31.036982 
L 416.89538 26.307787 
L 417.205575 26.603362 
L 417.51577 26.406312 
L 417.825965 26.5541 
L 418.13616 26.5541 
L 418.446355 26.258525 
L 418.75655 26.455575 
L 419.066744 26.406312 
L 419.376939 26.603362 
L 419.997329 26.701887 
L 420.307524 315.970977 
L 420.617719 316.611389 
L 420.927914 27.982711 
L 421.238109 26.258525 
L 421.858498 26.455575 
L 422.168693 26.258525 
L 422.478888 26.406312 
L 422.789083 30.692145 
L 423.099278 37.884462 
L 423.409473 303.310528 
L 423.719668 26.751149 
L 424.029863 26.209262 
L 424.340058 33.647892 
L 424.650252 26.258525 
L 424.960447 26.5541 
L 425.270642 26.307787 
L 425.580837 30.495095 
L 425.891032 291.044179 
L 426.201227 27.293036 
L 426.821617 26.258525 
L 427.131812 26.652624 
L 427.442006 28.475335 
L 427.752201 36.012489 
L 428.062396 286.709084 
L 428.372591 34.633141 
L 428.682786 26.455575 
L 428.992981 27.046724 
L 429.303176 27.046724 
L 429.613371 28.524597 
L 429.923566 28.967959 
L 430.23376 259.959575 
L 430.543955 33.59863 
L 430.85415 26.258525 
L 431.164345 26.307787 
L 431.784735 26.209262 
L 432.405125 26.209262 
L 432.715319 26.701887 
L 433.025514 292.374265 
L 433.335709 26.406312 
L 433.645904 26.406312 
L 433.956099 26.5541 
L 434.886684 26.603362 
L 435.196879 28.475335 
L 435.507073 227.840459 
L 435.817268 244.737478 
L 436.127463 42.07177 
L 436.437658 69.708003 
L 436.747853 27.637873 
L 437.058048 27.588611 
L 437.368243 26.258525 
L 440.159997 26.307787 
L 440.470192 27.884186 
L 441.090581 28.17976 
L 441.400776 30.59362 
L 441.710971 40.741684 
L 442.021166 166.45945 
L 442.331361 194.933144 
L 442.641556 28.918697 
L 442.951751 26.35705 
L 443.261946 26.209262 
L 443.572141 26.307787 
L 444.19253 26.209262 
L 444.502725 26.5541 
L 444.81292 27.440824 
L 445.123115 249.860773 
L 445.43331 26.5541 
L 445.743505 26.209262 
L 448.225064 26.307787 
L 448.535259 26.652624 
L 449.776038 26.849674 
L 450.086233 26.209262 
L 450.706623 26.209262 
L 451.016818 27.736398 
L 451.327013 28.278285 
L 451.637208 31.086245 
L 451.947403 76.949583 
L 452.257597 301.093718 
L 452.567792 27.982711 
L 452.877987 26.209262 
L 453.498377 26.997462 
L 453.808572 29.559109 
L 454.118767 303.212003 
L 454.428962 28.426073 
L 454.739157 26.455575 
L 455.049351 26.209262 
L 455.359546 26.209262 
L 455.669741 26.35705 
L 455.979936 26.209262 
L 456.910521 26.455575 
L 457.220716 26.258525 
L 459.39208 26.35705 
L 460.322665 26.406312 
L 460.632859 26.209262 
L 460.943054 26.209262 
L 461.253249 26.5541 
L 461.563444 27.145249 
L 461.873639 27.293036 
L 462.183834 30.741408 
L 462.494029 315.182778 
L 462.804224 27.982711 
L 463.114419 26.209262 
L 463.734808 26.209262 
L 464.665393 26.209262 
L 464.975588 26.406312 
L 465.285783 26.209262 
L 468.697927 26.209262 
L 469.008121 309.123497 
L 469.318316 31.628132 
L 469.628511 314.985728 
L 469.938706 26.800412 
L 470.248901 26.455575 
L 470.559096 26.307787 
L 470.869291 307.793411 
L 471.179486 27.588611 
L 471.489681 27.588611 
L 471.799875 26.603362 
L 472.11007 26.209262 
L 472.420265 26.504837 
L 472.73046 30.347308 
L 473.040655 316.315814 
L 473.35085 27.785661 
L 473.661045 26.406312 
L 473.97124 26.849674 
L 474.281434 26.455575 
L 474.591629 27.539349 
L 474.901824 27.440824 
L 475.212019 27.884186 
L 475.522214 305.428814 
L 475.832409 26.504837 
L 476.142604 26.504837 
L 476.762994 26.209262 
L 477.073188 27.884186 
L 477.383383 310.256533 
L 477.693578 37.588888 
L 478.003773 26.209262 
L 478.313968 26.406312 
L 479.864942 26.258525 
L 482.966891 26.35705 
L 483.277086 289.517043 
L 483.587281 27.293036 
L 483.897476 28.524597 
L 484.207671 36.308064 
L 484.517866 315.133516 
L 484.828061 26.751149 
L 485.138256 315.62614 
L 485.44845 27.046724 
L 485.758645 26.209262 
L 486.06884 26.209262 
L 486.379035 26.849674 
L 486.68923 27.046724 
L 486.999425 29.756159 
L 487.30962 316.660651 
L 487.619815 26.800412 
L 487.93001 26.701887 
L 488.240204 26.209262 
L 488.550399 26.455575 
L 488.860594 314.493104 
L 489.170789 314.148267 
L 489.480984 26.603362 
L 489.791179 26.35705 
L 490.101374 26.406312 
L 490.721764 26.209262 
L 491.031958 26.504837 
L 491.342153 26.307787 
L 491.652348 26.307787 
L 491.962543 26.849674 
L 492.272738 26.997462 
L 492.582933 316.118765 
L 492.893128 27.490086 
L 493.823712 26.603362 
L 494.133907 315.724665 
L 494.444102 26.209262 
L 494.754297 26.307787 
L 495.064492 26.209262 
L 495.374687 26.849674 
L 495.684882 26.209262 
L 495.995077 26.35705 
L 496.305272 26.35705 
L 496.615466 315.42909 
L 496.925661 315.872452 
L 497.235856 31.726657 
L 497.546051 26.258525 
L 499.40722 26.307787 
L 499.717415 31.431082 
L 500.02761 308.729397 
L 500.337805 31.578869 
L 500.648 26.258525 
L 500.958195 29.657634 
L 501.26839 26.258525 
L 501.578585 26.35705 
L 501.88878 29.756159 
L 502.198974 310.108746 
L 502.509169 32.514856 
L 502.819364 304.542089 
L 503.129559 26.948199 
L 503.439754 26.406312 
L 503.749949 26.258525 
L 504.990728 26.209262 
L 505.300923 26.849674 
L 505.611118 37.785938 
L 505.921313 38.03225 
L 506.231508 26.800412 
L 506.541703 298.137971 
L 506.851898 26.603362 
L 507.782482 26.258525 
L 508.092677 26.209262 
L 508.402872 26.35705 
L 508.713067 26.209262 
L 509.023262 27.046724 
L 509.333457 26.209262 
L 509.643652 26.35705 
L 509.953847 27.490086 
L 510.264042 316.906964 
L 510.574236 34.977978 
L 510.884431 26.35705 
L 511.194626 26.35705 
L 511.504821 34.288304 
L 511.815016 26.504837 
L 512.125211 43.746694 
L 512.435406 316.906964 
L 512.745601 317.005489 
L 513.055796 26.603362 
L 513.36599 316.956226 
L 513.676185 29.756159 
L 513.98638 29.657634 
L 514.296575 26.209262 
L 516.157744 26.209262 
L 516.778134 26.406312 
L 517.088329 26.504837 
L 517.398524 299.418795 
L 517.708719 26.504837 
L 518.018914 26.504837 
L 518.329109 26.258525 
L 518.639303 29.559109 
L 518.949498 29.706896 
L 519.259693 29.559109 
L 519.569888 29.706896 
L 519.880083 29.706896 
L 520.190278 26.307787 
L 520.810668 26.209262 
L 521.120863 27.736398 
L 521.431057 312.473343 
L 521.741252 312.029981 
L 522.051447 26.701887 
L 522.361642 26.504837 
L 522.671837 26.504837 
L 523.292227 26.209262 
L 529.18593 26.209262 
L 529.496125 29.362059 
L 529.806319 29.362059 
L 530.116514 26.209262 
L 533.218463 26.209262 
L 533.528658 26.603362 
L 534.149048 26.209262 
L 536.630607 26.209262 
L 536.940802 26.5541 
L 537.250997 314.739416 
L 537.561192 30.741408 
L 537.871387 30.692145 
L 538.181581 26.504837 
L 538.491776 30.445833 
L 538.801971 313.60638 
L 539.112166 30.445833 
L 539.422361 30.248783 
L 539.732556 27.095986 
L 540.042751 26.35705 
L 540.352946 26.307787 
L 540.663141 26.751149 
L 540.973335 26.849674 
L 541.28353 27.342299 
L 541.593725 316.463602 
L 541.90392 39.756435 
L 542.214115 26.504837 
L 542.52431 26.209262 
L 542.834505 26.209262 
L 543.1447 26.35705 
L 543.765089 26.406312 
L 544.075284 26.5541 
L 544.385479 26.406312 
L 545.316064 26.504837 
L 545.626259 26.209262 
L 545.936454 29.263534 
L 546.246649 29.263534 
L 546.556843 26.800412 
L 546.867038 26.652624 
L 547.487428 26.997462 
L 547.797623 29.903946 
L 548.107818 304.14799 
L 548.418013 315.182778 
L 548.728208 26.307787 
L 549.658792 26.258525 
L 551.830157 26.209262 
L 552.140351 26.504837 
L 552.450546 26.209262 
L 553.691326 26.258525 
L 554.311716 26.455575 
L 554.621911 315.034991 
L 554.932105 26.504837 
L 555.552495 26.209262 
L 557.10347 26.307787 
L 557.413664 27.440824 
L 557.723859 315.182778 
L 558.034054 30.544358 
L 558.344249 26.652624 
L 558.964639 26.258525 
L 559.274834 26.849674 
L 559.585029 26.35705 
L 559.895224 26.701887 
L 560.515613 26.751149 
L 560.825808 27.637873 
L 561.136003 306.611112 
L 561.446198 29.756159 
L 561.756393 26.35705 
L 562.066588 26.406312 
L 562.376783 26.209262 
L 562.686978 26.209262 
L 562.997172 26.455575 
L 563.307367 26.849674 
L 563.617562 312.522606 
L 563.927757 27.637873 
L 564.237952 26.406312 
L 564.548147 26.209262 
L 566.099121 26.258525 
L 566.719511 26.751149 
L 567.029706 269.615014 
L 567.339901 26.504837 
L 567.650096 26.258525 
L 568.270486 26.35705 
L 568.58068 28.623122 
L 568.890875 28.57386 
L 569.20107 315.232041 
L 569.511265 27.785661 
L 569.82146 27.293036 
L 570.131655 26.258525 
L 570.44185 26.948199 
L 570.752045 26.209262 
L 576.025358 26.209262 
L 576.335553 26.504837 
L 576.645748 26.209262 
L 577.576332 26.258525 
L 578.196722 28.57386 
L 578.506917 264.09762 
L 578.817112 299.418795 
L 579.127307 26.849674 
L 579.437502 26.258525 
L 580.368086 26.209262 
L 580.988476 26.258525 
L 581.298671 30.741408 
L 581.608866 289.517043 
L 581.919061 31.381819 
L 582.229256 30.347308 
L 582.53945 26.948199 
L 582.849645 26.800412 
L 583.470035 26.898937 
L 583.78023 26.209262 
L 584.090425 26.849674 
L 584.40062 26.997462 
L 584.710815 30.150258 
L 585.02101 31.480344 
L 585.331204 314.837941 
L 585.641399 27.982711 
L 585.951594 26.5541 
L 586.261789 26.209262 
L 586.571984 29.608371 
L 586.882179 26.209262 
L 587.192374 26.209262 
L 587.502569 26.504837 
L 587.812764 30.199521 
L 588.122958 306.709637 
L 588.433153 28.869435 
L 589.053543 27.342299 
L 589.363738 26.603362 
L 593.086077 26.504837 
L 593.396272 26.307787 
L 594.326856 26.258525 
L 596.188026 26.258525 
L 596.49822 26.5541 
L 596.808415 26.258525 
L 598.049195 26.258525 
L 598.35939 26.504837 
L 598.669585 26.258525 
L 598.979779 26.652624 
L 599.600169 26.800412 
L 599.910364 26.258525 
L 601.151144 26.35705 
L 601.771533 26.406312 
L 602.081728 26.997462 
L 602.391923 34.288304 
L 602.702118 310.404321 
L 603.012313 26.307787 
L 603.942898 26.258525 
L 609.216211 26.209262 
L 609.526406 26.603362 
L 609.836601 26.209262 
L 610.146795 27.490086 
L 610.767185 27.687136 
L 611.07738 27.637873 
L 611.387575 26.603362 
L 611.69777 26.652624 
L 612.007965 26.209262 
L 612.628355 26.258525 
L 613.248744 26.5541 
L 613.558939 30.248783 
L 613.869134 77.392945 
L 614.179329 289.221468 
L 614.489524 26.849674 
L 614.799719 26.504837 
L 615.109914 26.35705 
L 615.420109 26.35705 
L 615.730303 26.209262 
L 616.350693 26.800412 
L 616.660888 26.209262 
L 617.901668 26.258525 
L 618.211863 26.5541 
L 618.522057 26.209262 
L 618.832252 26.849674 
L 619.142447 27.834923 
L 619.452642 45.914241 
L 619.762837 26.800412 
L 620.073032 282.226201 
L 620.383227 30.39657 
L 620.693422 30.100996 
L 621.003617 30.051733 
L 621.313811 29.509846 
L 621.624006 26.307787 
L 621.934201 26.800412 
L 622.244396 27.046724 
L 622.554591 26.209262 
L 622.864786 26.652624 
L 623.174981 26.849674 
L 623.485176 28.77091 
L 623.795371 275.280196 
L 624.105565 30.544358 
L 624.41576 30.298046 
L 624.725955 26.652624 
L 625.346345 26.849674 
L 625.65654 26.504837 
L 626.587125 26.603362 
L 626.897319 26.5541 
L 627.827904 27.588611 
L 628.138099 28.623122 
L 628.448294 278.38373 
L 628.758489 26.800412 
L 629.068684 26.751149 
L 629.378879 26.307787 
L 632.480827 26.307787 
L 632.791022 29.657634 
L 633.101217 263.851308 
L 633.411412 27.539349 
L 634.341997 26.406312 
L 634.962387 30.298046 
L 635.272581 310.256533 
L 635.582776 26.948199 
L 635.892971 26.35705 
L 636.203166 26.849674 
L 636.513361 28.623122 
L 636.823556 299.763632 
L 637.133751 26.997462 
L 638.37453 26.701887 
L 638.684725 29.657634 
L 638.99492 26.209262 
L 639.305115 26.603362 
L 639.61531 26.35705 
L 639.925505 26.258525 
L 640.2357 26.455575 
L 640.545894 28.081235 
L 640.856089 28.081235 
L 641.166284 32.564118 
L 641.476479 309.616122 
L 641.786674 309.566859 
L 642.096869 26.751149 
L 643.647843 26.455575 
L 643.958038 26.209262 
L 644.268233 26.455575 
L 644.578428 26.258525 
L 644.888623 30.39657 
L 645.198818 26.258525 
L 645.509013 26.406312 
L 645.819208 26.258525 
L 646.439597 26.307787 
L 646.749792 26.652624 
L 647.059987 311.882194 
L 647.370182 310.749158 
L 647.680377 26.652624 
L 648.610962 26.603362 
L 648.921156 26.35705 
L 649.851741 26.35705 
L 650.161936 26.800412 
L 650.472131 26.948199 
L 651.092521 26.997462 
L 651.402716 27.194511 
L 651.71291 27.194511 
L 652.023105 26.209262 
L 652.3333 29.460584 
L 652.643495 29.657634 
L 652.95369 26.751149 
L 653.263885 29.559109 
L 653.57408 26.209262 
L 653.884275 26.258525 
L 654.19447 26.455575 
L 655.745444 26.35705 
L 656.986224 26.209262 
L 657.296418 26.652624 
L 657.606613 26.701887 
L 657.916808 26.209262 
L 658.537198 26.406312 
L 659.467783 26.35705 
L 660.088172 26.406312 
L 660.398367 314.394579 
L 660.708562 26.455575 
L 661.328952 26.406312 
L 661.639147 26.209262 
L 661.949342 26.209262 
L 662.259537 29.411322 
L 662.569732 29.509846 
L 662.879926 26.209262 
L 663.190121 38.2293 
L 663.500316 26.406312 
L 663.810511 26.455575 
L 664.120706 26.307787 
L 671.565383 26.209262 
L 672.185773 26.997462 
L 672.495968 26.307787 
L 672.806163 26.455575 
L 673.116358 28.918697 
L 673.426553 29.214272 
L 673.736748 34.041992 
L 674.046942 310.552108 
L 674.357137 27.637873 
L 674.667332 26.948199 
L 674.977527 26.948199 
L 675.287722 26.258525 
L 675.908112 26.209262 
L 676.528502 26.258525 
L 677.148891 26.209262 
L 677.459086 26.455575 
L 677.769281 26.209262 
L 679.940645 26.209262 
L 680.25084 26.35705 
L 680.87123 26.258525 
L 681.49162 26.307787 
L 681.801815 29.854684 
L 682.112009 41.776196 
L 682.422204 42.761445 
L 682.732399 313.951217 
L 683.042594 26.800412 
L 683.352789 26.307787 
L 683.662984 26.652624 
L 684.283374 26.209262 
L 686.144543 26.209262 
L 686.454738 26.504837 
L 686.764933 26.504837 
L 687.075128 26.209262 
L 687.695517 26.307787 
L 688.005712 26.307787 
L 688.626102 35.42134 
L 688.936297 295.477799 
L 689.246492 77.540732 
L 689.556687 38.475612 
L 689.866882 38.130775 
L 690.177077 26.209262 
L 690.487271 26.455575 
L 691.107661 26.209262 
L 691.417856 28.17976 
L 691.728051 26.258525 
L 692.348441 26.258525 
L 692.968831 26.35705 
L 693.279025 27.145249 
L 693.58922 27.293036 
L 693.899415 27.637873 
L 694.20961 27.785661 
L 694.519805 52.12131 
L 694.83 26.603362 
L 695.140195 26.455575 
L 695.760585 26.455575 
L 696.070779 26.209262 
L 696.380974 26.701887 
L 696.691169 26.307787 
L 697.001364 29.017222 
L 697.311559 281.536527 
L 697.621754 65.42217 
L 698.242144 31.726657 
L 698.552339 28.475335 
L 698.862533 27.834923 
L 699.172728 27.736398 
L 699.482923 26.701887 
L 699.793118 26.455575 
L 700.103313 26.5541 
L 700.413508 26.258525 
L 700.723703 26.603362 
L 701.033898 26.209262 
L 701.344093 39.85496 
L 701.654287 26.209262 
L 701.964482 26.35705 
L 702.584872 26.258525 
L 703.205262 26.35705 
L 704.135847 26.258525 
L 704.446041 26.652624 
L 704.756236 26.701887 
L 705.066431 26.603362 
L 705.376626 28.327548 
L 705.686821 31.332557 
L 705.997016 269.023865 
L 706.307211 37.588888 
L 706.617406 26.701887 
L 706.927601 27.194511 
L 707.237795 26.209262 
L 708.16838 26.455575 
L 708.478575 26.258525 
L 709.40916 26.209262 
L 709.719355 26.307787 
L 710.029549 28.967959 
L 710.339744 28.869435 
L 710.649939 30.98772 
L 710.960134 29.854684 
L 711.270329 27.539349 
L 711.580524 27.440824 
L 712.200914 26.35705 
L 712.511109 31.578869 
L 712.821303 32.219281 
L 713.131498 235.820976 
L 713.441693 27.243774 
L 713.751888 27.342299 
L 714.372278 26.258525 
L 715.302863 26.504837 
L 715.613057 26.307787 
L 717.164032 26.258525 
L 717.474227 26.5541 
L 717.784422 26.258525 
L 718.094617 26.258525 
L 718.404811 28.031973 
L 718.715006 28.081235 
L 719.025201 26.258525 
L 719.335396 26.997462 
L 719.645591 26.258525 
L 720.88637 26.258525 
L 721.196565 26.406312 
L 721.50676 28.475335 
L 721.816955 27.884186 
L 722.437345 35.81544 
L 722.74754 234.589414 
L 723.057735 73.05785 
L 723.36793 31.972969 
L 723.988319 27.687136 
L 724.608709 26.751149 
L 724.918904 26.849674 
L 725.229099 26.603362 
L 725.539294 26.504837 
L 726.159684 29.706896 
L 726.469878 29.854684 
L 726.780073 38.771186 
L 727.090268 38.721924 
L 727.400463 26.751149 
L 727.710658 28.278285 
L 728.020853 28.57386 
L 728.331048 28.17976 
L 728.951438 26.603362 
L 729.882022 26.504837 
L 730.192217 26.800412 
L 730.502412 26.504837 
L 730.812607 26.504837 
L 731.122802 26.258525 
L 731.432997 26.701887 
L 731.743192 26.35705 
L 732.053386 27.884186 
L 732.363581 27.736398 
L 732.983971 35.322815 
L 733.294166 209.761141 
L 733.604361 28.57386 
L 733.914556 28.17976 
L 734.224751 26.35705 
L 734.534946 26.455575 
L 734.84514 26.406312 
L 735.155335 26.209262 
L 735.46553 26.800412 
L 735.775725 26.751149 
L 736.08592 43.254069 
L 736.396115 26.209262 
L 736.70631 26.5541 
L 737.3267 26.209262 
L 737.636894 26.603362 
L 737.947089 26.800412 
L 738.257284 26.209262 
L 738.567479 26.406312 
L 738.877674 26.258525 
L 739.498064 26.849674 
L 739.808259 26.800412 
L 740.118454 26.898937 
L 740.428648 211.140489 
L 740.738843 36.357327 
L 741.049038 35.716915 
L 741.359233 26.898937 
L 741.669428 26.209262 
L 742.910208 26.209262 
L 743.220402 26.406312 
L 743.530597 26.209262 
L 743.840792 26.652624 
L 744.150987 26.209262 
L 747.563131 26.209262 
L 747.873326 26.406312 
L 748.493716 26.307787 
L 749.114105 26.307787 
L 749.734495 27.391561 
L 750.04469 34.633141 
L 750.354885 183.799831 
L 750.66508 76.506221 
L 751.28547 66.949306 
L 751.595664 39.707173 
L 751.905859 39.411598 
L 753.146639 31.480344 
L 753.456834 30.692145 
L 753.767029 29.460584 
L 754.077224 26.948199 
L 754.387418 27.046724 
L 754.697613 26.603362 
L 755.007808 26.898937 
L 755.318003 26.800412 
L 755.628198 27.145249 
L 755.938393 26.209262 
L 756.248588 26.800412 
L 756.558783 26.898937 
L 756.868978 26.5541 
L 757.179172 27.046724 
L 757.489367 26.406312 
L 757.799562 26.701887 
L 758.109757 26.800412 
L 758.419952 27.785661 
L 758.730147 27.588611 
L 759.040342 28.229023 
L 759.350537 30.692145 
L 759.660732 34.780928 
L 760.281121 38.968236 
L 760.591316 40.790947 
L 761.211706 63.845772 
L 761.521901 202.273249 
L 761.832096 49.067038 
L 762.142291 42.26882 
L 762.452485 31.036982 
L 763.072875 30.298046 
L 763.38307 30.051733 
L 763.693265 27.539349 
L 764.00346 27.095986 
L 764.313655 26.209262 
L 764.62385 26.800412 
L 765.244239 27.243774 
L 765.554434 39.756435 
L 765.864629 26.948199 
L 766.174824 26.5541 
L 766.485019 26.997462 
L 766.795214 26.258525 
L 768.656383 26.209262 
L 768.966578 26.455575 
L 769.276773 26.258525 
L 769.897163 26.35705 
L 771.758332 26.455575 
L 772.068527 29.460584 
L 772.378722 34.386829 
L 772.688917 205.278258 
L 772.999112 96.851612 
L 773.309307 82.811814 
L 773.619501 49.855237 
L 773.929696 42.515132 
L 774.550086 36.505114 
L 775.170476 31.234032 
L 775.480671 29.657634 
L 775.790866 29.214272 
L 776.72145 26.751149 
L 777.031645 26.258525 
L 777.34184 26.751149 
L 777.652035 26.209262 
L 779.203009 26.948199 
L 779.513204 27.440824 
L 780.133594 26.209262 
L 781.064179 26.603362 
L 781.374374 26.5541 
L 781.684569 30.347308 
L 781.994763 31.234032 
L 782.304958 31.18477 
L 782.615153 32.022231 
L 782.925348 32.268543 
L 783.235543 36.554376 
L 783.545738 45.569404 
L 784.166128 75.570235 
L 784.476323 154.537938 
L 784.786517 121.926197 
L 785.096712 111.778133 
L 785.717102 63.895035 
L 786.027297 56.210093 
L 786.337492 58.821003 
L 786.647687 43.451119 
L 786.957882 46.062029 
L 787.268077 27.145249 
L 787.578271 26.800412 
L 787.888466 26.258525 
L 788.198661 26.209262 
L 788.508856 26.35705 
L 788.819051 26.898937 
L 789.129246 26.701887 
L 789.439441 26.948199 
L 789.749636 34.485354 
L 790.059831 34.189779 
L 790.370025 33.056743 
L 790.68022 33.40158 
L 790.990415 40.987997 
L 791.30061 40.987997 
L 791.610805 54.732219 
L 791.921 56.604192 
L 792.231195 72.66375 
L 792.54139 69.905053 
L 793.782169 44.239318 
L 794.092364 34.879453 
L 794.402559 37.244051 
L 795.333144 29.362059 
L 795.643339 28.623122 
L 795.953533 26.800412 
L 796.263728 27.046724 
L 796.573923 27.046724 
L 796.884118 26.209262 
L 797.194313 26.209262 
L 797.504508 29.509846 
L 797.814703 29.559109 
L 798.124898 29.854684 
L 798.745287 30.002471 
L 799.055482 30.199521 
L 799.365677 30.79067 
L 799.675872 32.022231 
L 799.986067 41.579146 
L 800.296262 41.874721 
L 800.606457 41.234309 
L 801.226847 44.978255 
L 801.847236 51.185323 
L 802.157431 42.613657 
L 802.467626 41.234309 
L 803.088016 36.061752 
L 803.398211 35.027241 
L 803.708406 34.731666 
L 804.328795 33.00748 
L 804.63899 31.135507 
L 804.949185 30.051733 
L 805.25938 26.258525 
L 805.87977 26.209262 
L 806.189965 28.229023 
L 807.120549 26.898937 
L 808.361329 26.406312 
L 808.671524 26.406312 
L 808.981719 26.258525 
L 809.291914 26.307787 
L 809.602108 27.588611 
L 809.912303 27.884186 
L 810.222498 28.721647 
L 810.532693 28.967959 
L 810.842888 28.967959 
L 811.463278 27.834923 
L 811.773473 27.342299 
L 812.083668 27.243774 
L 812.393862 27.342299 
L 812.704057 27.293036 
L 813.324447 26.751149 
L 813.634642 26.603362 
L 813.944837 26.603362 
L 814.565227 26.35705 
L 816.736591 26.258525 
L 816.736591 26.258525 
" clip-path="url(#p3cb449d633)" style="fill: none; stroke: #f18f01; stroke-linecap: square"/>
   </g>
   <g id="patch_3">
    <path d="M 51.005 318.04 
L 51.005 26.16 
" style="fill: none; stroke: #000000; stroke-width: 0.8; stroke-linejoin: miter; stroke-linecap: square"/>
   </g>
   <g id="patch_4">
    <path d="M 853.2 318.04 
L 853.2 26.16 
" style="fill: none; stroke: #000000; stroke-width: 0.8; stroke-linejoin: miter; stroke-linecap: square"/>
   </g>
   <g id="patch_5">
    <path d="M 51.005 318.04 
L 853.2 318.04 
" style="fill: none; stroke: #000000; stroke-width: 0.8; stroke-linejoin: miter; stroke-linecap: square"/>
   </g>
   <g id="patch_6">
    <path d="M 51.005 26.16 
L 853.2 26.16 
" style="fill: none; stroke: #000000; stroke-width: 0.8; stroke-linejoin: miter; stroke-linecap: square"/>
   </g>
   <g id="text_14">
    <!-- MSA Gap Percentage per Column -->
    <g transform="translate(352.445312 20.16) scale(0.12 -0.12)">
     <defs>
      <path id="DejaVuSans-4d" d="M 628 4666 
L 1569 4666 
L 2759 1491 
L 3956 4666 
L 4897 4666 
L 4897 0 
L 4281 0 
L 4281 4097 
L 3078 897 
L 2444 897 
L 1241 4097 
L 1241 0 
L 628 0 
L 628 4666 
z
" transform="scale(0.015625)"/>
      <path id="DejaVuSans-53" d="M 3425 4513 
L 3425 3897 
Q 3066 4069 2747 4153 
Q 2428 4238 2131 4238 
Q 1616 4238 1336 4038 
Q 1056 3838 1056 3469 
Q 1056 3159 1242 3001 
Q 1428 2844 1947 2747 
L 2328 2669 
Q 3034 2534 3370 2195 
Q 3706 1856 3706 1288 
Q 3706 609 3251 259 
Q 2797 -91 1919 -91 
Q 1588 -91 1214 -16 
Q 841 59 441 206 
L 441 856 
Q 825 641 1194 531 
Q 1563 422 1919 422 
Q 2459 422 2753 634 
Q 3047 847 3047 1241 
Q 3047 1584 2836 1778 
Q 2625 1972 2144 2069 
L 1759 2144 
Q 1053 2284 737 2584 
Q 422 2884 422 3419 
Q 422 4038 858 4394 
Q 1294 4750 2059 4750 
Q 2388 4750 2728 4690 
Q 3069 4631 3425 4513 
z
" transform="scale(0.015625)"/>
     </defs>
     <use xlink:href="#DejaVuSans-4d"/>
     <use xlink:href="#DejaVuSans-53" x="86.279297"/>
     <use xlink:href="#DejaVuSans-41" x="151.630859"/>
     <use xlink:href="#DejaVuSans-20" x="220.039062"/>
     <use xlink:href="#DejaVuSans-47" x="251.826172"/>
     <use xlink:href="#DejaVuSans-61" x="329.316406"/>
     <use xlink:href="#DejaVuSans-70" x="390.595703"/>
     <use xlink:href="#DejaVuSans-20" x="454.072266"/>
     <use xlink:href="#DejaVuSans-50" x="485.859375"/>
     <use xlink:href="#DejaVuSans-65" x="542.537109"/>
     <use xlink:href="#DejaVuSans-72" x="604.060547"/>
     <use xlink:href="#DejaVuSans-63" x="642.923828"/>
     <use xlink:href="#DejaVuSans-65" x="697.904297"/>
     <use xlink:href="#DejaVuSans-6e" x="759.427734"/>
     <use xlink:href="#DejaVuSans-74" x="822.806641"/>
     <use xlink:href="#DejaVuSans-61" x="862.015625"/>
     <use xlink:href="#DejaVuSans-67" x="923.294922"/>
     <use xlink:href="#DejaVuSans-65" x="986.771484"/>
     <use xlink:href="#DejaVuSans-20" x="1048.294922"/>
     <use xlink:href="#DejaVuSans-70" x="1080.082031"/>
     <use xlink:href="#DejaVuSans-65" x="1143.558594"/>
     <use xlink:href="#DejaVuSans-72" x="1205.082031"/>
     <use xlink:href="#DejaVuSans-20" x="1246.195312"/>
     <use xlink:href="#DejaVuSans-43" x="1277.982422"/>
     <use xlink:href="#DejaVuSans-6f" x="1347.806641"/>
     <use xlink:href="#DejaVuSans-6c" x="1408.988281"/>
     <use xlink:href="#DejaVuSans-75" x="1436.771484"/>
     <use xlink:href="#DejaVuSans-6d" x="1500.150391"/>
     <use xlink:href="#DejaVuSans-6e" x="1597.5625"/>
    </g>
   </g>
  </g>
 </g>
 <defs>
  <clipPath id="p3cb449d633">
   <rect x="51.005" y="26.16" width="802.195" height="291.88"/>
  </clipPath>
 </defs>
</svg>
