<?xml version="1.0" encoding="utf-8" standalone="no"?>
<!DOCTYPE svg PUBLIC "-//W3C//DTD SVG 1.1//EN"
  "http://www.w3.org/Graphics/SVG/1.1/DTD/svg11.dtd">
<svg xmlns:xlink="http://www.w3.org/1999/xlink" width="720pt" height="432pt" viewBox="0 0 720 432" xmlns="http://www.w3.org/2000/svg" version="1.1">
 <metadata>
  <rdf:RDF xmlns:dc="http://purl.org/dc/elements/1.1/" xmlns:cc="http://creativecommons.org/ns#" xmlns:rdf="http://www.w3.org/1999/02/22-rdf-syntax-ns#">
   <cc:Work>
    <dc:type rdf:resource="http://purl.org/dc/dcmitype/StillImage"/>
    <dc:date>2026-04-09T16:46:47.443521</dc:date>
    <dc:format>image/svg+xml</dc:format>
    <dc:creator>
     <cc:Agent>
      <dc:title>Matplotlib v3.9.4, https://matplotlib.org/</dc:title>
     </cc:Agent>
    </dc:creator>
   </cc:Work>
  </rdf:RDF>
 </metadata>
 <defs>
  <style type="text/css">*{stroke-linejoin: round; stroke-linecap: butt}</style>
 </defs>
 <g id="figure_1">
  <g id="patch_1">
   <path d="M 0 432 
L 720 432 
L 720 0 
L 0 0 
z
" style="fill: #ffffff"/>
  </g>
  <g id="axes_1">
   <g id="patch_2">
    <path d="M 47.855 390.04 
L 709.2 390.04 
L 709.2 26.16 
L 47.855 26.16 
z
" style="fill: #ffffff"/>
   </g>
   <g id="patch_3">
    <path d="M 77.916136 390.04 
L 92.946705 390.04 
L 92.946705 386.967727 
L 77.916136 386.967727 
z
" clip-path="url(#p0cdfada9a0)" style="fill: #d95f02; fill-opacity: 0.35; stroke: #000000; stroke-linejoin: miter"/>
   </g>
   <g id="patch_4">
    <path d="M 92.946705 390.04 
L 107.977273 390.04 
L 107.977273 371.606363 
L 92.946705 371.606363 
z
" clip-path="url(#p0cdfada9a0)" style="fill: #d95f02; fill-opacity: 0.35; stroke: #000000; stroke-linejoin: miter"/>
   </g>
   <g id="patch_5">
    <path d="M 107.977273 390.04 
L 123.007841 390.04 
L 123.007841 217.992719 
L 107.977273 217.992719 
z
" clip-path="url(#p0cdfada9a0)" style="fill: #d95f02; fill-opacity: 0.35; stroke: #000000; stroke-linejoin: miter"/>
   </g>
   <g id="patch_6">
    <path d="M 123.007841 390.04 
L 138.038409 390.04 
L 138.038409 93.25844 
L 123.007841 93.25844 
z
" clip-path="url(#p0cdfada9a0)" style="fill: #d95f02; fill-opacity: 0.35; stroke: #000000; stroke-linejoin: miter"/>
   </g>
   <g id="patch_7">
    <path d="M 138.038409 390.04 
L 153.068977 390.04 
L 153.068977 43.487619 
L 138.038409 43.487619 
z
" clip-path="url(#p0cdfada9a0)" style="fill: #d95f02; fill-opacity: 0.35; stroke: #000000; stroke-linejoin: miter"/>
   </g>
   <g id="patch_8">
    <path d="M 153.068977 390.04 
L 168.099545 390.04 
L 168.099545 54.547801 
L 153.068977 54.547801 
z
" clip-path="url(#p0cdfada9a0)" style="fill: #d95f02; fill-opacity: 0.35; stroke: #000000; stroke-linejoin: miter"/>
   </g>
   <g id="patch_9">
    <path d="M 168.099545 390.04 
L 183.130114 390.04 
L 183.130114 154.089443 
L 168.099545 154.089443 
z
" clip-path="url(#p0cdfada9a0)" style="fill: #d95f02; fill-opacity: 0.35; stroke: #000000; stroke-linejoin: miter"/>
   </g>
   <g id="patch_10">
    <path d="M 183.130114 390.04 
L 198.160682 390.04 
L 198.160682 237.040811 
L 183.130114 237.040811 
z
" clip-path="url(#p0cdfada9a0)" style="fill: #d95f02; fill-opacity: 0.35; stroke: #000000; stroke-linejoin: miter"/>
   </g>
   <g id="patch_11">
    <path d="M 198.160682 390.04 
L 213.19125 390.04 
L 213.19125 286.811631 
L 198.160682 286.811631 
z
" clip-path="url(#p0cdfada9a0)" style="fill: #d95f02; fill-opacity: 0.35; stroke: #000000; stroke-linejoin: miter"/>
   </g>
   <g id="patch_12">
    <path d="M 213.19125 390.04 
L 228.221818 390.04 
L 228.221818 330.437906 
L 213.19125 330.437906 
z
" clip-path="url(#p0cdfada9a0)" style="fill: #d95f02; fill-opacity: 0.35; stroke: #000000; stroke-linejoin: miter"/>
   </g>
   <g id="patch_13">
    <path d="M 228.221818 390.04 
L 243.252386 390.04 
L 243.252386 356.244998 
L 228.221818 356.244998 
z
" clip-path="url(#p0cdfada9a0)" style="fill: #d95f02; fill-opacity: 0.35; stroke: #000000; stroke-linejoin: miter"/>
   </g>
   <g id="patch_14">
    <path d="M 243.252386 390.04 
L 258.282955 390.04 
L 258.282955 364.847362 
L 243.252386 364.847362 
z
" clip-path="url(#p0cdfada9a0)" style="fill: #d95f02; fill-opacity: 0.35; stroke: #000000; stroke-linejoin: miter"/>
   </g>
   <g id="patch_15">
    <path d="M 258.282955 390.04 
L 273.313523 390.04 
L 273.313523 381.437636 
L 258.282955 381.437636 
z
" clip-path="url(#p0cdfada9a0)" style="fill: #d95f02; fill-opacity: 0.35; stroke: #000000; stroke-linejoin: miter"/>
   </g>
   <g id="patch_16">
    <path d="M 273.313523 390.04 
L 288.344091 390.04 
L 288.344091 385.124363 
L 273.313523 385.124363 
z
" clip-path="url(#p0cdfada9a0)" style="fill: #d95f02; fill-opacity: 0.35; stroke: #000000; stroke-linejoin: miter"/>
   </g>
   <g id="patch_17">
    <path d="M 288.344091 390.04 
L 303.374659 390.04 
L 303.374659 386.353273 
L 288.344091 386.353273 
z
" clip-path="url(#p0cdfada9a0)" style="fill: #d95f02; fill-opacity: 0.35; stroke: #000000; stroke-linejoin: miter"/>
   </g>
   <g id="patch_18">
    <path d="M 303.374659 390.04 
L 318.405227 390.04 
L 318.405227 386.967727 
L 303.374659 386.967727 
z
" clip-path="url(#p0cdfada9a0)" style="fill: #d95f02; fill-opacity: 0.35; stroke: #000000; stroke-linejoin: miter"/>
   </g>
   <g id="patch_19">
    <path d="M 318.405227 390.04 
L 333.435795 390.04 
L 333.435795 388.196636 
L 318.405227 388.196636 
z
" clip-path="url(#p0cdfada9a0)" style="fill: #d95f02; fill-opacity: 0.35; stroke: #000000; stroke-linejoin: miter"/>
   </g>
   <g id="patch_20">
    <path d="M 333.435795 390.04 
L 348.466364 390.04 
L 348.466364 389.425545 
L 333.435795 389.425545 
z
" clip-path="url(#p0cdfada9a0)" style="fill: #d95f02; fill-opacity: 0.35; stroke: #000000; stroke-linejoin: miter"/>
   </g>
   <g id="patch_21">
    <path d="M 348.466364 390.04 
L 363.496932 390.04 
L 363.496932 386.967727 
L 348.466364 386.967727 
z
" clip-path="url(#p0cdfada9a0)" style="fill: #d95f02; fill-opacity: 0.35; stroke: #000000; stroke-linejoin: miter"/>
   </g>
   <g id="patch_22">
    <path d="M 363.496932 390.04 
L 378.5275 390.04 
L 378.5275 389.425545 
L 363.496932 389.425545 
z
" clip-path="url(#p0cdfada9a0)" style="fill: #d95f02; fill-opacity: 0.35; stroke: #000000; stroke-linejoin: miter"/>
   </g>
   <g id="patch_23">
    <path d="M 378.5275 390.04 
L 393.558068 390.04 
L 393.558068 388.811091 
L 378.5275 388.811091 
z
" clip-path="url(#p0cdfada9a0)" style="fill: #d95f02; fill-opacity: 0.35; stroke: #000000; stroke-linejoin: miter"/>
   </g>
   <g id="patch_24">
    <path d="M 393.558068 390.04 
L 408.588636 390.04 
L 408.588636 387.582182 
L 393.558068 387.582182 
z
" clip-path="url(#p0cdfada9a0)" style="fill: #d95f02; fill-opacity: 0.35; stroke: #000000; stroke-linejoin: miter"/>
   </g>
   <g id="patch_25">
    <path d="M 408.588636 390.04 
L 423.619205 390.04 
L 423.619205 387.582182 
L 408.588636 387.582182 
z
" clip-path="url(#p0cdfada9a0)" style="fill: #d95f02; fill-opacity: 0.35; stroke: #000000; stroke-linejoin: miter"/>
   </g>
   <g id="patch_26">
    <path d="M 423.619205 390.04 
L 438.649773 390.04 
L 438.649773 383.281 
L 423.619205 383.281 
z
" clip-path="url(#p0cdfada9a0)" style="fill: #d95f02; fill-opacity: 0.35; stroke: #000000; stroke-linejoin: miter"/>
   </g>
   <g id="patch_27">
    <path d="M 438.649773 390.04 
L 453.680341 390.04 
L 453.680341 378.979818 
L 438.649773 378.979818 
z
" clip-path="url(#p0cdfada9a0)" style="fill: #d95f02; fill-opacity: 0.35; stroke: #000000; stroke-linejoin: miter"/>
   </g>
   <g id="patch_28">
    <path d="M 453.680341 390.04 
L 468.710909 390.04 
L 468.710909 375.29309 
L 453.680341 375.29309 
z
" clip-path="url(#p0cdfada9a0)" style="fill: #d95f02; fill-opacity: 0.35; stroke: #000000; stroke-linejoin: miter"/>
   </g>
   <g id="patch_29">
    <path d="M 468.710909 390.04 
L 483.741477 390.04 
L 483.741477 364.847362 
L 468.710909 364.847362 
z
" clip-path="url(#p0cdfada9a0)" style="fill: #d95f02; fill-opacity: 0.35; stroke: #000000; stroke-linejoin: miter"/>
   </g>
   <g id="patch_30">
    <path d="M 483.741477 390.04 
L 498.772045 390.04 
L 498.772045 351.943816 
L 483.741477 351.943816 
z
" clip-path="url(#p0cdfada9a0)" style="fill: #d95f02; fill-opacity: 0.35; stroke: #000000; stroke-linejoin: miter"/>
   </g>
   <g id="patch_31">
    <path d="M 498.772045 390.04 
L 513.802614 390.04 
L 513.802614 358.702817 
L 498.772045 358.702817 
z
" clip-path="url(#p0cdfada9a0)" style="fill: #d95f02; fill-opacity: 0.35; stroke: #000000; stroke-linejoin: miter"/>
   </g>
   <g id="patch_32">
    <path d="M 513.802614 390.04 
L 528.833182 390.04 
L 528.833182 341.498088 
L 513.802614 341.498088 
z
" clip-path="url(#p0cdfada9a0)" style="fill: #d95f02; fill-opacity: 0.35; stroke: #000000; stroke-linejoin: miter"/>
   </g>
   <g id="patch_33">
    <path d="M 528.833182 390.04 
L 543.86375 390.04 
L 543.86375 337.196906 
L 528.833182 337.196906 
z
" clip-path="url(#p0cdfada9a0)" style="fill: #d95f02; fill-opacity: 0.35; stroke: #000000; stroke-linejoin: miter"/>
   </g>
   <g id="patch_34">
    <path d="M 543.86375 390.04 
L 558.894318 390.04 
L 558.894318 332.28127 
L 543.86375 332.28127 
z
" clip-path="url(#p0cdfada9a0)" style="fill: #d95f02; fill-opacity: 0.35; stroke: #000000; stroke-linejoin: miter"/>
   </g>
   <g id="patch_35">
    <path d="M 558.894318 390.04 
L 573.924886 390.04 
L 573.924886 343.341452 
L 558.894318 343.341452 
z
" clip-path="url(#p0cdfada9a0)" style="fill: #d95f02; fill-opacity: 0.35; stroke: #000000; stroke-linejoin: miter"/>
   </g>
   <g id="patch_36">
    <path d="M 573.924886 390.04 
L 588.955455 390.04 
L 588.955455 331.052361 
L 573.924886 331.052361 
z
" clip-path="url(#p0cdfada9a0)" style="fill: #d95f02; fill-opacity: 0.35; stroke: #000000; stroke-linejoin: miter"/>
   </g>
   <g id="patch_37">
    <path d="M 588.955455 390.04 
L 603.986023 390.04 
L 603.986023 334.739088 
L 588.955455 334.739088 
z
" clip-path="url(#p0cdfada9a0)" style="fill: #d95f02; fill-opacity: 0.35; stroke: #000000; stroke-linejoin: miter"/>
   </g>
   <g id="patch_38">
    <path d="M 603.986023 390.04 
L 619.016591 390.04 
L 619.016591 349.485998 
L 603.986023 349.485998 
z
" clip-path="url(#p0cdfada9a0)" style="fill: #d95f02; fill-opacity: 0.35; stroke: #000000; stroke-linejoin: miter"/>
   </g>
   <g id="patch_39">
    <path d="M 619.016591 390.04 
L 634.047159 390.04 
L 634.047159 374.678636 
L 619.016591 374.678636 
z
" clip-path="url(#p0cdfada9a0)" style="fill: #d95f02; fill-opacity: 0.35; stroke: #000000; stroke-linejoin: miter"/>
   </g>
   <g id="patch_40">
    <path d="M 634.047159 390.04 
L 649.077727 390.04 
L 649.077727 382.666545 
L 634.047159 382.666545 
z
" clip-path="url(#p0cdfada9a0)" style="fill: #d95f02; fill-opacity: 0.35; stroke: #000000; stroke-linejoin: miter"/>
   </g>
   <g id="patch_41">
    <path d="M 649.077727 390.04 
L 664.108295 390.04 
L 664.108295 386.967727 
L 649.077727 386.967727 
z
" clip-path="url(#p0cdfada9a0)" style="fill: #d95f02; fill-opacity: 0.35; stroke: #000000; stroke-linejoin: miter"/>
   </g>
   <g id="patch_42">
    <path d="M 664.108295 390.04 
L 679.138864 390.04 
L 679.138864 387.582182 
L 664.108295 387.582182 
z
" clip-path="url(#p0cdfada9a0)" style="fill: #d95f02; fill-opacity: 0.35; stroke: #000000; stroke-linejoin: miter"/>
   </g>
   <g id="matplotlib.axis_1">
    <g id="xtick_1">
     <g id="line2d_1">
      <defs>
       <path id="m893ace4d20" d="M 0 0 
L 0 3.5 
" style="stroke: #000000; stroke-width: 0.8"/>
      </defs>
      <g>
       <use xlink:href="#m893ace4d20" x="50.113266" y="390.04" style="stroke: #000000; stroke-width: 0.8"/>
      </g>
     </g>
     <g id="text_1">
      <!-- −1.0 -->
      <g transform="translate(37.97186 404.638438) scale(0.1 -0.1)">
       <defs>
        <path id="DejaVuSans-2212" d="M 678 2272 
L 4684 2272 
L 4684 1741 
L 678 1741 
L 678 2272 
z
" transform="scale(0.015625)"/>
        <path id="DejaVuSans-31" d="M 794 531 
L 1825 531 
L 1825 4091 
L 703 3866 
L 703 4441 
L 1819 4666 
L 2450 4666 
L 2450 531 
L 3481 531 
L 3481 0 
L 794 0 
L 794 531 
z
" transform="scale(0.015625)"/>
        <path id="DejaVuSans-2e" d="M 684 794 
L 1344 794 
L 1344 0 
L 684 0 
L 684 794 
z
" transform="scale(0.015625)"/>
        <path id="DejaVuSans-30" d="M 2034 4250 
Q 1547 4250 1301 3770 
Q 1056 3291 1056 2328 
Q 1056 1369 1301 889 
Q 1547 409 2034 409 
Q 2525 409 2770 889 
Q 3016 1369 3016 2328 
Q 3016 3291 2770 3770 
Q 2525 4250 2034 4250 
z
M 2034 4750 
Q 2819 4750 3233 4129 
Q 3647 3509 3647 2328 
Q 3647 1150 3233 529 
Q 2819 -91 2034 -91 
Q 1250 -91 836 529 
Q 422 1150 422 2328 
Q 422 3509 836 4129 
Q 1250 4750 2034 4750 
z
" transform="scale(0.015625)"/>
       </defs>
       <use xlink:href="#DejaVuSans-2212"/>
       <use xlink:href="#DejaVuSans-31" x="83.789062"/>
       <use xlink:href="#DejaVuSans-2e" x="147.412109"/>
       <use xlink:href="#DejaVuSans-30" x="179.199219"/>
      </g>
     </g>
    </g>
    <g id="xtick_2">
     <g id="line2d_2">
      <g>
       <use xlink:href="#m893ace4d20" x="169.219081" y="390.04" style="stroke: #000000; stroke-width: 0.8"/>
      </g>
     </g>
     <g id="text_2">
      <!-- −0.5 -->
      <g transform="translate(157.077674 404.638438) scale(0.1 -0.1)">
       <defs>
        <path id="DejaVuSans-35" d="M 691 4666 
L 3169 4666 
L 3169 4134 
L 1269 4134 
L 1269 2991 
Q 1406 3038 1543 3061 
Q 1681 3084 1819 3084 
Q 2600 3084 3056 2656 
Q 3513 2228 3513 1497 
Q 3513 744 3044 326 
Q 2575 -91 1722 -91 
Q 1428 -91 1123 -41 
Q 819 9 494 109 
L 494 744 
Q 775 591 1075 516 
Q 1375 441 1709 441 
Q 2250 441 2565 725 
Q 2881 1009 2881 1497 
Q 2881 1984 2565 2268 
Q 2250 2553 1709 2553 
Q 1456 2553 1204 2497 
Q 953 2441 691 2322 
L 691 4666 
z
" transform="scale(0.015625)"/>
       </defs>
       <use xlink:href="#DejaVuSans-2212"/>
       <use xlink:href="#DejaVuSans-30" x="83.789062"/>
       <use xlink:href="#DejaVuSans-2e" x="147.412109"/>
       <use xlink:href="#DejaVuSans-35" x="179.199219"/>
      </g>
     </g>
    </g>
    <g id="xtick_3">
     <g id="line2d_3">
      <g>
       <use xlink:href="#m893ace4d20" x="288.324895" y="390.04" style="stroke: #000000; stroke-width: 0.8"/>
      </g>
     </g>
     <g id="text_3">
      <!-- 0.0 -->
      <g transform="translate(280.373333 404.638438) scale(0.1 -0.1)">
       <use xlink:href="#DejaVuSans-30"/>
       <use xlink:href="#DejaVuSans-2e" x="63.623047"/>
       <use xlink:href="#DejaVuSans-30" x="95.410156"/>
      </g>
     </g>
    </g>
    <g id="xtick_4">
     <g id="line2d_4">
      <g>
       <use xlink:href="#m893ace4d20" x="407.430709" y="390.04" style="stroke: #000000; stroke-width: 0.8"/>
      </g>
     </g>
     <g id="text_4">
      <!-- 0.5 -->
      <g transform="translate(399.479147 404.638438) scale(0.1 -0.1)">
       <use xlink:href="#DejaVuSans-30"/>
       <use xlink:href="#DejaVuSans-2e" x="63.623047"/>
       <use xlink:href="#DejaVuSans-35" x="95.410156"/>
      </g>
     </g>
    </g>
    <g id="xtick_5">
     <g id="line2d_5">
      <g>
       <use xlink:href="#m893ace4d20" x="526.536524" y="390.04" style="stroke: #000000; stroke-width: 0.8"/>
      </g>
     </g>
     <g id="text_5">
      <!-- 1.0 -->
      <g transform="translate(518.584961 404.638438) scale(0.1 -0.1)">
       <use xlink:href="#DejaVuSans-31"/>
       <use xlink:href="#DejaVuSans-2e" x="63.623047"/>
       <use xlink:href="#DejaVuSans-30" x="95.410156"/>
      </g>
     </g>
    </g>
    <g id="xtick_6">
     <g id="line2d_6">
      <g>
       <use xlink:href="#m893ace4d20" x="645.642338" y="390.04" style="stroke: #000000; stroke-width: 0.8"/>
      </g>
     </g>
     <g id="text_6">
      <!-- 1.5 -->
      <g transform="translate(637.690776 404.638438) scale(0.1 -0.1)">
       <use xlink:href="#DejaVuSans-31"/>
       <use xlink:href="#DejaVuSans-2e" x="63.623047"/>
       <use xlink:href="#DejaVuSans-35" x="95.410156"/>
      </g>
     </g>
    </g>
    <g id="text_7">
     <!-- Raw BADASP Score -->
     <g transform="translate(330.609531 418.316562) scale(0.1 -0.1)">
      <defs>
       <path id="DejaVuSans-52" d="M 2841 2188 
Q 3044 2119 3236 1894 
Q 3428 1669 3622 1275 
L 4263 0 
L 3584 0 
L 2988 1197 
Q 2756 1666 2539 1819 
Q 2322 1972 1947 1972 
L 1259 1972 
L 1259 0 
L 628 0 
L 628 4666 
L 2053 4666 
Q 2853 4666 3247 4331 
Q 3641 3997 3641 3322 
Q 3641 2881 3436 2590 
Q 3231 2300 2841 2188 
z
M 1259 4147 
L 1259 2491 
L 2053 2491 
Q 2509 2491 2742 2702 
Q 2975 2913 2975 3322 
Q 2975 3731 2742 3939 
Q 2509 4147 2053 4147 
L 1259 4147 
z
" transform="scale(0.015625)"/>
       <path id="DejaVuSans-61" d="M 2194 1759 
Q 1497 1759 1228 1600 
Q 959 1441 959 1056 
Q 959 750 1161 570 
Q 1363 391 1709 391 
Q 2188 391 2477 730 
Q 2766 1069 2766 1631 
L 2766 1759 
L 2194 1759 
z
M 3341 1997 
L 3341 0 
L 2766 0 
L 2766 531 
Q 2569 213 2275 61 
Q 1981 -91 1556 -91 
Q 1019 -91 701 211 
Q 384 513 384 1019 
Q 384 1609 779 1909 
Q 1175 2209 1959 2209 
L 2766 2209 
L 2766 2266 
Q 2766 2663 2505 2880 
Q 2244 3097 1772 3097 
Q 1472 3097 1187 3025 
Q 903 2953 641 2809 
L 641 3341 
Q 956 3463 1253 3523 
Q 1550 3584 1831 3584 
Q 2591 3584 2966 3190 
Q 3341 2797 3341 1997 
z
" transform="scale(0.015625)"/>
       <path id="DejaVuSans-77" d="M 269 3500 
L 844 3500 
L 1563 769 
L 2278 3500 
L 2956 3500 
L 3675 769 
L 4391 3500 
L 4966 3500 
L 4050 0 
L 3372 0 
L 2619 2869 
L 1863 0 
L 1184 0 
L 269 3500 
z
" transform="scale(0.015625)"/>
       <path id="DejaVuSans-20" transform="scale(0.015625)"/>
       <path id="DejaVuSans-42" d="M 1259 2228 
L 1259 519 
L 2272 519 
Q 2781 519 3026 730 
Q 3272 941 3272 1375 
Q 3272 1813 3026 2020 
Q 2781 2228 2272 2228 
L 1259 2228 
z
M 1259 4147 
L 1259 2741 
L 2194 2741 
Q 2656 2741 2882 2914 
Q 3109 3088 3109 3444 
Q 3109 3797 2882 3972 
Q 2656 4147 2194 4147 
L 1259 4147 
z
M 628 4666 
L 2241 4666 
Q 2963 4666 3353 4366 
Q 3744 4066 3744 3513 
Q 3744 3084 3544 2831 
Q 3344 2578 2956 2516 
Q 3422 2416 3680 2098 
Q 3938 1781 3938 1306 
Q 3938 681 3513 340 
Q 3088 0 2303 0 
L 628 0 
L 628 4666 
z
" transform="scale(0.015625)"/>
       <path id="DejaVuSans-41" d="M 2188 4044 
L 1331 1722 
L 3047 1722 
L 2188 4044 
z
M 1831 4666 
L 2547 4666 
L 4325 0 
L 3669 0 
L 3244 1197 
L 1141 1197 
L 716 0 
L 50 0 
L 1831 4666 
z
" transform="scale(0.015625)"/>
       <path id="DejaVuSans-44" d="M 1259 4147 
L 1259 519 
L 2022 519 
Q 2988 519 3436 956 
Q 3884 1394 3884 2338 
Q 3884 3275 3436 3711 
Q 2988 4147 2022 4147 
L 1259 4147 
z
M 628 4666 
L 1925 4666 
Q 3281 4666 3915 4102 
Q 4550 3538 4550 2338 
Q 4550 1131 3912 565 
Q 3275 0 1925 0 
L 628 0 
L 628 4666 
z
" transform="scale(0.015625)"/>
       <path id="DejaVuSans-53" d="M 3425 4513 
L 3425 3897 
Q 3066 4069 2747 4153 
Q 2428 4238 2131 4238 
Q 1616 4238 1336 4038 
Q 1056 3838 1056 3469 
Q 1056 3159 1242 3001 
Q 1428 2844 1947 2747 
L 2328 2669 
Q 3034 2534 3370 2195 
Q 3706 1856 3706 1288 
Q 3706 609 3251 259 
Q 2797 -91 1919 -91 
Q 1588 -91 1214 -16 
Q 841 59 441 206 
L 441 856 
Q 825 641 1194 531 
Q 1563 422 1919 422 
Q 2459 422 2753 634 
Q 3047 847 3047 1241 
Q 3047 1584 2836 1778 
Q 2625 1972 2144 2069 
L 1759 2144 
Q 1053 2284 737 2584 
Q 422 2884 422 3419 
Q 422 4038 858 4394 
Q 1294 4750 2059 4750 
Q 2388 4750 2728 4690 
Q 3069 4631 3425 4513 
z
" transform="scale(0.015625)"/>
       <path id="DejaVuSans-50" d="M 1259 4147 
L 1259 2394 
L 2053 2394 
Q 2494 2394 2734 2622 
Q 2975 2850 2975 3272 
Q 2975 3691 2734 3919 
Q 2494 4147 2053 4147 
L 1259 4147 
z
M 628 4666 
L 2053 4666 
Q 2838 4666 3239 4311 
Q 3641 3956 3641 3272 
Q 3641 2581 3239 2228 
Q 2838 1875 2053 1875 
L 1259 1875 
L 1259 0 
L 628 0 
L 628 4666 
z
" transform="scale(0.015625)"/>
       <path id="DejaVuSans-63" d="M 3122 3366 
L 3122 2828 
Q 2878 2963 2633 3030 
Q 2388 3097 2138 3097 
Q 1578 3097 1268 2742 
Q 959 2388 959 1747 
Q 959 1106 1268 751 
Q 1578 397 2138 397 
Q 2388 397 2633 464 
Q 2878 531 3122 666 
L 3122 134 
Q 2881 22 2623 -34 
Q 2366 -91 2075 -91 
Q 1284 -91 818 406 
Q 353 903 353 1747 
Q 353 2603 823 3093 
Q 1294 3584 2113 3584 
Q 2378 3584 2631 3529 
Q 2884 3475 3122 3366 
z
" transform="scale(0.015625)"/>
       <path id="DejaVuSans-6f" d="M 1959 3097 
Q 1497 3097 1228 2736 
Q 959 2375 959 1747 
Q 959 1119 1226 758 
Q 1494 397 1959 397 
Q 2419 397 2687 759 
Q 2956 1122 2956 1747 
Q 2956 2369 2687 2733 
Q 2419 3097 1959 3097 
z
M 1959 3584 
Q 2709 3584 3137 3096 
Q 3566 2609 3566 1747 
Q 3566 888 3137 398 
Q 2709 -91 1959 -91 
Q 1206 -91 779 398 
Q 353 888 353 1747 
Q 353 2609 779 3096 
Q 1206 3584 1959 3584 
z
" transform="scale(0.015625)"/>
       <path id="DejaVuSans-72" d="M 2631 2963 
Q 2534 3019 2420 3045 
Q 2306 3072 2169 3072 
Q 1681 3072 1420 2755 
Q 1159 2438 1159 1844 
L 1159 0 
L 581 0 
L 581 3500 
L 1159 3500 
L 1159 2956 
Q 1341 3275 1631 3429 
Q 1922 3584 2338 3584 
Q 2397 3584 2469 3576 
Q 2541 3569 2628 3553 
L 2631 2963 
z
" transform="scale(0.015625)"/>
       <path id="DejaVuSans-65" d="M 3597 1894 
L 3597 1613 
L 953 1613 
Q 991 1019 1311 708 
Q 1631 397 2203 397 
Q 2534 397 2845 478 
Q 3156 559 3463 722 
L 3463 178 
Q 3153 47 2828 -22 
Q 2503 -91 2169 -91 
Q 1331 -91 842 396 
Q 353 884 353 1716 
Q 353 2575 817 3079 
Q 1281 3584 2069 3584 
Q 2775 3584 3186 3129 
Q 3597 2675 3597 1894 
z
M 3022 2063 
Q 3016 2534 2758 2815 
Q 2500 3097 2075 3097 
Q 1594 3097 1305 2825 
Q 1016 2553 972 2059 
L 3022 2063 
z
" transform="scale(0.015625)"/>
      </defs>
      <use xlink:href="#DejaVuSans-52"/>
      <use xlink:href="#DejaVuSans-61" x="67.232422"/>
      <use xlink:href="#DejaVuSans-77" x="128.511719"/>
      <use xlink:href="#DejaVuSans-20" x="210.298828"/>
      <use xlink:href="#DejaVuSans-42" x="242.085938"/>
      <use xlink:href="#DejaVuSans-41" x="310.689453"/>
      <use xlink:href="#DejaVuSans-44" x="379.097656"/>
      <use xlink:href="#DejaVuSans-41" x="454.349609"/>
      <use xlink:href="#DejaVuSans-53" x="522.757812"/>
      <use xlink:href="#DejaVuSans-50" x="586.234375"/>
      <use xlink:href="#DejaVuSans-20" x="646.537109"/>
      <use xlink:href="#DejaVuSans-53" x="678.324219"/>
      <use xlink:href="#DejaVuSans-63" x="741.800781"/>
      <use xlink:href="#DejaVuSans-6f" x="796.78125"/>
      <use xlink:href="#DejaVuSans-72" x="857.962891"/>
      <use xlink:href="#DejaVuSans-65" x="896.826172"/>
     </g>
    </g>
   </g>
   <g id="matplotlib.axis_2">
    <g id="ytick_1">
     <g id="line2d_7">
      <defs>
       <path id="m1d696de4f1" d="M 0 0 
L -3.5 0 
" style="stroke: #000000; stroke-width: 0.8"/>
      </defs>
      <g>
       <use xlink:href="#m1d696de4f1" x="47.855" y="390.04" style="stroke: #000000; stroke-width: 0.8"/>
      </g>
     </g>
     <g id="text_8">
      <!-- 0.0 -->
      <g transform="translate(24.951875 393.839219) scale(0.1 -0.1)">
       <use xlink:href="#DejaVuSans-30"/>
       <use xlink:href="#DejaVuSans-2e" x="63.623047"/>
       <use xlink:href="#DejaVuSans-30" x="95.410156"/>
      </g>
     </g>
    </g>
    <g id="ytick_2">
     <g id="line2d_8">
      <g>
       <use xlink:href="#m1d696de4f1" x="47.855" y="316.472837" style="stroke: #000000; stroke-width: 0.8"/>
      </g>
     </g>
     <g id="text_9">
      <!-- 0.5 -->
      <g transform="translate(24.951875 320.272056) scale(0.1 -0.1)">
       <use xlink:href="#DejaVuSans-30"/>
       <use xlink:href="#DejaVuSans-2e" x="63.623047"/>
       <use xlink:href="#DejaVuSans-35" x="95.410156"/>
      </g>
     </g>
    </g>
    <g id="ytick_3">
     <g id="line2d_9">
      <g>
       <use xlink:href="#m1d696de4f1" x="47.855" y="242.905675" style="stroke: #000000; stroke-width: 0.8"/>
      </g>
     </g>
     <g id="text_10">
      <!-- 1.0 -->
      <g transform="translate(24.951875 246.704893) scale(0.1 -0.1)">
       <use xlink:href="#DejaVuSans-31"/>
       <use xlink:href="#DejaVuSans-2e" x="63.623047"/>
       <use xlink:href="#DejaVuSans-30" x="95.410156"/>
      </g>
     </g>
    </g>
    <g id="ytick_4">
     <g id="line2d_10">
      <g>
       <use xlink:href="#m1d696de4f1" x="47.855" y="169.338512" style="stroke: #000000; stroke-width: 0.8"/>
      </g>
     </g>
     <g id="text_11">
      <!-- 1.5 -->
      <g transform="translate(24.951875 173.137731) scale(0.1 -0.1)">
       <use xlink:href="#DejaVuSans-31"/>
       <use xlink:href="#DejaVuSans-2e" x="63.623047"/>
       <use xlink:href="#DejaVuSans-35" x="95.410156"/>
      </g>
     </g>
    </g>
    <g id="ytick_5">
     <g id="line2d_11">
      <g>
       <use xlink:href="#m1d696de4f1" x="47.855" y="95.771349" style="stroke: #000000; stroke-width: 0.8"/>
      </g>
     </g>
     <g id="text_12">
      <!-- 2.0 -->
      <g transform="translate(24.951875 99.570568) scale(0.1 -0.1)">
       <defs>
        <path id="DejaVuSans-32" d="M 1228 531 
L 3431 531 
L 3431 0 
L 469 0 
L 469 531 
Q 828 903 1448 1529 
Q 2069 2156 2228 2338 
Q 2531 2678 2651 2914 
Q 2772 3150 2772 3378 
Q 2772 3750 2511 3984 
Q 2250 4219 1831 4219 
Q 1534 4219 1204 4116 
Q 875 4013 500 3803 
L 500 4441 
Q 881 4594 1212 4672 
Q 1544 4750 1819 4750 
Q 2544 4750 2975 4387 
Q 3406 4025 3406 3419 
Q 3406 3131 3298 2873 
Q 3191 2616 2906 2266 
Q 2828 2175 2409 1742 
Q 1991 1309 1228 531 
z
" transform="scale(0.015625)"/>
       </defs>
       <use xlink:href="#DejaVuSans-32"/>
       <use xlink:href="#DejaVuSans-2e" x="63.623047"/>
       <use xlink:href="#DejaVuSans-30" x="95.410156"/>
      </g>
     </g>
    </g>
    <g id="text_13">
     <!-- Density -->
     <g transform="translate(18.872188 227.108594) rotate(-90) scale(0.1 -0.1)">
      <defs>
       <path id="DejaVuSans-6e" d="M 3513 2113 
L 3513 0 
L 2938 0 
L 2938 2094 
Q 2938 2591 2744 2837 
Q 2550 3084 2163 3084 
Q 1697 3084 1428 2787 
Q 1159 2491 1159 1978 
L 1159 0 
L 581 0 
L 581 3500 
L 1159 3500 
L 1159 2956 
Q 1366 3272 1645 3428 
Q 1925 3584 2291 3584 
Q 2894 3584 3203 3211 
Q 3513 2838 3513 2113 
z
" transform="scale(0.015625)"/>
       <path id="DejaVuSans-73" d="M 2834 3397 
L 2834 2853 
Q 2591 2978 2328 3040 
Q 2066 3103 1784 3103 
Q 1356 3103 1142 2972 
Q 928 2841 928 2578 
Q 928 2378 1081 2264 
Q 1234 2150 1697 2047 
L 1894 2003 
Q 2506 1872 2764 1633 
Q 3022 1394 3022 966 
Q 3022 478 2636 193 
Q 2250 -91 1575 -91 
Q 1294 -91 989 -36 
Q 684 19 347 128 
L 347 722 
Q 666 556 975 473 
Q 1284 391 1588 391 
Q 1994 391 2212 530 
Q 2431 669 2431 922 
Q 2431 1156 2273 1281 
Q 2116 1406 1581 1522 
L 1381 1569 
Q 847 1681 609 1914 
Q 372 2147 372 2553 
Q 372 3047 722 3315 
Q 1072 3584 1716 3584 
Q 2034 3584 2315 3537 
Q 2597 3491 2834 3397 
z
" transform="scale(0.015625)"/>
       <path id="DejaVuSans-69" d="M 603 3500 
L 1178 3500 
L 1178 0 
L 603 0 
L 603 3500 
z
M 603 4863 
L 1178 4863 
L 1178 4134 
L 603 4134 
L 603 4863 
z
" transform="scale(0.015625)"/>
       <path id="DejaVuSans-74" d="M 1172 4494 
L 1172 3500 
L 2356 3500 
L 2356 3053 
L 1172 3053 
L 1172 1153 
Q 1172 725 1289 603 
Q 1406 481 1766 481 
L 2356 481 
L 2356 0 
L 1766 0 
Q 1100 0 847 248 
Q 594 497 594 1153 
L 594 3053 
L 172 3053 
L 172 3500 
L 594 3500 
L 594 4494 
L 1172 4494 
z
" transform="scale(0.015625)"/>
       <path id="DejaVuSans-79" d="M 2059 -325 
Q 1816 -950 1584 -1140 
Q 1353 -1331 966 -1331 
L 506 -1331 
L 506 -850 
L 844 -850 
Q 1081 -850 1212 -737 
Q 1344 -625 1503 -206 
L 1606 56 
L 191 3500 
L 800 3500 
L 1894 763 
L 2988 3500 
L 3597 3500 
L 2059 -325 
z
" transform="scale(0.015625)"/>
      </defs>
      <use xlink:href="#DejaVuSans-44"/>
      <use xlink:href="#DejaVuSans-65" x="77.001953"/>
      <use xlink:href="#DejaVuSans-6e" x="138.525391"/>
      <use xlink:href="#DejaVuSans-73" x="201.904297"/>
      <use xlink:href="#DejaVuSans-69" x="254.003906"/>
      <use xlink:href="#DejaVuSans-74" x="281.787109"/>
      <use xlink:href="#DejaVuSans-79" x="320.996094"/>
     </g>
    </g>
   </g>
   <g id="line2d_12">
    <path d="M 77.916136 347.518029 
L 80.937356 340.900883 
L 83.958576 333.637837 
L 86.979796 325.735567 
L 90.001015 317.213972 
L 93.022235 308.107123 
L 96.043455 298.463845 
L 99.064675 288.347869 
L 105.107114 267.024872 
L 117.191993 222.990076 
L 120.213213 212.413836 
L 123.234432 202.274629 
L 126.255652 192.702479 
L 129.276872 183.821371 
L 132.298092 175.746318 
L 135.319311 168.580682 
L 138.340531 162.413814 
L 141.361751 157.319105 
L 144.382971 153.3525 
L 147.40419 150.551518 
L 150.42541 148.934789 
L 153.44663 148.502121 
L 156.467849 149.235056 
L 159.489069 151.097902 
L 162.510289 154.039162 
L 165.531509 157.993314 
L 168.552728 162.882858 
L 171.573948 168.620553 
L 174.595168 175.111762 
L 177.616388 182.256822 
L 180.637607 189.95337 
L 183.658827 198.098551 
L 189.701267 215.332895 
L 204.807365 259.760125 
L 210.849805 276.569529 
L 213.871024 284.564464 
L 216.892244 292.242685 
L 219.913464 299.580762 
L 222.934684 306.561936 
L 225.955903 313.175466 
L 228.977123 319.415944 
L 231.998343 325.282606 
L 235.019563 330.778664 
L 238.040782 335.91066 
L 241.062002 340.687874 
L 244.083222 345.121775 
L 247.104442 349.225523 
L 250.125661 353.013533 
L 253.146881 356.501095 
L 256.168101 359.704041 
L 259.18932 362.638473 
L 262.21054 365.320528 
L 265.23176 367.766195 
L 268.25298 369.991162 
L 271.274199 372.010703 
L 274.295419 373.839587 
L 277.316639 375.492019 
L 280.337859 376.981586 
L 283.359078 378.321236 
L 286.380298 379.523254 
L 292.422738 381.560182 
L 298.465177 383.177237 
L 304.507616 384.44869 
L 310.550056 385.438562 
L 316.592495 386.201131 
L 322.634935 386.781584 
L 331.698594 387.389351 
L 340.762253 387.761999 
L 352.847132 387.994272 
L 364.932011 387.981382 
L 377.01689 387.714944 
L 386.080549 387.308259 
L 395.144209 386.674099 
L 404.207868 385.758702 
L 410.250307 384.96484 
L 416.292747 384.006073 
L 422.335186 382.869115 
L 428.377626 381.543812 
L 434.420065 380.024338 
L 440.462505 378.310337 
L 446.504944 376.40783 
L 452.547384 374.329629 
L 461.611043 370.926853 
L 470.674702 367.261227 
L 485.780801 360.853673 
L 500.886899 354.512224 
L 509.950558 350.949193 
L 515.992998 348.743622 
L 522.035437 346.71337 
L 528.077877 344.891858 
L 534.120316 343.311248 
L 540.162756 342.002106 
L 546.205195 340.993829 
L 552.247635 340.315792 
L 558.290074 339.998661 
L 564.332514 340.075001 
L 570.374953 340.578241 
L 573.396173 340.999864 
L 576.417393 341.539365 
L 579.438612 342.199327 
L 582.459832 342.981406 
L 585.481052 343.886103 
L 588.502272 344.912555 
L 594.544711 347.319412 
L 600.587151 350.162124 
L 606.62959 353.372943 
L 612.672029 356.859 
L 636.841787 371.269798 
L 642.884227 374.452863 
L 648.926666 377.31577 
L 654.969106 379.825816 
L 661.011545 381.974375 
L 667.053985 383.772674 
L 673.096424 385.2465 
L 679.138864 386.430778 
L 679.138864 386.430778 
" clip-path="url(#p0cdfada9a0)" style="fill: none; stroke: #d95f02; stroke-width: 1.5; stroke-linecap: square"/>
   </g>
   <g id="line2d_13">
    <path d="M 591.477551 390.04 
L 591.477551 26.16 
" clip-path="url(#p0cdfada9a0)" style="fill: none; stroke-dasharray: 7.4,3.2; stroke-dashoffset: 0; stroke: #d95f02; stroke-width: 2"/>
   </g>
   <g id="patch_43">
    <path d="M 47.855 390.04 
L 47.855 26.16 
" style="fill: none; stroke: #000000; stroke-width: 0.8; stroke-linejoin: miter; stroke-linecap: square"/>
   </g>
   <g id="patch_44">
    <path d="M 709.2 390.04 
L 709.2 26.16 
" style="fill: none; stroke: #000000; stroke-width: 0.8; stroke-linejoin: miter; stroke-linecap: square"/>
   </g>
   <g id="patch_45">
    <path d="M 47.855 390.04 
L 709.2 390.04 
" style="fill: none; stroke: #000000; stroke-width: 0.8; stroke-linejoin: miter; stroke-linecap: square"/>
   </g>
   <g id="patch_46">
    <path d="M 47.855 26.16 
L 709.2 26.16 
" style="fill: none; stroke: #000000; stroke-width: 0.8; stroke-linejoin: miter; stroke-linecap: square"/>
   </g>
   <g id="text_14">
    <!-- Families BADASP Score Distribution -->
    <g transform="translate(272.491563 20.16) scale(0.12 -0.12)">
     <defs>
      <path id="DejaVuSans-46" d="M 628 4666 
L 3309 4666 
L 3309 4134 
L 1259 4134 
L 1259 2759 
L 3109 2759 
L 3109 2228 
L 1259 2228 
L 1259 0 
L 628 0 
L 628 4666 
z
" transform="scale(0.015625)"/>
      <path id="DejaVuSans-6d" d="M 3328 2828 
Q 3544 3216 3844 3400 
Q 4144 3584 4550 3584 
Q 5097 3584 5394 3201 
Q 5691 2819 5691 2113 
L 5691 0 
L 5113 0 
L 5113 2094 
Q 5113 2597 4934 2840 
Q 4756 3084 4391 3084 
Q 3944 3084 3684 2787 
Q 3425 2491 3425 1978 
L 3425 0 
L 2847 0 
L 2847 2094 
Q 2847 2600 2669 2842 
Q 2491 3084 2119 3084 
Q 1678 3084 1418 2786 
Q 1159 2488 1159 1978 
L 1159 0 
L 581 0 
L 581 3500 
L 1159 3500 
L 1159 2956 
Q 1356 3278 1631 3431 
Q 1906 3584 2284 3584 
Q 2666 3584 2933 3390 
Q 3200 3197 3328 2828 
z
" transform="scale(0.015625)"/>
      <path id="DejaVuSans-6c" d="M 603 4863 
L 1178 4863 
L 1178 0 
L 603 0 
L 603 4863 
z
" transform="scale(0.015625)"/>
      <path id="DejaVuSans-62" d="M 3116 1747 
Q 3116 2381 2855 2742 
Q 2594 3103 2138 3103 
Q 1681 3103 1420 2742 
Q 1159 2381 1159 1747 
Q 1159 1113 1420 752 
Q 1681 391 2138 391 
Q 2594 391 2855 752 
Q 3116 1113 3116 1747 
z
M 1159 2969 
Q 1341 3281 1617 3432 
Q 1894 3584 2278 3584 
Q 2916 3584 3314 3078 
Q 3713 2572 3713 1747 
Q 3713 922 3314 415 
Q 2916 -91 2278 -91 
Q 1894 -91 1617 61 
Q 1341 213 1159 525 
L 1159 0 
L 581 0 
L 581 4863 
L 1159 4863 
L 1159 2969 
z
" transform="scale(0.015625)"/>
      <path id="DejaVuSans-75" d="M 544 1381 
L 544 3500 
L 1119 3500 
L 1119 1403 
Q 1119 906 1312 657 
Q 1506 409 1894 409 
Q 2359 409 2629 706 
Q 2900 1003 2900 1516 
L 2900 3500 
L 3475 3500 
L 3475 0 
L 2900 0 
L 2900 538 
Q 2691 219 2414 64 
Q 2138 -91 1772 -91 
Q 1169 -91 856 284 
Q 544 659 544 1381 
z
M 1991 3584 
L 1991 3584 
z
" transform="scale(0.015625)"/>
     </defs>
     <use xlink:href="#DejaVuSans-46"/>
     <use xlink:href="#DejaVuSans-61" x="48.394531"/>
     <use xlink:href="#DejaVuSans-6d" x="109.673828"/>
     <use xlink:href="#DejaVuSans-69" x="207.085938"/>
     <use xlink:href="#DejaVuSans-6c" x="234.869141"/>
     <use xlink:href="#DejaVuSans-69" x="262.652344"/>
     <use xlink:href="#DejaVuSans-65" x="290.435547"/>
     <use xlink:href="#DejaVuSans-73" x="351.958984"/>
     <use xlink:href="#DejaVuSans-20" x="404.058594"/>
     <use xlink:href="#DejaVuSans-42" x="435.845703"/>
     <use xlink:href="#DejaVuSans-41" x="504.449219"/>
     <use xlink:href="#DejaVuSans-44" x="572.857422"/>
     <use xlink:href="#DejaVuSans-41" x="648.109375"/>
     <use xlink:href="#DejaVuSans-53" x="716.517578"/>
     <use xlink:href="#DejaVuSans-50" x="779.994141"/>
     <use xlink:href="#DejaVuSans-20" x="840.296875"/>
     <use xlink:href="#DejaVuSans-53" x="872.083984"/>
     <use xlink:href="#DejaVuSans-63" x="935.560547"/>
     <use xlink:href="#DejaVuSans-6f" x="990.541016"/>
     <use xlink:href="#DejaVuSans-72" x="1051.722656"/>
     <use xlink:href="#DejaVuSans-65" x="1090.585938"/>
     <use xlink:href="#DejaVuSans-20" x="1152.109375"/>
     <use xlink:href="#DejaVuSans-44" x="1183.896484"/>
     <use xlink:href="#DejaVuSans-69" x="1260.898438"/>
     <use xlink:href="#DejaVuSans-73" x="1288.681641"/>
     <use xlink:href="#DejaVuSans-74" x="1340.78125"/>
     <use xlink:href="#DejaVuSans-72" x="1379.990234"/>
     <use xlink:href="#DejaVuSans-69" x="1421.103516"/>
     <use xlink:href="#DejaVuSans-62" x="1448.886719"/>
     <use xlink:href="#DejaVuSans-75" x="1512.363281"/>
     <use xlink:href="#DejaVuSans-74" x="1575.742188"/>
     <use xlink:href="#DejaVuSans-69" x="1614.951172"/>
     <use xlink:href="#DejaVuSans-6f" x="1642.734375"/>
     <use xlink:href="#DejaVuSans-6e" x="1703.916016"/>
    </g>
   </g>
   <g id="legend_1">
    <g id="line2d_14">
     <path d="M 304.761875 39.258438 
L 314.761875 39.258438 
L 324.761875 39.258438 
" style="fill: none; stroke-dasharray: 7.4,3.2; stroke-dashoffset: 0; stroke: #d95f02; stroke-width: 2"/>
    </g>
    <g id="text_15">
     <!-- 95th percentile = 1.273 -->
     <g transform="translate(332.761875 42.758438) scale(0.1 -0.1)">
      <defs>
       <path id="DejaVuSans-39" d="M 703 97 
L 703 672 
Q 941 559 1184 500 
Q 1428 441 1663 441 
Q 2288 441 2617 861 
Q 2947 1281 2994 2138 
Q 2813 1869 2534 1725 
Q 2256 1581 1919 1581 
Q 1219 1581 811 2004 
Q 403 2428 403 3163 
Q 403 3881 828 4315 
Q 1253 4750 1959 4750 
Q 2769 4750 3195 4129 
Q 3622 3509 3622 2328 
Q 3622 1225 3098 567 
Q 2575 -91 1691 -91 
Q 1453 -91 1209 -44 
Q 966 3 703 97 
z
M 1959 2075 
Q 2384 2075 2632 2365 
Q 2881 2656 2881 3163 
Q 2881 3666 2632 3958 
Q 2384 4250 1959 4250 
Q 1534 4250 1286 3958 
Q 1038 3666 1038 3163 
Q 1038 2656 1286 2365 
Q 1534 2075 1959 2075 
z
" transform="scale(0.015625)"/>
       <path id="DejaVuSans-68" d="M 3513 2113 
L 3513 0 
L 2938 0 
L 2938 2094 
Q 2938 2591 2744 2837 
Q 2550 3084 2163 3084 
Q 1697 3084 1428 2787 
Q 1159 2491 1159 1978 
L 1159 0 
L 581 0 
L 581 4863 
L 1159 4863 
L 1159 2956 
Q 1366 3272 1645 3428 
Q 1925 3584 2291 3584 
Q 2894 3584 3203 3211 
Q 3513 2838 3513 2113 
z
" transform="scale(0.015625)"/>
       <path id="DejaVuSans-70" d="M 1159 525 
L 1159 -1331 
L 581 -1331 
L 581 3500 
L 1159 3500 
L 1159 2969 
Q 1341 3281 1617 3432 
Q 1894 3584 2278 3584 
Q 2916 3584 3314 3078 
Q 3713 2572 3713 1747 
Q 3713 922 3314 415 
Q 2916 -91 2278 -91 
Q 1894 -91 1617 61 
Q 1341 213 1159 525 
z
M 3116 1747 
Q 3116 2381 2855 2742 
Q 2594 3103 2138 3103 
Q 1681 3103 1420 2742 
Q 1159 2381 1159 1747 
Q 1159 1113 1420 752 
Q 1681 391 2138 391 
Q 2594 391 2855 752 
Q 3116 1113 3116 1747 
z
" transform="scale(0.015625)"/>
       <path id="DejaVuSans-3d" d="M 678 2906 
L 4684 2906 
L 4684 2381 
L 678 2381 
L 678 2906 
z
M 678 1631 
L 4684 1631 
L 4684 1100 
L 678 1100 
L 678 1631 
z
" transform="scale(0.015625)"/>
       <path id="DejaVuSans-37" d="M 525 4666 
L 3525 4666 
L 3525 4397 
L 1831 0 
L 1172 0 
L 2766 4134 
L 525 4134 
L 525 4666 
z
" transform="scale(0.015625)"/>
       <path id="DejaVuSans-33" d="M 2597 2516 
Q 3050 2419 3304 2112 
Q 3559 1806 3559 1356 
Q 3559 666 3084 287 
Q 2609 -91 1734 -91 
Q 1441 -91 1130 -33 
Q 819 25 488 141 
L 488 750 
Q 750 597 1062 519 
Q 1375 441 1716 441 
Q 2309 441 2620 675 
Q 2931 909 2931 1356 
Q 2931 1769 2642 2001 
Q 2353 2234 1838 2234 
L 1294 2234 
L 1294 2753 
L 1863 2753 
Q 2328 2753 2575 2939 
Q 2822 3125 2822 3475 
Q 2822 3834 2567 4026 
Q 2313 4219 1838 4219 
Q 1578 4219 1281 4162 
Q 984 4106 628 3988 
L 628 4550 
Q 988 4650 1302 4700 
Q 1616 4750 1894 4750 
Q 2613 4750 3031 4423 
Q 3450 4097 3450 3541 
Q 3450 3153 3228 2886 
Q 3006 2619 2597 2516 
z
" transform="scale(0.015625)"/>
      </defs>
      <use xlink:href="#DejaVuSans-39"/>
      <use xlink:href="#DejaVuSans-35" x="63.623047"/>
      <use xlink:href="#DejaVuSans-74" x="127.246094"/>
      <use xlink:href="#DejaVuSans-68" x="166.455078"/>
      <use xlink:href="#DejaVuSans-20" x="229.833984"/>
      <use xlink:href="#DejaVuSans-70" x="261.621094"/>
      <use xlink:href="#DejaVuSans-65" x="325.097656"/>
      <use xlink:href="#DejaVuSans-72" x="386.621094"/>
      <use xlink:href="#DejaVuSans-63" x="425.484375"/>
      <use xlink:href="#DejaVuSans-65" x="480.464844"/>
      <use xlink:href="#DejaVuSans-6e" x="541.988281"/>
      <use xlink:href="#DejaVuSans-74" x="605.367188"/>
      <use xlink:href="#DejaVuSans-69" x="644.576172"/>
      <use xlink:href="#DejaVuSans-6c" x="672.359375"/>
      <use xlink:href="#DejaVuSans-65" x="700.142578"/>
      <use xlink:href="#DejaVuSans-20" x="761.666016"/>
      <use xlink:href="#DejaVuSans-3d" x="793.453125"/>
      <use xlink:href="#DejaVuSans-20" x="877.242188"/>
      <use xlink:href="#DejaVuSans-31" x="909.029297"/>
      <use xlink:href="#DejaVuSans-2e" x="972.652344"/>
      <use xlink:href="#DejaVuSans-32" x="1004.439453"/>
      <use xlink:href="#DejaVuSans-37" x="1068.0625"/>
      <use xlink:href="#DejaVuSans-33" x="1131.685547"/>
     </g>
    </g>
   </g>
  </g>
 </g>
 <defs>
  <clipPath id="p0cdfada9a0">
   <rect x="47.855" y="26.16" width="661.345" height="363.88"/>
  </clipPath>
 </defs>
</svg>
