<?xml version="1.0" encoding="utf-8" standalone="no"?>
<!DOCTYPE svg PUBLIC "-//W3C//DTD SVG 1.1//EN"
  "http://www.w3.org/Graphics/SVG/1.1/DTD/svg11.dtd">
<svg xmlns:xlink="http://www.w3.org/1999/xlink" width="792pt" height="432pt" viewBox="0 0 792 432" xmlns="http://www.w3.org/2000/svg" version="1.1">
 <metadata>
  <rdf:RDF xmlns:dc="http://purl.org/dc/elements/1.1/" xmlns:cc="http://creativecommons.org/ns#" xmlns:rdf="http://www.w3.org/1999/02/22-rdf-syntax-ns#">
   <cc:Work>
    <dc:type rdf:resource="http://purl.org/dc/dcmitype/StillImage"/>
    <dc:date>2026-04-09T13:29:12.523625</dc:date>
    <dc:format>image/svg+xml</dc:format>
    <dc:creator>
     <cc:Agent>
      <dc:title>Matplotlib v3.9.4, https://matplotlib.org/</dc:title>
     </cc:Agent>
    </dc:creator>
   </cc:Work>
  </rdf:RDF>
 </metadata>
 <defs>
  <style type="text/css">*{stroke-linejoin: round; stroke-linecap: butt}</style>
 </defs>
 <g id="figure_1">
  <g id="patch_1">
   <path d="M 0 432 
L 792 432 
L 792 0 
L 0 0 
z
" style="fill: #ffffff"/>
  </g>
  <g id="axes_1">
   <g id="patch_2">
    <path d="M 47.855 390.04 
L 781.2 390.04 
L 781.2 26.16 
L 47.855 26.16 
z
" style="fill: #ffffff"/>
   </g>
   <g id="matplotlib.axis_1">
    <g id="xtick_1">
     <g id="line2d_1">
      <defs>
       <path id="m387d4b25b7" d="M 0 0 
L 0 3.5 
" style="stroke: #000000; stroke-width: 0.8"/>
      </defs>
      <g>
       <use xlink:href="#m387d4b25b7" x="76.387157" y="390.04" style="stroke: #000000; stroke-width: 0.8"/>
      </g>
     </g>
     <g id="text_1">
      <!-- −1.5 -->
      <g transform="translate(64.24575 404.638438) scale(0.1 -0.1)">
       <defs>
        <path id="DejaVuSans-2212" d="M 678 2272 
L 4684 2272 
L 4684 1741 
L 678 1741 
L 678 2272 
z
" transform="scale(0.015625)"/>
        <path id="DejaVuSans-31" d="M 794 531 
L 1825 531 
L 1825 4091 
L 703 3866 
L 703 4441 
L 1819 4666 
L 2450 4666 
L 2450 531 
L 3481 531 
L 3481 0 
L 794 0 
L 794 531 
z
" transform="scale(0.015625)"/>
        <path id="DejaVuSans-2e" d="M 684 794 
L 1344 794 
L 1344 0 
L 684 0 
L 684 794 
z
" transform="scale(0.015625)"/>
        <path id="DejaVuSans-35" d="M 691 4666 
L 3169 4666 
L 3169 4134 
L 1269 4134 
L 1269 2991 
Q 1406 3038 1543 3061 
Q 1681 3084 1819 3084 
Q 2600 3084 3056 2656 
Q 3513 2228 3513 1497 
Q 3513 744 3044 326 
Q 2575 -91 1722 -91 
Q 1428 -91 1123 -41 
Q 819 9 494 109 
L 494 744 
Q 775 591 1075 516 
Q 1375 441 1709 441 
Q 2250 441 2565 725 
Q 2881 1009 2881 1497 
Q 2881 1984 2565 2268 
Q 2250 2553 1709 2553 
Q 1456 2553 1204 2497 
Q 953 2441 691 2322 
L 691 4666 
z
" transform="scale(0.015625)"/>
       </defs>
       <use xlink:href="#DejaVuSans-2212"/>
       <use xlink:href="#DejaVuSans-31" x="83.789062"/>
       <use xlink:href="#DejaVuSans-2e" x="147.412109"/>
       <use xlink:href="#DejaVuSans-35" x="179.199219"/>
      </g>
     </g>
    </g>
    <g id="xtick_2">
     <g id="line2d_2">
      <g>
       <use xlink:href="#m387d4b25b7" x="163.250991" y="390.04" style="stroke: #000000; stroke-width: 0.8"/>
      </g>
     </g>
     <g id="text_2">
      <!-- −1.0 -->
      <g transform="translate(151.109585 404.638438) scale(0.1 -0.1)">
       <defs>
        <path id="DejaVuSans-30" d="M 2034 4250 
Q 1547 4250 1301 3770 
Q 1056 3291 1056 2328 
Q 1056 1369 1301 889 
Q 1547 409 2034 409 
Q 2525 409 2770 889 
Q 3016 1369 3016 2328 
Q 3016 3291 2770 3770 
Q 2525 4250 2034 4250 
z
M 2034 4750 
Q 2819 4750 3233 4129 
Q 3647 3509 3647 2328 
Q 3647 1150 3233 529 
Q 2819 -91 2034 -91 
Q 1250 -91 836 529 
Q 422 1150 422 2328 
Q 422 3509 836 4129 
Q 1250 4750 2034 4750 
z
" transform="scale(0.015625)"/>
       </defs>
       <use xlink:href="#DejaVuSans-2212"/>
       <use xlink:href="#DejaVuSans-31" x="83.789062"/>
       <use xlink:href="#DejaVuSans-2e" x="147.412109"/>
       <use xlink:href="#DejaVuSans-30" x="179.199219"/>
      </g>
     </g>
    </g>
    <g id="xtick_3">
     <g id="line2d_3">
      <g>
       <use xlink:href="#m387d4b25b7" x="250.114826" y="390.04" style="stroke: #000000; stroke-width: 0.8"/>
      </g>
     </g>
     <g id="text_3">
      <!-- −0.5 -->
      <g transform="translate(237.97342 404.638438) scale(0.1 -0.1)">
       <use xlink:href="#DejaVuSans-2212"/>
       <use xlink:href="#DejaVuSans-30" x="83.789062"/>
       <use xlink:href="#DejaVuSans-2e" x="147.412109"/>
       <use xlink:href="#DejaVuSans-35" x="179.199219"/>
      </g>
     </g>
    </g>
    <g id="xtick_4">
     <g id="line2d_4">
      <g>
       <use xlink:href="#m387d4b25b7" x="336.97866" y="390.04" style="stroke: #000000; stroke-width: 0.8"/>
      </g>
     </g>
     <g id="text_4">
      <!-- 0.0 -->
      <g transform="translate(329.027098 404.638438) scale(0.1 -0.1)">
       <use xlink:href="#DejaVuSans-30"/>
       <use xlink:href="#DejaVuSans-2e" x="63.623047"/>
       <use xlink:href="#DejaVuSans-30" x="95.410156"/>
      </g>
     </g>
    </g>
    <g id="xtick_5">
     <g id="line2d_5">
      <g>
       <use xlink:href="#m387d4b25b7" x="423.842495" y="390.04" style="stroke: #000000; stroke-width: 0.8"/>
      </g>
     </g>
     <g id="text_5">
      <!-- 0.5 -->
      <g transform="translate(415.890933 404.638438) scale(0.1 -0.1)">
       <use xlink:href="#DejaVuSans-30"/>
       <use xlink:href="#DejaVuSans-2e" x="63.623047"/>
       <use xlink:href="#DejaVuSans-35" x="95.410156"/>
      </g>
     </g>
    </g>
    <g id="xtick_6">
     <g id="line2d_6">
      <g>
       <use xlink:href="#m387d4b25b7" x="510.70633" y="390.04" style="stroke: #000000; stroke-width: 0.8"/>
      </g>
     </g>
     <g id="text_6">
      <!-- 1.0 -->
      <g transform="translate(502.754767 404.638438) scale(0.1 -0.1)">
       <use xlink:href="#DejaVuSans-31"/>
       <use xlink:href="#DejaVuSans-2e" x="63.623047"/>
       <use xlink:href="#DejaVuSans-30" x="95.410156"/>
      </g>
     </g>
    </g>
    <g id="xtick_7">
     <g id="line2d_7">
      <g>
       <use xlink:href="#m387d4b25b7" x="597.570164" y="390.04" style="stroke: #000000; stroke-width: 0.8"/>
      </g>
     </g>
     <g id="text_7">
      <!-- 1.5 -->
      <g transform="translate(589.618602 404.638438) scale(0.1 -0.1)">
       <use xlink:href="#DejaVuSans-31"/>
       <use xlink:href="#DejaVuSans-2e" x="63.623047"/>
       <use xlink:href="#DejaVuSans-35" x="95.410156"/>
      </g>
     </g>
    </g>
    <g id="xtick_8">
     <g id="line2d_8">
      <g>
       <use xlink:href="#m387d4b25b7" x="684.433999" y="390.04" style="stroke: #000000; stroke-width: 0.8"/>
      </g>
     </g>
     <g id="text_8">
      <!-- 2.0 -->
      <g transform="translate(676.482436 404.638438) scale(0.1 -0.1)">
       <defs>
        <path id="DejaVuSans-32" d="M 1228 531 
L 3431 531 
L 3431 0 
L 469 0 
L 469 531 
Q 828 903 1448 1529 
Q 2069 2156 2228 2338 
Q 2531 2678 2651 2914 
Q 2772 3150 2772 3378 
Q 2772 3750 2511 3984 
Q 2250 4219 1831 4219 
Q 1534 4219 1204 4116 
Q 875 4013 500 3803 
L 500 4441 
Q 881 4594 1212 4672 
Q 1544 4750 1819 4750 
Q 2544 4750 2975 4387 
Q 3406 4025 3406 3419 
Q 3406 3131 3298 2873 
Q 3191 2616 2906 2266 
Q 2828 2175 2409 1742 
Q 1991 1309 1228 531 
z
" transform="scale(0.015625)"/>
       </defs>
       <use xlink:href="#DejaVuSans-32"/>
       <use xlink:href="#DejaVuSans-2e" x="63.623047"/>
       <use xlink:href="#DejaVuSans-30" x="95.410156"/>
      </g>
     </g>
    </g>
    <g id="xtick_9">
     <g id="line2d_9">
      <g>
       <use xlink:href="#m387d4b25b7" x="771.297834" y="390.04" style="stroke: #000000; stroke-width: 0.8"/>
      </g>
     </g>
     <g id="text_9">
      <!-- 2.5 -->
      <g transform="translate(763.346271 404.638438) scale(0.1 -0.1)">
       <use xlink:href="#DejaVuSans-32"/>
       <use xlink:href="#DejaVuSans-2e" x="63.623047"/>
       <use xlink:href="#DejaVuSans-35" x="95.410156"/>
      </g>
     </g>
    </g>
    <g id="text_10">
     <!-- Raw BADASP Score -->
     <g transform="translate(366.609531 418.316562) scale(0.1 -0.1)">
      <defs>
       <path id="DejaVuSans-52" d="M 2841 2188 
Q 3044 2119 3236 1894 
Q 3428 1669 3622 1275 
L 4263 0 
L 3584 0 
L 2988 1197 
Q 2756 1666 2539 1819 
Q 2322 1972 1947 1972 
L 1259 1972 
L 1259 0 
L 628 0 
L 628 4666 
L 2053 4666 
Q 2853 4666 3247 4331 
Q 3641 3997 3641 3322 
Q 3641 2881 3436 2590 
Q 3231 2300 2841 2188 
z
M 1259 4147 
L 1259 2491 
L 2053 2491 
Q 2509 2491 2742 2702 
Q 2975 2913 2975 3322 
Q 2975 3731 2742 3939 
Q 2509 4147 2053 4147 
L 1259 4147 
z
" transform="scale(0.015625)"/>
       <path id="DejaVuSans-61" d="M 2194 1759 
Q 1497 1759 1228 1600 
Q 959 1441 959 1056 
Q 959 750 1161 570 
Q 1363 391 1709 391 
Q 2188 391 2477 730 
Q 2766 1069 2766 1631 
L 2766 1759 
L 2194 1759 
z
M 3341 1997 
L 3341 0 
L 2766 0 
L 2766 531 
Q 2569 213 2275 61 
Q 1981 -91 1556 -91 
Q 1019 -91 701 211 
Q 384 513 384 1019 
Q 384 1609 779 1909 
Q 1175 2209 1959 2209 
L 2766 2209 
L 2766 2266 
Q 2766 2663 2505 2880 
Q 2244 3097 1772 3097 
Q 1472 3097 1187 3025 
Q 903 2953 641 2809 
L 641 3341 
Q 956 3463 1253 3523 
Q 1550 3584 1831 3584 
Q 2591 3584 2966 3190 
Q 3341 2797 3341 1997 
z
" transform="scale(0.015625)"/>
       <path id="DejaVuSans-77" d="M 269 3500 
L 844 3500 
L 1563 769 
L 2278 3500 
L 2956 3500 
L 3675 769 
L 4391 3500 
L 4966 3500 
L 4050 0 
L 3372 0 
L 2619 2869 
L 1863 0 
L 1184 0 
L 269 3500 
z
" transform="scale(0.015625)"/>
       <path id="DejaVuSans-20" transform="scale(0.015625)"/>
       <path id="DejaVuSans-42" d="M 1259 2228 
L 1259 519 
L 2272 519 
Q 2781 519 3026 730 
Q 3272 941 3272 1375 
Q 3272 1813 3026 2020 
Q 2781 2228 2272 2228 
L 1259 2228 
z
M 1259 4147 
L 1259 2741 
L 2194 2741 
Q 2656 2741 2882 2914 
Q 3109 3088 3109 3444 
Q 3109 3797 2882 3972 
Q 2656 4147 2194 4147 
L 1259 4147 
z
M 628 4666 
L 2241 4666 
Q 2963 4666 3353 4366 
Q 3744 4066 3744 3513 
Q 3744 3084 3544 2831 
Q 3344 2578 2956 2516 
Q 3422 2416 3680 2098 
Q 3938 1781 3938 1306 
Q 3938 681 3513 340 
Q 3088 0 2303 0 
L 628 0 
L 628 4666 
z
" transform="scale(0.015625)"/>
       <path id="DejaVuSans-41" d="M 2188 4044 
L 1331 1722 
L 3047 1722 
L 2188 4044 
z
M 1831 4666 
L 2547 4666 
L 4325 0 
L 3669 0 
L 3244 1197 
L 1141 1197 
L 716 0 
L 50 0 
L 1831 4666 
z
" transform="scale(0.015625)"/>
       <path id="DejaVuSans-44" d="M 1259 4147 
L 1259 519 
L 2022 519 
Q 2988 519 3436 956 
Q 3884 1394 3884 2338 
Q 3884 3275 3436 3711 
Q 2988 4147 2022 4147 
L 1259 4147 
z
M 628 4666 
L 1925 4666 
Q 3281 4666 3915 4102 
Q 4550 3538 4550 2338 
Q 4550 1131 3912 565 
Q 3275 0 1925 0 
L 628 0 
L 628 4666 
z
" transform="scale(0.015625)"/>
       <path id="DejaVuSans-53" d="M 3425 4513 
L 3425 3897 
Q 3066 4069 2747 4153 
Q 2428 4238 2131 4238 
Q 1616 4238 1336 4038 
Q 1056 3838 1056 3469 
Q 1056 3159 1242 3001 
Q 1428 2844 1947 2747 
L 2328 2669 
Q 3034 2534 3370 2195 
Q 3706 1856 3706 1288 
Q 3706 609 3251 259 
Q 2797 -91 1919 -91 
Q 1588 -91 1214 -16 
Q 841 59 441 206 
L 441 856 
Q 825 641 1194 531 
Q 1563 422 1919 422 
Q 2459 422 2753 634 
Q 3047 847 3047 1241 
Q 3047 1584 2836 1778 
Q 2625 1972 2144 2069 
L 1759 2144 
Q 1053 2284 737 2584 
Q 422 2884 422 3419 
Q 422 4038 858 4394 
Q 1294 4750 2059 4750 
Q 2388 4750 2728 4690 
Q 3069 4631 3425 4513 
z
" transform="scale(0.015625)"/>
       <path id="DejaVuSans-50" d="M 1259 4147 
L 1259 2394 
L 2053 2394 
Q 2494 2394 2734 2622 
Q 2975 2850 2975 3272 
Q 2975 3691 2734 3919 
Q 2494 4147 2053 4147 
L 1259 4147 
z
M 628 4666 
L 2053 4666 
Q 2838 4666 3239 4311 
Q 3641 3956 3641 3272 
Q 3641 2581 3239 2228 
Q 2838 1875 2053 1875 
L 1259 1875 
L 1259 0 
L 628 0 
L 628 4666 
z
" transform="scale(0.015625)"/>
       <path id="DejaVuSans-63" d="M 3122 3366 
L 3122 2828 
Q 2878 2963 2633 3030 
Q 2388 3097 2138 3097 
Q 1578 3097 1268 2742 
Q 959 2388 959 1747 
Q 959 1106 1268 751 
Q 1578 397 2138 397 
Q 2388 397 2633 464 
Q 2878 531 3122 666 
L 3122 134 
Q 2881 22 2623 -34 
Q 2366 -91 2075 -91 
Q 1284 -91 818 406 
Q 353 903 353 1747 
Q 353 2603 823 3093 
Q 1294 3584 2113 3584 
Q 2378 3584 2631 3529 
Q 2884 3475 3122 3366 
z
" transform="scale(0.015625)"/>
       <path id="DejaVuSans-6f" d="M 1959 3097 
Q 1497 3097 1228 2736 
Q 959 2375 959 1747 
Q 959 1119 1226 758 
Q 1494 397 1959 397 
Q 2419 397 2687 759 
Q 2956 1122 2956 1747 
Q 2956 2369 2687 2733 
Q 2419 3097 1959 3097 
z
M 1959 3584 
Q 2709 3584 3137 3096 
Q 3566 2609 3566 1747 
Q 3566 888 3137 398 
Q 2709 -91 1959 -91 
Q 1206 -91 779 398 
Q 353 888 353 1747 
Q 353 2609 779 3096 
Q 1206 3584 1959 3584 
z
" transform="scale(0.015625)"/>
       <path id="DejaVuSans-72" d="M 2631 2963 
Q 2534 3019 2420 3045 
Q 2306 3072 2169 3072 
Q 1681 3072 1420 2755 
Q 1159 2438 1159 1844 
L 1159 0 
L 581 0 
L 581 3500 
L 1159 3500 
L 1159 2956 
Q 1341 3275 1631 3429 
Q 1922 3584 2338 3584 
Q 2397 3584 2469 3576 
Q 2541 3569 2628 3553 
L 2631 2963 
z
" transform="scale(0.015625)"/>
       <path id="DejaVuSans-65" d="M 3597 1894 
L 3597 1613 
L 953 1613 
Q 991 1019 1311 708 
Q 1631 397 2203 397 
Q 2534 397 2845 478 
Q 3156 559 3463 722 
L 3463 178 
Q 3153 47 2828 -22 
Q 2503 -91 2169 -91 
Q 1331 -91 842 396 
Q 353 884 353 1716 
Q 353 2575 817 3079 
Q 1281 3584 2069 3584 
Q 2775 3584 3186 3129 
Q 3597 2675 3597 1894 
z
M 3022 2063 
Q 3016 2534 2758 2815 
Q 2500 3097 2075 3097 
Q 1594 3097 1305 2825 
Q 1016 2553 972 2059 
L 3022 2063 
z
" transform="scale(0.015625)"/>
      </defs>
      <use xlink:href="#DejaVuSans-52"/>
      <use xlink:href="#DejaVuSans-61" x="67.232422"/>
      <use xlink:href="#DejaVuSans-77" x="128.511719"/>
      <use xlink:href="#DejaVuSans-20" x="210.298828"/>
      <use xlink:href="#DejaVuSans-42" x="242.085938"/>
      <use xlink:href="#DejaVuSans-41" x="310.689453"/>
      <use xlink:href="#DejaVuSans-44" x="379.097656"/>
      <use xlink:href="#DejaVuSans-41" x="454.349609"/>
      <use xlink:href="#DejaVuSans-53" x="522.757812"/>
      <use xlink:href="#DejaVuSans-50" x="586.234375"/>
      <use xlink:href="#DejaVuSans-20" x="646.537109"/>
      <use xlink:href="#DejaVuSans-53" x="678.324219"/>
      <use xlink:href="#DejaVuSans-63" x="741.800781"/>
      <use xlink:href="#DejaVuSans-6f" x="796.78125"/>
      <use xlink:href="#DejaVuSans-72" x="857.962891"/>
      <use xlink:href="#DejaVuSans-65" x="896.826172"/>
     </g>
    </g>
   </g>
   <g id="matplotlib.axis_2">
    <g id="ytick_1">
     <g id="line2d_10">
      <defs>
       <path id="m949ca5f14f" d="M 0 0 
L -3.5 0 
" style="stroke: #000000; stroke-width: 0.8"/>
      </defs>
      <g>
       <use xlink:href="#m949ca5f14f" x="47.855" y="390.04" style="stroke: #000000; stroke-width: 0.8"/>
      </g>
     </g>
     <g id="text_11">
      <!-- 0.0 -->
      <g transform="translate(24.951875 393.839219) scale(0.1 -0.1)">
       <use xlink:href="#DejaVuSans-30"/>
       <use xlink:href="#DejaVuSans-2e" x="63.623047"/>
       <use xlink:href="#DejaVuSans-30" x="95.410156"/>
      </g>
     </g>
    </g>
    <g id="ytick_2">
     <g id="line2d_11">
      <g>
       <use xlink:href="#m949ca5f14f" x="47.855" y="326.252168" style="stroke: #000000; stroke-width: 0.8"/>
      </g>
     </g>
     <g id="text_12">
      <!-- 0.5 -->
      <g transform="translate(24.951875 330.051387) scale(0.1 -0.1)">
       <use xlink:href="#DejaVuSans-30"/>
       <use xlink:href="#DejaVuSans-2e" x="63.623047"/>
       <use xlink:href="#DejaVuSans-35" x="95.410156"/>
      </g>
     </g>
    </g>
    <g id="ytick_3">
     <g id="line2d_12">
      <g>
       <use xlink:href="#m949ca5f14f" x="47.855" y="262.464336" style="stroke: #000000; stroke-width: 0.8"/>
      </g>
     </g>
     <g id="text_13">
      <!-- 1.0 -->
      <g transform="translate(24.951875 266.263554) scale(0.1 -0.1)">
       <use xlink:href="#DejaVuSans-31"/>
       <use xlink:href="#DejaVuSans-2e" x="63.623047"/>
       <use xlink:href="#DejaVuSans-30" x="95.410156"/>
      </g>
     </g>
    </g>
    <g id="ytick_4">
     <g id="line2d_13">
      <g>
       <use xlink:href="#m949ca5f14f" x="47.855" y="198.676503" style="stroke: #000000; stroke-width: 0.8"/>
      </g>
     </g>
     <g id="text_14">
      <!-- 1.5 -->
      <g transform="translate(24.951875 202.475722) scale(0.1 -0.1)">
       <use xlink:href="#DejaVuSans-31"/>
       <use xlink:href="#DejaVuSans-2e" x="63.623047"/>
       <use xlink:href="#DejaVuSans-35" x="95.410156"/>
      </g>
     </g>
    </g>
    <g id="ytick_5">
     <g id="line2d_14">
      <g>
       <use xlink:href="#m949ca5f14f" x="47.855" y="134.888671" style="stroke: #000000; stroke-width: 0.8"/>
      </g>
     </g>
     <g id="text_15">
      <!-- 2.0 -->
      <g transform="translate(24.951875 138.68789) scale(0.1 -0.1)">
       <use xlink:href="#DejaVuSans-32"/>
       <use xlink:href="#DejaVuSans-2e" x="63.623047"/>
       <use xlink:href="#DejaVuSans-30" x="95.410156"/>
      </g>
     </g>
    </g>
    <g id="ytick_6">
     <g id="line2d_15">
      <g>
       <use xlink:href="#m949ca5f14f" x="47.855" y="71.100839" style="stroke: #000000; stroke-width: 0.8"/>
      </g>
     </g>
     <g id="text_16">
      <!-- 2.5 -->
      <g transform="translate(24.951875 74.900058) scale(0.1 -0.1)">
       <use xlink:href="#DejaVuSans-32"/>
       <use xlink:href="#DejaVuSans-2e" x="63.623047"/>
       <use xlink:href="#DejaVuSans-35" x="95.410156"/>
      </g>
     </g>
    </g>
    <g id="text_17">
     <!-- Density -->
     <g transform="translate(18.872188 227.108594) rotate(-90) scale(0.1 -0.1)">
      <defs>
       <path id="DejaVuSans-6e" d="M 3513 2113 
L 3513 0 
L 2938 0 
L 2938 2094 
Q 2938 2591 2744 2837 
Q 2550 3084 2163 3084 
Q 1697 3084 1428 2787 
Q 1159 2491 1159 1978 
L 1159 0 
L 581 0 
L 581 3500 
L 1159 3500 
L 1159 2956 
Q 1366 3272 1645 3428 
Q 1925 3584 2291 3584 
Q 2894 3584 3203 3211 
Q 3513 2838 3513 2113 
z
" transform="scale(0.015625)"/>
       <path id="DejaVuSans-73" d="M 2834 3397 
L 2834 2853 
Q 2591 2978 2328 3040 
Q 2066 3103 1784 3103 
Q 1356 3103 1142 2972 
Q 928 2841 928 2578 
Q 928 2378 1081 2264 
Q 1234 2150 1697 2047 
L 1894 2003 
Q 2506 1872 2764 1633 
Q 3022 1394 3022 966 
Q 3022 478 2636 193 
Q 2250 -91 1575 -91 
Q 1294 -91 989 -36 
Q 684 19 347 128 
L 347 722 
Q 666 556 975 473 
Q 1284 391 1588 391 
Q 1994 391 2212 530 
Q 2431 669 2431 922 
Q 2431 1156 2273 1281 
Q 2116 1406 1581 1522 
L 1381 1569 
Q 847 1681 609 1914 
Q 372 2147 372 2553 
Q 372 3047 722 3315 
Q 1072 3584 1716 3584 
Q 2034 3584 2315 3537 
Q 2597 3491 2834 3397 
z
" transform="scale(0.015625)"/>
       <path id="DejaVuSans-69" d="M 603 3500 
L 1178 3500 
L 1178 0 
L 603 0 
L 603 3500 
z
M 603 4863 
L 1178 4863 
L 1178 4134 
L 603 4134 
L 603 4863 
z
" transform="scale(0.015625)"/>
       <path id="DejaVuSans-74" d="M 1172 4494 
L 1172 3500 
L 2356 3500 
L 2356 3053 
L 1172 3053 
L 1172 1153 
Q 1172 725 1289 603 
Q 1406 481 1766 481 
L 2356 481 
L 2356 0 
L 1766 0 
Q 1100 0 847 248 
Q 594 497 594 1153 
L 594 3053 
L 172 3053 
L 172 3500 
L 594 3500 
L 594 4494 
L 1172 4494 
z
" transform="scale(0.015625)"/>
       <path id="DejaVuSans-79" d="M 2059 -325 
Q 1816 -950 1584 -1140 
Q 1353 -1331 966 -1331 
L 506 -1331 
L 506 -850 
L 844 -850 
Q 1081 -850 1212 -737 
Q 1344 -625 1503 -206 
L 1606 56 
L 191 3500 
L 800 3500 
L 1894 763 
L 2988 3500 
L 3597 3500 
L 2059 -325 
z
" transform="scale(0.015625)"/>
      </defs>
      <use xlink:href="#DejaVuSans-44"/>
      <use xlink:href="#DejaVuSans-65" x="77.001953"/>
      <use xlink:href="#DejaVuSans-6e" x="138.525391"/>
      <use xlink:href="#DejaVuSans-73" x="201.904297"/>
      <use xlink:href="#DejaVuSans-69" x="254.003906"/>
      <use xlink:href="#DejaVuSans-74" x="281.787109"/>
      <use xlink:href="#DejaVuSans-79" x="320.996094"/>
     </g>
    </g>
   </g>
   <g id="line2d_16">
    <path d="M 81.188864 389.988041 
L 101.27331 389.822429 
L 114.662941 389.526886 
L 124.705164 389.111838 
L 134.747387 388.432588 
L 141.442202 387.777334 
L 148.137018 386.916068 
L 154.831833 385.809755 
L 161.526649 384.421678 
L 168.221464 382.721548 
L 174.916279 380.690302 
L 181.611095 378.325166 
L 188.30591 375.644396 
L 195.000726 372.690999 
L 205.042949 367.909448 
L 218.43258 361.440571 
L 225.127395 358.46378 
L 231.822211 355.84873 
L 235.169618 354.719479 
L 238.517026 353.729681 
L 241.864434 352.892846 
L 245.211841 352.220551 
L 248.559249 351.72217 
L 251.906657 351.404654 
L 255.254064 351.272364 
L 258.601472 351.326973 
L 261.94888 351.567425 
L 265.296288 351.989967 
L 268.643695 352.588248 
L 271.991103 353.353472 
L 275.338511 354.274613 
L 278.685918 355.338683 
L 285.380734 357.835692 
L 292.075549 360.713539 
L 302.117772 365.436696 
L 315.507403 371.79268 
L 322.202219 374.746099 
L 328.897034 377.444136 
L 335.591849 379.838996 
L 342.286665 381.906181 
L 348.98148 383.64076 
L 355.676296 385.052567 
L 362.371111 386.160983 
L 369.065927 386.98986 
L 375.760742 387.562953 
L 382.455557 387.900061 
L 389.150373 388.013933 
L 395.845188 387.907871 
L 402.540004 387.573941 
L 409.234819 386.991654 
L 415.929634 386.127087 
L 422.62445 384.932438 
L 429.319265 383.346162 
L 432.666673 382.383381 
L 436.014081 381.2939 
L 439.361488 380.066756 
L 442.708896 378.690516 
L 446.056304 377.153428 
L 449.403712 375.443601 
L 452.751119 373.549216 
L 456.098527 371.458771 
L 459.445935 369.161359 
L 462.793342 366.646975 
L 466.14075 363.906854 
L 469.488158 360.933831 
L 472.835566 357.722721 
L 476.182973 354.270709 
L 479.530381 350.577737 
L 482.877789 346.646894 
L 486.225196 342.484771 
L 489.572604 338.10179 
L 496.267419 328.735717 
L 502.962235 318.717672 
L 513.004458 303.013524 
L 519.699273 292.565313 
L 526.394089 282.581462 
L 529.741497 277.893824 
L 533.088904 273.479692 
L 536.436312 269.391186 
L 539.78372 265.678541 
L 543.131127 262.389097 
L 546.478535 259.566305 
L 549.825943 257.248787 
L 553.173351 255.469458 
L 556.520758 254.254766 
L 559.868166 253.624046 
L 563.215574 253.589031 
L 566.562981 254.153525 
L 569.910389 255.313252 
L 573.257797 257.055893 
L 576.605204 259.361309 
L 579.952612 262.201931 
L 583.30002 265.543339 
L 586.647428 269.344968 
L 589.994835 273.560964 
L 593.342243 278.141131 
L 596.689651 283.031961 
L 603.384466 293.521461 
L 613.426689 310.176693 
L 620.121505 321.268728 
L 626.81632 331.917436 
L 630.163728 336.981217 
L 633.511136 341.831122 
L 636.858543 346.443631 
L 640.205951 350.800483 
L 643.553359 354.888512 
L 646.900766 358.699397 
L 650.248174 362.229325 
L 653.595582 365.478584 
L 656.942989 368.451115 
L 660.290397 371.154025 
L 663.637805 373.597098 
L 666.985213 375.792291 
L 670.33262 377.753254 
L 673.680028 379.494872 
L 677.027436 381.032841 
L 680.374843 382.383277 
L 683.722251 383.562383 
L 687.069659 384.586153 
L 690.417067 385.470125 
L 697.111882 386.877419 
L 703.806697 387.893086 
L 710.501513 388.61041 
L 717.196328 389.106269 
L 727.238551 389.564676 
L 740.628182 389.859461 
L 747.322998 389.931926 
L 747.322998 389.931926 
" clip-path="url(#p7131004110)" style="fill: none; stroke: #1f77b4; stroke-width: 2; stroke-linecap: square"/>
   </g>
   <g id="line2d_17">
    <path d="M 572.301725 390.04 
L 572.301725 26.16 
" clip-path="url(#p7131004110)" style="fill: none; stroke-dasharray: 5.55,2.4; stroke-dashoffset: 0; stroke: #1f77b4; stroke-opacity: 0.8; stroke-width: 1.5"/>
   </g>
   <g id="line2d_18">
    <path d="M 173.618657 390.005278 
L 190.932652 389.820128 
L 199.589649 389.555019 
L 208.246646 389.058999 
L 214.017977 388.543975 
L 219.789309 387.843167 
L 225.56064 386.932772 
L 231.331972 385.805448 
L 237.103303 384.477645 
L 245.7603 382.216765 
L 257.302963 379.148478 
L 263.074295 377.830644 
L 268.845626 376.792241 
L 274.616958 376.104334 
L 280.388289 375.799609 
L 286.15962 375.86885 
L 291.930952 376.265674 
L 297.702283 376.918029 
L 306.359281 378.195407 
L 329.444606 381.854871 
L 340.987269 383.400332 
L 352.529932 384.710182 
L 364.072595 385.811972 
L 381.386589 387.202423 
L 398.700584 388.404007 
L 413.128912 389.184374 
L 424.671575 389.58192 
L 436.214238 389.752349 
L 447.756901 389.678035 
L 456.413898 389.417197 
L 465.070895 388.88931 
L 470.842227 388.310776 
L 476.613558 387.461053 
L 479.499224 386.899886 
L 482.38489 386.22408 
L 485.270555 385.41199 
L 488.156221 384.438644 
L 491.041887 383.275615 
L 493.927553 381.891 
L 496.813218 380.249545 
L 499.698884 378.312938 
L 502.58455 376.040281 
L 505.470216 373.388771 
L 508.355881 370.31458 
L 511.241547 366.773929 
L 514.127213 362.724361 
L 517.012878 358.126169 
L 519.898544 352.943959 
L 522.78421 347.148309 
L 525.669876 340.71748 
L 528.555541 333.639135 
L 531.441207 325.912012 
L 534.326873 317.547487 
L 537.212538 308.570996 
L 540.098204 299.023232 
L 542.98387 288.961066 
L 548.755201 267.604987 
L 563.18353 212.359747 
L 566.069196 202.149898 
L 568.954861 192.603097 
L 571.840527 183.887228 
L 574.726193 176.164159 
L 577.611859 169.584942 
L 580.497524 164.284984 
L 583.38319 160.379419 
L 586.268856 157.958889 
L 589.154522 157.085962 
L 592.040187 157.792376 
L 594.925853 160.077293 
L 597.811519 163.906671 
L 600.697184 169.213837 
L 603.58285 175.901264 
L 606.468516 183.843492 
L 609.354182 192.891073 
L 612.239847 202.87537 
L 615.125513 213.613973 
L 620.896844 236.590447 
L 629.553842 272.001856 
L 635.325173 294.327256 
L 638.210839 304.722382 
L 641.096505 314.487429 
L 643.98217 323.562586 
L 646.867836 331.910297 
L 649.753502 339.513615 
L 652.639167 346.373989 
L 655.524833 352.508636 
L 658.410499 357.947689 
L 661.296165 362.731268 
L 664.18183 366.906639 
L 667.067496 370.525554 
L 669.953162 373.641892 
L 672.838828 376.30965 
L 675.724493 378.581308 
L 678.610159 380.50659 
L 681.495825 382.131592 
L 684.38149 383.498247 
L 687.267156 384.644071 
L 690.152822 385.602153 
L 693.038488 386.401318 
L 698.809819 387.618697 
L 704.58115 388.454212 
L 710.352482 389.021184 
L 719.009479 389.537858 
L 727.666476 389.807569 
L 742.094805 389.985394 
L 747.866136 390.01129 
L 747.866136 390.01129 
" clip-path="url(#p7131004110)" style="fill: none; stroke: #d95f02; stroke-width: 2; stroke-linecap: square"/>
   </g>
   <g id="line2d_19">
    <path d="M 574.368164 390.04 
L 574.368164 26.16 
" clip-path="url(#p7131004110)" style="fill: none; stroke-dasharray: 5.55,2.4; stroke-dashoffset: 0; stroke: #d95f02; stroke-opacity: 0.8; stroke-width: 1.5"/>
   </g>
   <g id="line2d_20">
    <path d="M 205.883416 390.005269 
L 216.544167 389.855612 
L 224.53973 389.5306 
L 229.870105 389.139837 
L 235.200481 388.575043 
L 240.530856 387.833332 
L 248.526419 386.46093 
L 261.852357 384.036528 
L 267.182733 383.263297 
L 272.513108 382.751325 
L 277.843483 382.604344 
L 280.508671 382.692286 
L 285.839046 383.203479 
L 291.169422 384.110309 
L 299.164985 385.89385 
L 307.160548 387.632507 
L 312.490923 388.535765 
L 317.821298 389.179656 
L 323.151674 389.590091 
L 331.147237 389.896413 
L 341.807988 390.017245 
L 379.120615 390.039998 
L 496.388873 389.954679 
L 504.384436 389.734331 
L 509.714811 389.384572 
L 515.045186 388.720224 
L 517.710374 388.206801 
L 520.375562 387.526648 
L 523.04075 386.635846 
L 525.705937 385.481382 
L 528.371125 383.999841 
L 531.036313 382.116128 
L 533.7015 379.742376 
L 536.366688 376.777198 
L 539.031876 373.10549 
L 541.697063 368.599009 
L 544.362251 363.117961 
L 547.027439 356.513858 
L 549.692626 348.633914 
L 552.357814 339.327264 
L 555.023002 328.453251 
L 557.688189 315.891986 
L 560.353377 301.557167 
L 563.018565 285.410896 
L 565.683752 267.479809 
L 568.34894 247.871307 
L 571.014128 226.78818 
L 576.344503 181.545063 
L 581.674878 135.520848 
L 584.340066 113.800046 
L 587.005254 93.891703 
L 589.670441 76.507909 
L 592.335629 62.303078 
L 595.000817 51.826449 
L 597.666004 45.480115 
L 600.331192 43.487619 
L 602.99638 45.877112 
L 605.661567 52.481319 
L 608.326755 62.954382 
L 610.991943 76.803407 
L 613.657131 93.430649 
L 616.322318 112.181001 
L 621.652694 153.421072 
L 626.983069 195.759928 
L 629.648257 216.189327 
L 632.313444 235.696062 
L 634.978632 254.066203 
L 637.64382 271.157848 
L 640.309007 286.886879 
L 642.974195 301.213609 
L 645.639383 314.131786 
L 648.30457 325.660564 
L 650.969758 335.839242 
L 653.634946 344.724113 
L 656.300133 352.386507 
L 658.965321 358.911209 
L 661.630509 364.394602 
L 664.295696 368.942203 
L 666.960884 372.665527 
L 669.626072 375.678458 
L 672.291259 378.093397 
L 674.956447 380.01754 
L 677.621635 381.549584 
L 680.286822 382.777117 
L 682.95201 383.774851 
L 685.617198 384.603763 
L 690.947573 385.93153 
L 696.277948 386.994912 
L 701.608324 387.882315 
L 706.938699 388.604792 
L 712.269075 389.154371 
L 717.59945 389.536697 
L 725.595013 389.856927 
L 736.255764 390.005386 
L 736.255764 390.005386 
" clip-path="url(#p7131004110)" style="fill: none; stroke: #2ca02c; stroke-width: 2; stroke-linecap: square"/>
   </g>
   <g id="line2d_21">
    <path d="M 577.524127 390.04 
L 577.524127 26.16 
" clip-path="url(#p7131004110)" style="fill: none; stroke-dasharray: 5.55,2.4; stroke-dashoffset: 0; stroke: #2ca02c; stroke-opacity: 0.8; stroke-width: 1.5"/>
   </g>
   <g id="patch_3">
    <path d="M 47.855 390.04 
L 47.855 26.16 
" style="fill: none; stroke: #000000; stroke-width: 0.8; stroke-linejoin: miter; stroke-linecap: square"/>
   </g>
   <g id="patch_4">
    <path d="M 781.2 390.04 
L 781.2 26.16 
" style="fill: none; stroke: #000000; stroke-width: 0.8; stroke-linejoin: miter; stroke-linecap: square"/>
   </g>
   <g id="patch_5">
    <path d="M 47.855 390.04 
L 781.2 390.04 
" style="fill: none; stroke: #000000; stroke-width: 0.8; stroke-linejoin: miter; stroke-linecap: square"/>
   </g>
   <g id="patch_6">
    <path d="M 47.855 26.16 
L 781.2 26.16 
" style="fill: none; stroke: #000000; stroke-width: 0.8; stroke-linejoin: miter; stroke-linecap: square"/>
   </g>
   <g id="text_18">
    <!-- Hierarchical BADASP Score Distributions -->
    <g transform="translate(293.851562 20.16) scale(0.12 -0.12)">
     <defs>
      <path id="DejaVuSans-48" d="M 628 4666 
L 1259 4666 
L 1259 2753 
L 3553 2753 
L 3553 4666 
L 4184 4666 
L 4184 0 
L 3553 0 
L 3553 2222 
L 1259 2222 
L 1259 0 
L 628 0 
L 628 4666 
z
" transform="scale(0.015625)"/>
      <path id="DejaVuSans-68" d="M 3513 2113 
L 3513 0 
L 2938 0 
L 2938 2094 
Q 2938 2591 2744 2837 
Q 2550 3084 2163 3084 
Q 1697 3084 1428 2787 
Q 1159 2491 1159 1978 
L 1159 0 
L 581 0 
L 581 4863 
L 1159 4863 
L 1159 2956 
Q 1366 3272 1645 3428 
Q 1925 3584 2291 3584 
Q 2894 3584 3203 3211 
Q 3513 2838 3513 2113 
z
" transform="scale(0.015625)"/>
      <path id="DejaVuSans-6c" d="M 603 4863 
L 1178 4863 
L 1178 0 
L 603 0 
L 603 4863 
z
" transform="scale(0.015625)"/>
      <path id="DejaVuSans-62" d="M 3116 1747 
Q 3116 2381 2855 2742 
Q 2594 3103 2138 3103 
Q 1681 3103 1420 2742 
Q 1159 2381 1159 1747 
Q 1159 1113 1420 752 
Q 1681 391 2138 391 
Q 2594 391 2855 752 
Q 3116 1113 3116 1747 
z
M 1159 2969 
Q 1341 3281 1617 3432 
Q 1894 3584 2278 3584 
Q 2916 3584 3314 3078 
Q 3713 2572 3713 1747 
Q 3713 922 3314 415 
Q 2916 -91 2278 -91 
Q 1894 -91 1617 61 
Q 1341 213 1159 525 
L 1159 0 
L 581 0 
L 581 4863 
L 1159 4863 
L 1159 2969 
z
" transform="scale(0.015625)"/>
      <path id="DejaVuSans-75" d="M 544 1381 
L 544 3500 
L 1119 3500 
L 1119 1403 
Q 1119 906 1312 657 
Q 1506 409 1894 409 
Q 2359 409 2629 706 
Q 2900 1003 2900 1516 
L 2900 3500 
L 3475 3500 
L 3475 0 
L 2900 0 
L 2900 538 
Q 2691 219 2414 64 
Q 2138 -91 1772 -91 
Q 1169 -91 856 284 
Q 544 659 544 1381 
z
M 1991 3584 
L 1991 3584 
z
" transform="scale(0.015625)"/>
     </defs>
     <use xlink:href="#DejaVuSans-48"/>
     <use xlink:href="#DejaVuSans-69" x="75.195312"/>
     <use xlink:href="#DejaVuSans-65" x="102.978516"/>
     <use xlink:href="#DejaVuSans-72" x="164.501953"/>
     <use xlink:href="#DejaVuSans-61" x="205.615234"/>
     <use xlink:href="#DejaVuSans-72" x="266.894531"/>
     <use xlink:href="#DejaVuSans-63" x="305.757812"/>
     <use xlink:href="#DejaVuSans-68" x="360.738281"/>
     <use xlink:href="#DejaVuSans-69" x="424.117188"/>
     <use xlink:href="#DejaVuSans-63" x="451.900391"/>
     <use xlink:href="#DejaVuSans-61" x="506.880859"/>
     <use xlink:href="#DejaVuSans-6c" x="568.160156"/>
     <use xlink:href="#DejaVuSans-20" x="595.943359"/>
     <use xlink:href="#DejaVuSans-42" x="627.730469"/>
     <use xlink:href="#DejaVuSans-41" x="696.333984"/>
     <use xlink:href="#DejaVuSans-44" x="764.742188"/>
     <use xlink:href="#DejaVuSans-41" x="839.994141"/>
     <use xlink:href="#DejaVuSans-53" x="908.402344"/>
     <use xlink:href="#DejaVuSans-50" x="971.878906"/>
     <use xlink:href="#DejaVuSans-20" x="1032.181641"/>
     <use xlink:href="#DejaVuSans-53" x="1063.96875"/>
     <use xlink:href="#DejaVuSans-63" x="1127.445312"/>
     <use xlink:href="#DejaVuSans-6f" x="1182.425781"/>
     <use xlink:href="#DejaVuSans-72" x="1243.607422"/>
     <use xlink:href="#DejaVuSans-65" x="1282.470703"/>
     <use xlink:href="#DejaVuSans-20" x="1343.994141"/>
     <use xlink:href="#DejaVuSans-44" x="1375.78125"/>
     <use xlink:href="#DejaVuSans-69" x="1452.783203"/>
     <use xlink:href="#DejaVuSans-73" x="1480.566406"/>
     <use xlink:href="#DejaVuSans-74" x="1532.666016"/>
     <use xlink:href="#DejaVuSans-72" x="1571.875"/>
     <use xlink:href="#DejaVuSans-69" x="1612.988281"/>
     <use xlink:href="#DejaVuSans-62" x="1640.771484"/>
     <use xlink:href="#DejaVuSans-75" x="1704.248047"/>
     <use xlink:href="#DejaVuSans-74" x="1767.626953"/>
     <use xlink:href="#DejaVuSans-69" x="1806.835938"/>
     <use xlink:href="#DejaVuSans-6f" x="1834.619141"/>
     <use xlink:href="#DejaVuSans-6e" x="1895.800781"/>
     <use xlink:href="#DejaVuSans-73" x="1959.179688"/>
    </g>
   </g>
   <g id="legend_1">
    <g id="line2d_22">
     <path d="M 56.855 39.258437 
L 66.855 39.258437 
L 76.855 39.258437 
" style="fill: none; stroke: #1f77b4; stroke-width: 2; stroke-linecap: square"/>
    </g>
    <g id="text_19">
     <!-- Groups -->
     <g transform="translate(84.855 42.758437) scale(0.1 -0.1)">
      <defs>
       <path id="DejaVuSans-47" d="M 3809 666 
L 3809 1919 
L 2778 1919 
L 2778 2438 
L 4434 2438 
L 4434 434 
Q 4069 175 3628 42 
Q 3188 -91 2688 -91 
Q 1594 -91 976 548 
Q 359 1188 359 2328 
Q 359 3472 976 4111 
Q 1594 4750 2688 4750 
Q 3144 4750 3555 4637 
Q 3966 4525 4313 4306 
L 4313 3634 
Q 3963 3931 3569 4081 
Q 3175 4231 2741 4231 
Q 1884 4231 1454 3753 
Q 1025 3275 1025 2328 
Q 1025 1384 1454 906 
Q 1884 428 2741 428 
Q 3075 428 3337 486 
Q 3600 544 3809 666 
z
" transform="scale(0.015625)"/>
       <path id="DejaVuSans-70" d="M 1159 525 
L 1159 -1331 
L 581 -1331 
L 581 3500 
L 1159 3500 
L 1159 2969 
Q 1341 3281 1617 3432 
Q 1894 3584 2278 3584 
Q 2916 3584 3314 3078 
Q 3713 2572 3713 1747 
Q 3713 922 3314 415 
Q 2916 -91 2278 -91 
Q 1894 -91 1617 61 
Q 1341 213 1159 525 
z
M 3116 1747 
Q 3116 2381 2855 2742 
Q 2594 3103 2138 3103 
Q 1681 3103 1420 2742 
Q 1159 2381 1159 1747 
Q 1159 1113 1420 752 
Q 1681 391 2138 391 
Q 2594 391 2855 752 
Q 3116 1113 3116 1747 
z
" transform="scale(0.015625)"/>
      </defs>
      <use xlink:href="#DejaVuSans-47"/>
      <use xlink:href="#DejaVuSans-72" x="77.490234"/>
      <use xlink:href="#DejaVuSans-6f" x="116.353516"/>
      <use xlink:href="#DejaVuSans-75" x="177.535156"/>
      <use xlink:href="#DejaVuSans-70" x="240.914062"/>
      <use xlink:href="#DejaVuSans-73" x="304.390625"/>
     </g>
    </g>
    <g id="line2d_23">
     <path d="M 56.855 53.936562 
L 66.855 53.936562 
L 76.855 53.936562 
" style="fill: none; stroke: #d95f02; stroke-width: 2; stroke-linecap: square"/>
    </g>
    <g id="text_20">
     <!-- Families -->
     <g transform="translate(84.855 57.436562) scale(0.1 -0.1)">
      <defs>
       <path id="DejaVuSans-46" d="M 628 4666 
L 3309 4666 
L 3309 4134 
L 1259 4134 
L 1259 2759 
L 3109 2759 
L 3109 2228 
L 1259 2228 
L 1259 0 
L 628 0 
L 628 4666 
z
" transform="scale(0.015625)"/>
       <path id="DejaVuSans-6d" d="M 3328 2828 
Q 3544 3216 3844 3400 
Q 4144 3584 4550 3584 
Q 5097 3584 5394 3201 
Q 5691 2819 5691 2113 
L 5691 0 
L 5113 0 
L 5113 2094 
Q 5113 2597 4934 2840 
Q 4756 3084 4391 3084 
Q 3944 3084 3684 2787 
Q 3425 2491 3425 1978 
L 3425 0 
L 2847 0 
L 2847 2094 
Q 2847 2600 2669 2842 
Q 2491 3084 2119 3084 
Q 1678 3084 1418 2786 
Q 1159 2488 1159 1978 
L 1159 0 
L 581 0 
L 581 3500 
L 1159 3500 
L 1159 2956 
Q 1356 3278 1631 3431 
Q 1906 3584 2284 3584 
Q 2666 3584 2933 3390 
Q 3200 3197 3328 2828 
z
" transform="scale(0.015625)"/>
      </defs>
      <use xlink:href="#DejaVuSans-46"/>
      <use xlink:href="#DejaVuSans-61" x="48.394531"/>
      <use xlink:href="#DejaVuSans-6d" x="109.673828"/>
      <use xlink:href="#DejaVuSans-69" x="207.085938"/>
      <use xlink:href="#DejaVuSans-6c" x="234.869141"/>
      <use xlink:href="#DejaVuSans-69" x="262.652344"/>
      <use xlink:href="#DejaVuSans-65" x="290.435547"/>
      <use xlink:href="#DejaVuSans-73" x="351.958984"/>
     </g>
    </g>
    <g id="line2d_24">
     <path d="M 56.855 68.614687 
L 66.855 68.614687 
L 76.855 68.614687 
" style="fill: none; stroke: #2ca02c; stroke-width: 2; stroke-linecap: square"/>
    </g>
    <g id="text_21">
     <!-- Subfamilies -->
     <g transform="translate(84.855 72.114687) scale(0.1 -0.1)">
      <defs>
       <path id="DejaVuSans-66" d="M 2375 4863 
L 2375 4384 
L 1825 4384 
Q 1516 4384 1395 4259 
Q 1275 4134 1275 3809 
L 1275 3500 
L 2222 3500 
L 2222 3053 
L 1275 3053 
L 1275 0 
L 697 0 
L 697 3053 
L 147 3053 
L 147 3500 
L 697 3500 
L 697 3744 
Q 697 4328 969 4595 
Q 1241 4863 1831 4863 
L 2375 4863 
z
" transform="scale(0.015625)"/>
      </defs>
      <use xlink:href="#DejaVuSans-53"/>
      <use xlink:href="#DejaVuSans-75" x="63.476562"/>
      <use xlink:href="#DejaVuSans-62" x="126.855469"/>
      <use xlink:href="#DejaVuSans-66" x="190.332031"/>
      <use xlink:href="#DejaVuSans-61" x="225.537109"/>
      <use xlink:href="#DejaVuSans-6d" x="286.816406"/>
      <use xlink:href="#DejaVuSans-69" x="384.228516"/>
      <use xlink:href="#DejaVuSans-6c" x="412.011719"/>
      <use xlink:href="#DejaVuSans-69" x="439.794922"/>
      <use xlink:href="#DejaVuSans-65" x="467.578125"/>
      <use xlink:href="#DejaVuSans-73" x="529.101562"/>
     </g>
    </g>
    <g id="line2d_25">
     <path d="M 162.975313 39.258437 
L 172.975313 39.258437 
L 182.975313 39.258437 
" style="fill: none; stroke-dasharray: 5.55,2.4; stroke-dashoffset: 0; stroke: #1f77b4; stroke-width: 1.5"/>
    </g>
    <g id="text_22">
     <!-- Groups 95th pct. -->
     <g transform="translate(190.975313 42.758437) scale(0.1 -0.1)">
      <defs>
       <path id="DejaVuSans-39" d="M 703 97 
L 703 672 
Q 941 559 1184 500 
Q 1428 441 1663 441 
Q 2288 441 2617 861 
Q 2947 1281 2994 2138 
Q 2813 1869 2534 1725 
Q 2256 1581 1919 1581 
Q 1219 1581 811 2004 
Q 403 2428 403 3163 
Q 403 3881 828 4315 
Q 1253 4750 1959 4750 
Q 2769 4750 3195 4129 
Q 3622 3509 3622 2328 
Q 3622 1225 3098 567 
Q 2575 -91 1691 -91 
Q 1453 -91 1209 -44 
Q 966 3 703 97 
z
M 1959 2075 
Q 2384 2075 2632 2365 
Q 2881 2656 2881 3163 
Q 2881 3666 2632 3958 
Q 2384 4250 1959 4250 
Q 1534 4250 1286 3958 
Q 1038 3666 1038 3163 
Q 1038 2656 1286 2365 
Q 1534 2075 1959 2075 
z
" transform="scale(0.015625)"/>
      </defs>
      <use xlink:href="#DejaVuSans-47"/>
      <use xlink:href="#DejaVuSans-72" x="77.490234"/>
      <use xlink:href="#DejaVuSans-6f" x="116.353516"/>
      <use xlink:href="#DejaVuSans-75" x="177.535156"/>
      <use xlink:href="#DejaVuSans-70" x="240.914062"/>
      <use xlink:href="#DejaVuSans-73" x="304.390625"/>
      <use xlink:href="#DejaVuSans-20" x="356.490234"/>
      <use xlink:href="#DejaVuSans-39" x="388.277344"/>
      <use xlink:href="#DejaVuSans-35" x="451.900391"/>
      <use xlink:href="#DejaVuSans-74" x="515.523438"/>
      <use xlink:href="#DejaVuSans-68" x="554.732422"/>
      <use xlink:href="#DejaVuSans-20" x="618.111328"/>
      <use xlink:href="#DejaVuSans-70" x="649.898438"/>
      <use xlink:href="#DejaVuSans-63" x="713.375"/>
      <use xlink:href="#DejaVuSans-74" x="768.355469"/>
      <use xlink:href="#DejaVuSans-2e" x="807.564453"/>
     </g>
    </g>
    <g id="line2d_26">
     <path d="M 162.975313 53.936562 
L 172.975313 53.936562 
L 182.975313 53.936562 
" style="fill: none; stroke-dasharray: 5.55,2.4; stroke-dashoffset: 0; stroke: #d95f02; stroke-width: 1.5"/>
    </g>
    <g id="text_23">
     <!-- Families 95th pct. -->
     <g transform="translate(190.975313 57.436562) scale(0.1 -0.1)">
      <use xlink:href="#DejaVuSans-46"/>
      <use xlink:href="#DejaVuSans-61" x="48.394531"/>
      <use xlink:href="#DejaVuSans-6d" x="109.673828"/>
      <use xlink:href="#DejaVuSans-69" x="207.085938"/>
      <use xlink:href="#DejaVuSans-6c" x="234.869141"/>
      <use xlink:href="#DejaVuSans-69" x="262.652344"/>
      <use xlink:href="#DejaVuSans-65" x="290.435547"/>
      <use xlink:href="#DejaVuSans-73" x="351.958984"/>
      <use xlink:href="#DejaVuSans-20" x="404.058594"/>
      <use xlink:href="#DejaVuSans-39" x="435.845703"/>
      <use xlink:href="#DejaVuSans-35" x="499.46875"/>
      <use xlink:href="#DejaVuSans-74" x="563.091797"/>
      <use xlink:href="#DejaVuSans-68" x="602.300781"/>
      <use xlink:href="#DejaVuSans-20" x="665.679688"/>
      <use xlink:href="#DejaVuSans-70" x="697.466797"/>
      <use xlink:href="#DejaVuSans-63" x="760.943359"/>
      <use xlink:href="#DejaVuSans-74" x="815.923828"/>
      <use xlink:href="#DejaVuSans-2e" x="855.132812"/>
     </g>
    </g>
    <g id="line2d_27">
     <path d="M 162.975313 68.614687 
L 172.975313 68.614687 
L 182.975313 68.614687 
" style="fill: none; stroke-dasharray: 5.55,2.4; stroke-dashoffset: 0; stroke: #2ca02c; stroke-width: 1.5"/>
    </g>
    <g id="text_24">
     <!-- Subfamilies 95th pct. -->
     <g transform="translate(190.975313 72.114687) scale(0.1 -0.1)">
      <use xlink:href="#DejaVuSans-53"/>
      <use xlink:href="#DejaVuSans-75" x="63.476562"/>
      <use xlink:href="#DejaVuSans-62" x="126.855469"/>
      <use xlink:href="#DejaVuSans-66" x="190.332031"/>
      <use xlink:href="#DejaVuSans-61" x="225.537109"/>
      <use xlink:href="#DejaVuSans-6d" x="286.816406"/>
      <use xlink:href="#DejaVuSans-69" x="384.228516"/>
      <use xlink:href="#DejaVuSans-6c" x="412.011719"/>
      <use xlink:href="#DejaVuSans-69" x="439.794922"/>
      <use xlink:href="#DejaVuSans-65" x="467.578125"/>
      <use xlink:href="#DejaVuSans-73" x="529.101562"/>
      <use xlink:href="#DejaVuSans-20" x="581.201172"/>
      <use xlink:href="#DejaVuSans-39" x="612.988281"/>
      <use xlink:href="#DejaVuSans-35" x="676.611328"/>
      <use xlink:href="#DejaVuSans-74" x="740.234375"/>
      <use xlink:href="#DejaVuSans-68" x="779.443359"/>
      <use xlink:href="#DejaVuSans-20" x="842.822266"/>
      <use xlink:href="#DejaVuSans-70" x="874.609375"/>
      <use xlink:href="#DejaVuSans-63" x="938.085938"/>
      <use xlink:href="#DejaVuSans-74" x="993.066406"/>
      <use xlink:href="#DejaVuSans-2e" x="1032.275391"/>
     </g>
    </g>
   </g>
  </g>
 </g>
 <defs>
  <clipPath id="p7131004110">
   <rect x="47.855" y="26.16" width="733.345" height="363.88"/>
  </clipPath>
 </defs>
</svg>
