<?xml version="1.0" encoding="utf-8" standalone="no"?>
<!DOCTYPE svg PUBLIC "-//W3C//DTD SVG 1.1//EN"
  "http://www.w3.org/Graphics/SVG/1.1/DTD/svg11.dtd">
<svg xmlns:xlink="http://www.w3.org/1999/xlink" width="792pt" height="432pt" viewBox="0 0 792 432" xmlns="http://www.w3.org/2000/svg" version="1.1">
 <metadata>
  <rdf:RDF xmlns:dc="http://purl.org/dc/elements/1.1/" xmlns:cc="http://creativecommons.org/ns#" xmlns:rdf="http://www.w3.org/1999/02/22-rdf-syntax-ns#">
   <cc:Work>
    <dc:type rdf:resource="http://purl.org/dc/dcmitype/StillImage"/>
    <dc:date>2026-04-09T16:21:38.785231</dc:date>
    <dc:format>image/svg+xml</dc:format>
    <dc:creator>
     <cc:Agent>
      <dc:title>Matplotlib v3.9.4, https://matplotlib.org/</dc:title>
     </cc:Agent>
    </dc:creator>
   </cc:Work>
  </rdf:RDF>
 </metadata>
 <defs>
  <style type="text/css">*{stroke-linejoin: round; stroke-linecap: butt}</style>
 </defs>
 <g id="figure_1">
  <g id="patch_1">
   <path d="M 0 432 
L 792 432 
L 792 0 
L 0 0 
z
" style="fill: #ffffff"/>
  </g>
  <g id="axes_1">
   <g id="patch_2">
    <path d="M 54.245 390.04 
L 781.2 390.04 
L 781.2 26.16 
L 54.245 26.16 
z
" style="fill: #ffffff"/>
   </g>
   <g id="matplotlib.axis_1">
    <g id="xtick_1">
     <g id="line2d_1">
      <defs>
       <path id="mf473fe4e83" d="M 0 0 
L 0 3.5 
" style="stroke: #000000; stroke-width: 0.8"/>
      </defs>
      <g>
       <use xlink:href="#mf473fe4e83" x="72.321078" y="390.04" style="stroke: #000000; stroke-width: 0.8"/>
      </g>
     </g>
     <g id="text_1">
      <!-- −1.5 -->
      <g transform="translate(60.179671 404.638438) scale(0.1 -0.1)">
       <defs>
        <path id="DejaVuSans-2212" d="M 678 2272 
L 4684 2272 
L 4684 1741 
L 678 1741 
L 678 2272 
z
" transform="scale(0.015625)"/>
        <path id="DejaVuSans-31" d="M 794 531 
L 1825 531 
L 1825 4091 
L 703 3866 
L 703 4441 
L 1819 4666 
L 2450 4666 
L 2450 531 
L 3481 531 
L 3481 0 
L 794 0 
L 794 531 
z
" transform="scale(0.015625)"/>
        <path id="DejaVuSans-2e" d="M 684 794 
L 1344 794 
L 1344 0 
L 684 0 
L 684 794 
z
" transform="scale(0.015625)"/>
        <path id="DejaVuSans-35" d="M 691 4666 
L 3169 4666 
L 3169 4134 
L 1269 4134 
L 1269 2991 
Q 1406 3038 1543 3061 
Q 1681 3084 1819 3084 
Q 2600 3084 3056 2656 
Q 3513 2228 3513 1497 
Q 3513 744 3044 326 
Q 2575 -91 1722 -91 
Q 1428 -91 1123 -41 
Q 819 9 494 109 
L 494 744 
Q 775 591 1075 516 
Q 1375 441 1709 441 
Q 2250 441 2565 725 
Q 2881 1009 2881 1497 
Q 2881 1984 2565 2268 
Q 2250 2553 1709 2553 
Q 1456 2553 1204 2497 
Q 953 2441 691 2322 
L 691 4666 
z
" transform="scale(0.015625)"/>
       </defs>
       <use xlink:href="#DejaVuSans-2212"/>
       <use xlink:href="#DejaVuSans-31" x="83.789062"/>
       <use xlink:href="#DejaVuSans-2e" x="147.412109"/>
       <use xlink:href="#DejaVuSans-35" x="179.199219"/>
      </g>
     </g>
    </g>
    <g id="xtick_2">
     <g id="line2d_2">
      <g>
       <use xlink:href="#mf473fe4e83" x="164.655855" y="390.04" style="stroke: #000000; stroke-width: 0.8"/>
      </g>
     </g>
     <g id="text_2">
      <!-- −1.0 -->
      <g transform="translate(152.514449 404.638438) scale(0.1 -0.1)">
       <defs>
        <path id="DejaVuSans-30" d="M 2034 4250 
Q 1547 4250 1301 3770 
Q 1056 3291 1056 2328 
Q 1056 1369 1301 889 
Q 1547 409 2034 409 
Q 2525 409 2770 889 
Q 3016 1369 3016 2328 
Q 3016 3291 2770 3770 
Q 2525 4250 2034 4250 
z
M 2034 4750 
Q 2819 4750 3233 4129 
Q 3647 3509 3647 2328 
Q 3647 1150 3233 529 
Q 2819 -91 2034 -91 
Q 1250 -91 836 529 
Q 422 1150 422 2328 
Q 422 3509 836 4129 
Q 1250 4750 2034 4750 
z
" transform="scale(0.015625)"/>
       </defs>
       <use xlink:href="#DejaVuSans-2212"/>
       <use xlink:href="#DejaVuSans-31" x="83.789062"/>
       <use xlink:href="#DejaVuSans-2e" x="147.412109"/>
       <use xlink:href="#DejaVuSans-30" x="179.199219"/>
      </g>
     </g>
    </g>
    <g id="xtick_3">
     <g id="line2d_3">
      <g>
       <use xlink:href="#mf473fe4e83" x="256.990632" y="390.04" style="stroke: #000000; stroke-width: 0.8"/>
      </g>
     </g>
     <g id="text_3">
      <!-- −0.5 -->
      <g transform="translate(244.849226 404.638438) scale(0.1 -0.1)">
       <use xlink:href="#DejaVuSans-2212"/>
       <use xlink:href="#DejaVuSans-30" x="83.789062"/>
       <use xlink:href="#DejaVuSans-2e" x="147.412109"/>
       <use xlink:href="#DejaVuSans-35" x="179.199219"/>
      </g>
     </g>
    </g>
    <g id="xtick_4">
     <g id="line2d_4">
      <g>
       <use xlink:href="#mf473fe4e83" x="349.325409" y="390.04" style="stroke: #000000; stroke-width: 0.8"/>
      </g>
     </g>
     <g id="text_4">
      <!-- 0.0 -->
      <g transform="translate(341.373847 404.638438) scale(0.1 -0.1)">
       <use xlink:href="#DejaVuSans-30"/>
       <use xlink:href="#DejaVuSans-2e" x="63.623047"/>
       <use xlink:href="#DejaVuSans-30" x="95.410156"/>
      </g>
     </g>
    </g>
    <g id="xtick_5">
     <g id="line2d_5">
      <g>
       <use xlink:href="#mf473fe4e83" x="441.660186" y="390.04" style="stroke: #000000; stroke-width: 0.8"/>
      </g>
     </g>
     <g id="text_5">
      <!-- 0.5 -->
      <g transform="translate(433.708624 404.638438) scale(0.1 -0.1)">
       <use xlink:href="#DejaVuSans-30"/>
       <use xlink:href="#DejaVuSans-2e" x="63.623047"/>
       <use xlink:href="#DejaVuSans-35" x="95.410156"/>
      </g>
     </g>
    </g>
    <g id="xtick_6">
     <g id="line2d_6">
      <g>
       <use xlink:href="#mf473fe4e83" x="533.994964" y="390.04" style="stroke: #000000; stroke-width: 0.8"/>
      </g>
     </g>
     <g id="text_6">
      <!-- 1.0 -->
      <g transform="translate(526.043401 404.638438) scale(0.1 -0.1)">
       <use xlink:href="#DejaVuSans-31"/>
       <use xlink:href="#DejaVuSans-2e" x="63.623047"/>
       <use xlink:href="#DejaVuSans-30" x="95.410156"/>
      </g>
     </g>
    </g>
    <g id="xtick_7">
     <g id="line2d_7">
      <g>
       <use xlink:href="#mf473fe4e83" x="626.329741" y="390.04" style="stroke: #000000; stroke-width: 0.8"/>
      </g>
     </g>
     <g id="text_7">
      <!-- 1.5 -->
      <g transform="translate(618.378178 404.638438) scale(0.1 -0.1)">
       <use xlink:href="#DejaVuSans-31"/>
       <use xlink:href="#DejaVuSans-2e" x="63.623047"/>
       <use xlink:href="#DejaVuSans-35" x="95.410156"/>
      </g>
     </g>
    </g>
    <g id="xtick_8">
     <g id="line2d_8">
      <g>
       <use xlink:href="#mf473fe4e83" x="718.664518" y="390.04" style="stroke: #000000; stroke-width: 0.8"/>
      </g>
     </g>
     <g id="text_8">
      <!-- 2.0 -->
      <g transform="translate(710.712956 404.638438) scale(0.1 -0.1)">
       <defs>
        <path id="DejaVuSans-32" d="M 1228 531 
L 3431 531 
L 3431 0 
L 469 0 
L 469 531 
Q 828 903 1448 1529 
Q 2069 2156 2228 2338 
Q 2531 2678 2651 2914 
Q 2772 3150 2772 3378 
Q 2772 3750 2511 3984 
Q 2250 4219 1831 4219 
Q 1534 4219 1204 4116 
Q 875 4013 500 3803 
L 500 4441 
Q 881 4594 1212 4672 
Q 1544 4750 1819 4750 
Q 2544 4750 2975 4387 
Q 3406 4025 3406 3419 
Q 3406 3131 3298 2873 
Q 3191 2616 2906 2266 
Q 2828 2175 2409 1742 
Q 1991 1309 1228 531 
z
" transform="scale(0.015625)"/>
       </defs>
       <use xlink:href="#DejaVuSans-32"/>
       <use xlink:href="#DejaVuSans-2e" x="63.623047"/>
       <use xlink:href="#DejaVuSans-30" x="95.410156"/>
      </g>
     </g>
    </g>
    <g id="text_9">
     <!-- Raw BADASP Score -->
     <g transform="translate(369.804531 418.316562) scale(0.1 -0.1)">
      <defs>
       <path id="DejaVuSans-52" d="M 2841 2188 
Q 3044 2119 3236 1894 
Q 3428 1669 3622 1275 
L 4263 0 
L 3584 0 
L 2988 1197 
Q 2756 1666 2539 1819 
Q 2322 1972 1947 1972 
L 1259 1972 
L 1259 0 
L 628 0 
L 628 4666 
L 2053 4666 
Q 2853 4666 3247 4331 
Q 3641 3997 3641 3322 
Q 3641 2881 3436 2590 
Q 3231 2300 2841 2188 
z
M 1259 4147 
L 1259 2491 
L 2053 2491 
Q 2509 2491 2742 2702 
Q 2975 2913 2975 3322 
Q 2975 3731 2742 3939 
Q 2509 4147 2053 4147 
L 1259 4147 
z
" transform="scale(0.015625)"/>
       <path id="DejaVuSans-61" d="M 2194 1759 
Q 1497 1759 1228 1600 
Q 959 1441 959 1056 
Q 959 750 1161 570 
Q 1363 391 1709 391 
Q 2188 391 2477 730 
Q 2766 1069 2766 1631 
L 2766 1759 
L 2194 1759 
z
M 3341 1997 
L 3341 0 
L 2766 0 
L 2766 531 
Q 2569 213 2275 61 
Q 1981 -91 1556 -91 
Q 1019 -91 701 211 
Q 384 513 384 1019 
Q 384 1609 779 1909 
Q 1175 2209 1959 2209 
L 2766 2209 
L 2766 2266 
Q 2766 2663 2505 2880 
Q 2244 3097 1772 3097 
Q 1472 3097 1187 3025 
Q 903 2953 641 2809 
L 641 3341 
Q 956 3463 1253 3523 
Q 1550 3584 1831 3584 
Q 2591 3584 2966 3190 
Q 3341 2797 3341 1997 
z
" transform="scale(0.015625)"/>
       <path id="DejaVuSans-77" d="M 269 3500 
L 844 3500 
L 1563 769 
L 2278 3500 
L 2956 3500 
L 3675 769 
L 4391 3500 
L 4966 3500 
L 4050 0 
L 3372 0 
L 2619 2869 
L 1863 0 
L 1184 0 
L 269 3500 
z
" transform="scale(0.015625)"/>
       <path id="DejaVuSans-20" transform="scale(0.015625)"/>
       <path id="DejaVuSans-42" d="M 1259 2228 
L 1259 519 
L 2272 519 
Q 2781 519 3026 730 
Q 3272 941 3272 1375 
Q 3272 1813 3026 2020 
Q 2781 2228 2272 2228 
L 1259 2228 
z
M 1259 4147 
L 1259 2741 
L 2194 2741 
Q 2656 2741 2882 2914 
Q 3109 3088 3109 3444 
Q 3109 3797 2882 3972 
Q 2656 4147 2194 4147 
L 1259 4147 
z
M 628 4666 
L 2241 4666 
Q 2963 4666 3353 4366 
Q 3744 4066 3744 3513 
Q 3744 3084 3544 2831 
Q 3344 2578 2956 2516 
Q 3422 2416 3680 2098 
Q 3938 1781 3938 1306 
Q 3938 681 3513 340 
Q 3088 0 2303 0 
L 628 0 
L 628 4666 
z
" transform="scale(0.015625)"/>
       <path id="DejaVuSans-41" d="M 2188 4044 
L 1331 1722 
L 3047 1722 
L 2188 4044 
z
M 1831 4666 
L 2547 4666 
L 4325 0 
L 3669 0 
L 3244 1197 
L 1141 1197 
L 716 0 
L 50 0 
L 1831 4666 
z
" transform="scale(0.015625)"/>
       <path id="DejaVuSans-44" d="M 1259 4147 
L 1259 519 
L 2022 519 
Q 2988 519 3436 956 
Q 3884 1394 3884 2338 
Q 3884 3275 3436 3711 
Q 2988 4147 2022 4147 
L 1259 4147 
z
M 628 4666 
L 1925 4666 
Q 3281 4666 3915 4102 
Q 4550 3538 4550 2338 
Q 4550 1131 3912 565 
Q 3275 0 1925 0 
L 628 0 
L 628 4666 
z
" transform="scale(0.015625)"/>
       <path id="DejaVuSans-53" d="M 3425 4513 
L 3425 3897 
Q 3066 4069 2747 4153 
Q 2428 4238 2131 4238 
Q 1616 4238 1336 4038 
Q 1056 3838 1056 3469 
Q 1056 3159 1242 3001 
Q 1428 2844 1947 2747 
L 2328 2669 
Q 3034 2534 3370 2195 
Q 3706 1856 3706 1288 
Q 3706 609 3251 259 
Q 2797 -91 1919 -91 
Q 1588 -91 1214 -16 
Q 841 59 441 206 
L 441 856 
Q 825 641 1194 531 
Q 1563 422 1919 422 
Q 2459 422 2753 634 
Q 3047 847 3047 1241 
Q 3047 1584 2836 1778 
Q 2625 1972 2144 2069 
L 1759 2144 
Q 1053 2284 737 2584 
Q 422 2884 422 3419 
Q 422 4038 858 4394 
Q 1294 4750 2059 4750 
Q 2388 4750 2728 4690 
Q 3069 4631 3425 4513 
z
" transform="scale(0.015625)"/>
       <path id="DejaVuSans-50" d="M 1259 4147 
L 1259 2394 
L 2053 2394 
Q 2494 2394 2734 2622 
Q 2975 2850 2975 3272 
Q 2975 3691 2734 3919 
Q 2494 4147 2053 4147 
L 1259 4147 
z
M 628 4666 
L 2053 4666 
Q 2838 4666 3239 4311 
Q 3641 3956 3641 3272 
Q 3641 2581 3239 2228 
Q 2838 1875 2053 1875 
L 1259 1875 
L 1259 0 
L 628 0 
L 628 4666 
z
" transform="scale(0.015625)"/>
       <path id="DejaVuSans-63" d="M 3122 3366 
L 3122 2828 
Q 2878 2963 2633 3030 
Q 2388 3097 2138 3097 
Q 1578 3097 1268 2742 
Q 959 2388 959 1747 
Q 959 1106 1268 751 
Q 1578 397 2138 397 
Q 2388 397 2633 464 
Q 2878 531 3122 666 
L 3122 134 
Q 2881 22 2623 -34 
Q 2366 -91 2075 -91 
Q 1284 -91 818 406 
Q 353 903 353 1747 
Q 353 2603 823 3093 
Q 1294 3584 2113 3584 
Q 2378 3584 2631 3529 
Q 2884 3475 3122 3366 
z
" transform="scale(0.015625)"/>
       <path id="DejaVuSans-6f" d="M 1959 3097 
Q 1497 3097 1228 2736 
Q 959 2375 959 1747 
Q 959 1119 1226 758 
Q 1494 397 1959 397 
Q 2419 397 2687 759 
Q 2956 1122 2956 1747 
Q 2956 2369 2687 2733 
Q 2419 3097 1959 3097 
z
M 1959 3584 
Q 2709 3584 3137 3096 
Q 3566 2609 3566 1747 
Q 3566 888 3137 398 
Q 2709 -91 1959 -91 
Q 1206 -91 779 398 
Q 353 888 353 1747 
Q 353 2609 779 3096 
Q 1206 3584 1959 3584 
z
" transform="scale(0.015625)"/>
       <path id="DejaVuSans-72" d="M 2631 2963 
Q 2534 3019 2420 3045 
Q 2306 3072 2169 3072 
Q 1681 3072 1420 2755 
Q 1159 2438 1159 1844 
L 1159 0 
L 581 0 
L 581 3500 
L 1159 3500 
L 1159 2956 
Q 1341 3275 1631 3429 
Q 1922 3584 2338 3584 
Q 2397 3584 2469 3576 
Q 2541 3569 2628 3553 
L 2631 2963 
z
" transform="scale(0.015625)"/>
       <path id="DejaVuSans-65" d="M 3597 1894 
L 3597 1613 
L 953 1613 
Q 991 1019 1311 708 
Q 1631 397 2203 397 
Q 2534 397 2845 478 
Q 3156 559 3463 722 
L 3463 178 
Q 3153 47 2828 -22 
Q 2503 -91 2169 -91 
Q 1331 -91 842 396 
Q 353 884 353 1716 
Q 353 2575 817 3079 
Q 1281 3584 2069 3584 
Q 2775 3584 3186 3129 
Q 3597 2675 3597 1894 
z
M 3022 2063 
Q 3016 2534 2758 2815 
Q 2500 3097 2075 3097 
Q 1594 3097 1305 2825 
Q 1016 2553 972 2059 
L 3022 2063 
z
" transform="scale(0.015625)"/>
      </defs>
      <use xlink:href="#DejaVuSans-52"/>
      <use xlink:href="#DejaVuSans-61" x="67.232422"/>
      <use xlink:href="#DejaVuSans-77" x="128.511719"/>
      <use xlink:href="#DejaVuSans-20" x="210.298828"/>
      <use xlink:href="#DejaVuSans-42" x="242.085938"/>
      <use xlink:href="#DejaVuSans-41" x="310.689453"/>
      <use xlink:href="#DejaVuSans-44" x="379.097656"/>
      <use xlink:href="#DejaVuSans-41" x="454.349609"/>
      <use xlink:href="#DejaVuSans-53" x="522.757812"/>
      <use xlink:href="#DejaVuSans-50" x="586.234375"/>
      <use xlink:href="#DejaVuSans-20" x="646.537109"/>
      <use xlink:href="#DejaVuSans-53" x="678.324219"/>
      <use xlink:href="#DejaVuSans-63" x="741.800781"/>
      <use xlink:href="#DejaVuSans-6f" x="796.78125"/>
      <use xlink:href="#DejaVuSans-72" x="857.962891"/>
      <use xlink:href="#DejaVuSans-65" x="896.826172"/>
     </g>
    </g>
   </g>
   <g id="matplotlib.axis_2">
    <g id="ytick_1">
     <g id="line2d_9">
      <defs>
       <path id="m7bac388c78" d="M 0 0 
L -3.5 0 
" style="stroke: #000000; stroke-width: 0.8"/>
      </defs>
      <g>
       <use xlink:href="#m7bac388c78" x="54.245" y="390.04" style="stroke: #000000; stroke-width: 0.8"/>
      </g>
     </g>
     <g id="text_10">
      <!-- 0.00 -->
      <g transform="translate(24.979375 393.839219) scale(0.1 -0.1)">
       <use xlink:href="#DejaVuSans-30"/>
       <use xlink:href="#DejaVuSans-2e" x="63.623047"/>
       <use xlink:href="#DejaVuSans-30" x="95.410156"/>
       <use xlink:href="#DejaVuSans-30" x="159.033203"/>
      </g>
     </g>
    </g>
    <g id="ytick_2">
     <g id="line2d_10">
      <g>
       <use xlink:href="#m7bac388c78" x="54.245" y="339.846602" style="stroke: #000000; stroke-width: 0.8"/>
      </g>
     </g>
     <g id="text_11">
      <!-- 0.25 -->
      <g transform="translate(24.979375 343.645821) scale(0.1 -0.1)">
       <use xlink:href="#DejaVuSans-30"/>
       <use xlink:href="#DejaVuSans-2e" x="63.623047"/>
       <use xlink:href="#DejaVuSans-32" x="95.410156"/>
       <use xlink:href="#DejaVuSans-35" x="159.033203"/>
      </g>
     </g>
    </g>
    <g id="ytick_3">
     <g id="line2d_11">
      <g>
       <use xlink:href="#m7bac388c78" x="54.245" y="289.653204" style="stroke: #000000; stroke-width: 0.8"/>
      </g>
     </g>
     <g id="text_12">
      <!-- 0.50 -->
      <g transform="translate(24.979375 293.452422) scale(0.1 -0.1)">
       <use xlink:href="#DejaVuSans-30"/>
       <use xlink:href="#DejaVuSans-2e" x="63.623047"/>
       <use xlink:href="#DejaVuSans-35" x="95.410156"/>
       <use xlink:href="#DejaVuSans-30" x="159.033203"/>
      </g>
     </g>
    </g>
    <g id="ytick_4">
     <g id="line2d_12">
      <g>
       <use xlink:href="#m7bac388c78" x="54.245" y="239.459806" style="stroke: #000000; stroke-width: 0.8"/>
      </g>
     </g>
     <g id="text_13">
      <!-- 0.75 -->
      <g transform="translate(24.979375 243.259024) scale(0.1 -0.1)">
       <defs>
        <path id="DejaVuSans-37" d="M 525 4666 
L 3525 4666 
L 3525 4397 
L 1831 0 
L 1172 0 
L 2766 4134 
L 525 4134 
L 525 4666 
z
" transform="scale(0.015625)"/>
       </defs>
       <use xlink:href="#DejaVuSans-30"/>
       <use xlink:href="#DejaVuSans-2e" x="63.623047"/>
       <use xlink:href="#DejaVuSans-37" x="95.410156"/>
       <use xlink:href="#DejaVuSans-35" x="159.033203"/>
      </g>
     </g>
    </g>
    <g id="ytick_5">
     <g id="line2d_13">
      <g>
       <use xlink:href="#m7bac388c78" x="54.245" y="189.266407" style="stroke: #000000; stroke-width: 0.8"/>
      </g>
     </g>
     <g id="text_14">
      <!-- 1.00 -->
      <g transform="translate(24.979375 193.065626) scale(0.1 -0.1)">
       <use xlink:href="#DejaVuSans-31"/>
       <use xlink:href="#DejaVuSans-2e" x="63.623047"/>
       <use xlink:href="#DejaVuSans-30" x="95.410156"/>
       <use xlink:href="#DejaVuSans-30" x="159.033203"/>
      </g>
     </g>
    </g>
    <g id="ytick_6">
     <g id="line2d_14">
      <g>
       <use xlink:href="#m7bac388c78" x="54.245" y="139.073009" style="stroke: #000000; stroke-width: 0.8"/>
      </g>
     </g>
     <g id="text_15">
      <!-- 1.25 -->
      <g transform="translate(24.979375 142.872228) scale(0.1 -0.1)">
       <use xlink:href="#DejaVuSans-31"/>
       <use xlink:href="#DejaVuSans-2e" x="63.623047"/>
       <use xlink:href="#DejaVuSans-32" x="95.410156"/>
       <use xlink:href="#DejaVuSans-35" x="159.033203"/>
      </g>
     </g>
    </g>
    <g id="ytick_7">
     <g id="line2d_15">
      <g>
       <use xlink:href="#m7bac388c78" x="54.245" y="88.879611" style="stroke: #000000; stroke-width: 0.8"/>
      </g>
     </g>
     <g id="text_16">
      <!-- 1.50 -->
      <g transform="translate(24.979375 92.67883) scale(0.1 -0.1)">
       <use xlink:href="#DejaVuSans-31"/>
       <use xlink:href="#DejaVuSans-2e" x="63.623047"/>
       <use xlink:href="#DejaVuSans-35" x="95.410156"/>
       <use xlink:href="#DejaVuSans-30" x="159.033203"/>
      </g>
     </g>
    </g>
    <g id="ytick_8">
     <g id="line2d_16">
      <g>
       <use xlink:href="#m7bac388c78" x="54.245" y="38.686213" style="stroke: #000000; stroke-width: 0.8"/>
      </g>
     </g>
     <g id="text_17">
      <!-- 1.75 -->
      <g transform="translate(24.979375 42.485432) scale(0.1 -0.1)">
       <use xlink:href="#DejaVuSans-31"/>
       <use xlink:href="#DejaVuSans-2e" x="63.623047"/>
       <use xlink:href="#DejaVuSans-37" x="95.410156"/>
       <use xlink:href="#DejaVuSans-35" x="159.033203"/>
      </g>
     </g>
    </g>
    <g id="text_18">
     <!-- Density -->
     <g transform="translate(18.899688 227.108594) rotate(-90) scale(0.1 -0.1)">
      <defs>
       <path id="DejaVuSans-6e" d="M 3513 2113 
L 3513 0 
L 2938 0 
L 2938 2094 
Q 2938 2591 2744 2837 
Q 2550 3084 2163 3084 
Q 1697 3084 1428 2787 
Q 1159 2491 1159 1978 
L 1159 0 
L 581 0 
L 581 3500 
L 1159 3500 
L 1159 2956 
Q 1366 3272 1645 3428 
Q 1925 3584 2291 3584 
Q 2894 3584 3203 3211 
Q 3513 2838 3513 2113 
z
" transform="scale(0.015625)"/>
       <path id="DejaVuSans-73" d="M 2834 3397 
L 2834 2853 
Q 2591 2978 2328 3040 
Q 2066 3103 1784 3103 
Q 1356 3103 1142 2972 
Q 928 2841 928 2578 
Q 928 2378 1081 2264 
Q 1234 2150 1697 2047 
L 1894 2003 
Q 2506 1872 2764 1633 
Q 3022 1394 3022 966 
Q 3022 478 2636 193 
Q 2250 -91 1575 -91 
Q 1294 -91 989 -36 
Q 684 19 347 128 
L 347 722 
Q 666 556 975 473 
Q 1284 391 1588 391 
Q 1994 391 2212 530 
Q 2431 669 2431 922 
Q 2431 1156 2273 1281 
Q 2116 1406 1581 1522 
L 1381 1569 
Q 847 1681 609 1914 
Q 372 2147 372 2553 
Q 372 3047 722 3315 
Q 1072 3584 1716 3584 
Q 2034 3584 2315 3537 
Q 2597 3491 2834 3397 
z
" transform="scale(0.015625)"/>
       <path id="DejaVuSans-69" d="M 603 3500 
L 1178 3500 
L 1178 0 
L 603 0 
L 603 3500 
z
M 603 4863 
L 1178 4863 
L 1178 4134 
L 603 4134 
L 603 4863 
z
" transform="scale(0.015625)"/>
       <path id="DejaVuSans-74" d="M 1172 4494 
L 1172 3500 
L 2356 3500 
L 2356 3053 
L 1172 3053 
L 1172 1153 
Q 1172 725 1289 603 
Q 1406 481 1766 481 
L 2356 481 
L 2356 0 
L 1766 0 
Q 1100 0 847 248 
Q 594 497 594 1153 
L 594 3053 
L 172 3053 
L 172 3500 
L 594 3500 
L 594 4494 
L 1172 4494 
z
" transform="scale(0.015625)"/>
       <path id="DejaVuSans-79" d="M 2059 -325 
Q 1816 -950 1584 -1140 
Q 1353 -1331 966 -1331 
L 506 -1331 
L 506 -850 
L 844 -850 
Q 1081 -850 1212 -737 
Q 1344 -625 1503 -206 
L 1606 56 
L 191 3500 
L 800 3500 
L 1894 763 
L 2988 3500 
L 3597 3500 
L 2059 -325 
z
" transform="scale(0.015625)"/>
      </defs>
      <use xlink:href="#DejaVuSans-44"/>
      <use xlink:href="#DejaVuSans-65" x="77.001953"/>
      <use xlink:href="#DejaVuSans-6e" x="138.525391"/>
      <use xlink:href="#DejaVuSans-73" x="201.904297"/>
      <use xlink:href="#DejaVuSans-69" x="254.003906"/>
      <use xlink:href="#DejaVuSans-74" x="281.787109"/>
      <use xlink:href="#DejaVuSans-79" x="320.996094"/>
     </g>
    </g>
   </g>
   <g id="line2d_17">
    <path d="M 87.288409 389.723408 
L 97.251246 389.326 
L 103.893137 388.849783 
L 110.535029 388.10456 
L 113.855974 387.594704 
L 117.17692 386.969504 
L 120.497865 386.208072 
L 123.818811 385.287037 
L 127.139757 384.180554 
L 130.460702 382.860395 
L 133.781648 381.296139 
L 137.102594 379.455467 
L 140.423539 377.304585 
L 143.744485 374.808784 
L 147.065431 371.933125 
L 150.386376 368.643276 
L 153.707322 364.90647 
L 157.028267 360.692595 
L 160.349213 355.975369 
L 163.670159 350.7336 
L 166.991104 344.952475 
L 170.31205 338.624849 
L 173.632996 331.75248 
L 176.953941 324.347156 
L 180.274887 316.431671 
L 183.595833 308.040583 
L 186.916778 299.220707 
L 193.558669 280.543905 
L 210.163398 231.89962 
L 213.484343 222.697508 
L 216.805289 213.948814 
L 220.126235 205.773151 
L 223.44718 198.285531 
L 226.768126 191.593617 
L 230.089071 185.795092 
L 233.410017 180.975241 
L 236.730963 177.20482 
L 240.051908 174.538308 
L 243.372854 173.012582 
L 246.6938 172.646077 
L 250.014745 173.438443 
L 253.335691 175.370724 
L 256.656637 178.406025 
L 259.977582 182.490661 
L 263.298528 187.555712 
L 266.619474 193.518944 
L 269.940419 200.287011 
L 273.261365 207.757856 
L 276.58231 215.823233 
L 279.903256 224.371253 
L 286.545147 242.46433 
L 299.82893 279.666416 
L 306.470821 297.319934 
L 309.791767 305.663068 
L 313.112712 313.617223 
L 316.433658 321.145446 
L 319.754604 328.220713 
L 323.075549 334.825322 
L 326.396495 340.950141 
L 329.717441 346.593734 
L 333.038386 351.761425 
L 336.359332 356.464315 
L 339.680278 360.718299 
L 343.001223 364.543105 
L 346.322169 367.961374 
L 349.643114 370.997806 
L 352.96406 373.678381 
L 356.285006 376.029665 
L 359.605951 378.078201 
L 362.926897 379.84999 
L 366.247843 381.370069 
L 369.568788 382.662159 
L 372.889734 383.748401 
L 376.21068 384.649158 
L 379.531625 385.382881 
L 382.852571 385.966033 
L 386.173516 386.413057 
L 389.494462 386.736384 
L 396.136353 387.051896 
L 402.778245 386.974019 
L 409.420136 386.537059 
L 416.062027 385.75215 
L 422.703918 384.611789 
L 429.34581 383.094719 
L 435.987701 381.17107 
L 442.629592 378.807669 
L 445.950538 377.451106 
L 449.271484 375.973375 
L 452.592429 374.371751 
L 455.913375 372.644268 
L 462.555266 368.808438 
L 469.197157 364.470094 
L 475.839049 359.652763 
L 482.48094 354.401396 
L 489.122831 348.783342 
L 495.764722 342.888275 
L 519.011342 321.848291 
L 525.653233 316.342409 
L 528.974179 313.779915 
L 532.295124 311.374326 
L 535.61607 309.148087 
L 538.937016 307.123336 
L 542.257961 305.321623 
L 545.578907 303.763593 
L 548.899853 302.468645 
L 552.220798 301.454572 
L 555.541744 300.737188 
L 558.86269 300.329946 
L 562.183635 300.243572 
L 565.504581 300.485716 
L 568.825526 301.06064 
L 572.146472 301.968951 
L 575.467418 303.207406 
L 578.788363 304.768782 
L 582.109309 306.641839 
L 585.430255 308.811375 
L 588.7512 311.258375 
L 592.072146 313.960261 
L 595.393092 316.891236 
L 598.714037 320.022715 
L 605.355929 326.762008 
L 611.99782 333.914372 
L 625.281602 348.386788 
L 631.923494 355.22096 
L 638.565385 361.528163 
L 641.886331 364.441251 
L 645.207276 367.178035 
L 648.528222 369.73083 
L 651.849167 372.095222 
L 655.170113 374.269856 
L 658.491059 376.256161 
L 661.812004 378.058044 
L 665.13295 379.681542 
L 668.453896 381.134466 
L 671.774841 382.426039 
L 675.095787 383.566547 
L 678.416733 384.566998 
L 681.737678 385.438815 
L 688.379569 386.842692 
L 695.021461 387.868241 
L 701.663352 388.598251 
L 708.305243 389.104674 
L 718.26808 389.572045 
L 731.551863 389.868708 
L 748.156591 389.997271 
L 748.156591 389.997271 
" clip-path="url(#pb3c3a5c3a3)" style="fill: none; stroke: #1f77b4; stroke-width: 2; stroke-linecap: square"/>
   </g>
   <g id="line2d_18">
    <path d="M 591.782606 390.04 
L 591.782606 26.16 
" clip-path="url(#pb3c3a5c3a3)" style="fill: none; stroke-dasharray: 5.55,2.4; stroke-dashoffset: 0; stroke: #1f77b4; stroke-opacity: 0.8; stroke-width: 1.5"/>
   </g>
   <g id="line2d_19">
    <path d="M 112.067204 390.023987 
L 127.503699 389.883246 
L 133.678297 389.680623 
L 139.852895 389.254809 
L 142.940194 388.900327 
L 146.027493 388.405887 
L 149.114793 387.725478 
L 152.202092 386.801811 
L 155.289391 385.564999 
L 158.37669 383.931605 
L 161.463989 381.804281 
L 164.551288 379.072215 
L 167.638587 375.612647 
L 170.725886 371.293629 
L 173.813185 365.978193 
L 176.900484 359.529976 
L 179.987783 351.820228 
L 183.075082 342.735992 
L 186.162381 332.189085 
L 189.24968 320.125371 
L 192.336979 306.533675 
L 195.424278 291.453639 
L 198.511577 274.98178 
L 201.598876 257.275074 
L 204.686176 238.551511 
L 210.860774 199.21041 
L 217.035372 159.729214 
L 220.122671 140.939121 
L 223.20997 123.333705 
L 226.297269 107.30749 
L 229.384568 93.220541 
L 232.471867 81.383887 
L 235.559166 72.047356 
L 238.646465 65.390488 
L 241.733764 61.516971 
L 244.821063 60.452798 
L 247.908362 62.148083 
L 250.995661 66.482264 
L 254.08296 73.272206 
L 257.170259 82.282574 
L 260.257559 93.237764 
L 263.344858 105.834607 
L 266.432157 119.755126 
L 269.519456 134.678641 
L 275.694054 166.302156 
L 284.955951 214.154337 
L 288.04325 229.358075 
L 291.130549 243.930074 
L 294.217848 257.765588 
L 297.305147 270.790256 
L 300.392446 282.956875 
L 303.479745 294.241807 
L 306.567044 304.641259 
L 309.654343 314.167635 
L 312.741642 322.846119 
L 315.828942 330.711573 
L 318.916241 337.805821 
L 322.00354 344.175319 
L 325.090839 349.869228 
L 328.178138 354.937859 
L 331.265437 359.431449 
L 334.352736 363.399242 
L 337.440035 366.888813 
L 340.527334 369.945598 
L 343.614633 372.612591 
L 346.701932 374.930153 
L 349.789231 376.935916 
L 352.87653 378.664746 
L 355.963829 380.148745 
L 359.051128 381.417289 
L 362.138427 382.497084 
L 365.225726 383.412237 
L 368.313026 384.184355 
L 374.487624 385.374059 
L 380.662222 386.193432 
L 386.83682 386.737691 
L 393.011418 387.074208 
L 402.273315 387.277556 
L 411.535212 387.160756 
L 417.70981 386.889355 
L 423.884409 386.429459 
L 430.059007 385.739269 
L 436.233605 384.769979 
L 442.408203 383.470154 
L 448.582801 381.790344 
L 454.757399 379.688195 
L 460.931997 377.134358 
L 467.106595 374.118867 
L 473.281193 370.656678 
L 479.455792 366.790387 
L 485.63039 362.588441 
L 491.804988 358.138823 
L 516.50338 339.865346 
L 522.677978 335.684606 
L 528.852576 331.865639 
L 531.939875 330.12483 
L 535.027175 328.513725 
L 538.114474 327.044812 
L 541.201773 325.73015 
L 544.289072 324.581409 
L 547.376371 323.610012 
L 550.46367 322.827347 
L 553.550969 322.245018 
L 556.638268 321.875051 
L 559.725567 321.730001 
L 562.812866 321.822876 
L 565.900165 322.166816 
L 568.987464 322.774508 
L 572.074763 323.657329 
L 575.162062 324.824272 
L 578.249361 326.280747 
L 581.33666 328.027353 
L 584.423959 330.058786 
L 587.511258 332.362985 
L 590.598558 334.920664 
L 593.685857 337.705289 
L 596.773156 340.683553 
L 602.947754 347.060053 
L 615.29695 360.215623 
L 621.471548 366.297161 
L 624.558847 369.093311 
L 627.646146 371.696879 
L 630.733445 374.094221 
L 633.820744 376.278156 
L 636.908043 378.247361 
L 639.995342 380.005583 
L 643.082641 381.560725 
L 646.169941 382.923901 
L 649.25724 384.108522 
L 652.344539 385.129449 
L 655.431838 386.002258 
L 658.519137 386.742637 
L 664.693735 387.886638 
L 670.868333 388.673883 
L 677.042931 389.199483 
L 686.304828 389.658839 
L 698.654024 389.923312 
L 717.177819 390.025625 
L 726.439716 390.0357 
L 726.439716 390.0357 
" clip-path="url(#pb3c3a5c3a3)" style="fill: none; stroke: #d95f02; stroke-width: 2; stroke-linecap: square"/>
   </g>
   <g id="line2d_20">
    <path d="M 584.339402 390.04 
L 584.339402 26.16 
" clip-path="url(#pb3c3a5c3a3)" style="fill: none; stroke-dasharray: 5.55,2.4; stroke-dashoffset: 0; stroke: #d95f02; stroke-opacity: 0.8; stroke-width: 1.5"/>
   </g>
   <g id="line2d_21">
    <path d="M 110.485311 390.03577 
L 135.615914 389.910059 
L 145.03989 389.677784 
L 151.322541 389.346226 
L 157.605192 388.718493 
L 160.746517 388.21408 
L 163.887842 387.515114 
L 167.029168 386.549269 
L 170.170493 385.222742 
L 173.311819 383.417502 
L 176.453144 380.989817 
L 179.594469 377.7708 
L 182.735795 373.569628 
L 185.87712 368.179965 
L 189.018446 361.389817 
L 192.159771 352.994653 
L 195.301096 342.813147 
L 198.442422 330.704443 
L 201.583747 316.585472 
L 204.725073 300.446671 
L 207.866398 282.364477 
L 211.007723 262.509227 
L 214.149049 241.147566 
L 220.4317 195.426525 
L 226.71435 148.990196 
L 229.855676 126.920798 
L 232.997001 106.410053 
L 236.138327 88.031799 
L 239.279652 72.311744 
L 242.420977 59.701905 
L 245.562303 50.557264 
L 248.703628 45.116356 
L 251.844954 43.487574 
L 254.986279 45.64284 
L 258.127604 51.419786 
L 261.26893 60.532779 
L 264.410255 72.592129 
L 267.551581 87.129787 
L 270.692906 103.629026 
L 273.834232 121.555164 
L 280.116882 159.628264 
L 286.399533 197.6872 
L 289.540859 215.835355 
L 292.682184 233.069457 
L 295.823509 249.228693 
L 298.964835 264.211489 
L 302.10616 277.966965 
L 305.247486 290.486013 
L 308.388811 301.792708 
L 311.530136 311.936435 
L 314.671462 320.984907 
L 317.812787 329.018092 
L 320.954113 336.123023 
L 324.095438 342.389421 
L 327.236763 347.906113 
L 330.378089 352.75819 
L 333.519414 357.024896 
L 336.66074 360.7782 
L 339.802065 364.08201 
L 342.94339 366.991964 
L 346.084716 369.555702 
L 349.226041 371.81353 
L 352.367367 373.799367 
L 355.508692 375.54184 
L 358.650017 377.065432 
L 361.791343 378.391566 
L 364.932668 379.539545 
L 368.073994 380.527275 
L 371.215319 381.371763 
L 377.49797 382.695847 
L 383.780621 383.63451 
L 390.063271 384.294376 
L 396.345922 384.756845 
L 405.769898 385.175711 
L 412.052549 385.274808 
L 418.3352 385.188564 
L 424.617851 384.856023 
L 430.900502 384.209197 
L 437.183152 383.188509 
L 443.465803 381.755093 
L 449.748454 379.896771 
L 456.031105 377.625731 
L 462.313756 374.967403 
L 468.596406 371.942679 
L 474.879057 368.550002 
L 481.161708 364.757562 
L 487.444359 360.514551 
L 493.72701 355.781942 
L 500.009661 350.571283 
L 506.292311 344.972528 
L 521.998938 330.521216 
L 528.281589 325.175266 
L 531.422915 322.708941 
L 534.56424 320.413437 
L 537.705565 318.311535 
L 540.846891 316.424744 
L 543.988216 314.773564 
L 547.129542 313.377631 
L 550.270867 312.255736 
L 553.412192 311.425677 
L 556.553518 310.903984 
L 559.694843 310.705558 
L 562.836169 310.843224 
L 565.977494 311.327247 
L 569.118819 312.164796 
L 572.260145 313.35937 
L 575.40147 314.910178 
L 578.542796 316.81151 
L 581.684121 319.052141 
L 584.825446 321.614846 
L 587.966772 324.476106 
L 591.108097 327.606101 
L 594.249423 330.969042 
L 600.532073 338.225261 
L 616.2387 357.222538 
L 619.380026 360.79101 
L 622.521351 364.188235 
L 625.662677 367.384221 
L 628.804002 370.355426 
L 631.945327 373.085066 
L 635.086653 375.563174 
L 638.227978 377.786398 
L 641.369304 379.757544 
L 644.510629 381.484885 
L 647.651954 382.98128 
L 650.79328 384.263143 
L 653.934605 385.349371 
L 657.075931 386.260271 
L 660.217256 387.016589 
L 663.358581 387.638679 
L 669.641232 388.5559 
L 675.923883 389.146794 
L 682.206534 389.516628 
L 691.63051 389.817798 
L 704.195812 389.977597 
L 732.46774 390.038434 
L 735.609066 390.039052 
L 735.609066 390.039052 
" clip-path="url(#pb3c3a5c3a3)" style="fill: none; stroke: #2ca02c; stroke-width: 2; stroke-linecap: square"/>
   </g>
   <g id="line2d_22">
    <path d="M 587.726918 390.04 
L 587.726918 26.16 
" clip-path="url(#pb3c3a5c3a3)" style="fill: none; stroke-dasharray: 5.55,2.4; stroke-dashoffset: 0; stroke: #2ca02c; stroke-opacity: 0.8; stroke-width: 1.5"/>
   </g>
   <g id="patch_3">
    <path d="M 54.245 390.04 
L 54.245 26.16 
" style="fill: none; stroke: #000000; stroke-width: 0.8; stroke-linejoin: miter; stroke-linecap: square"/>
   </g>
   <g id="patch_4">
    <path d="M 781.2 390.04 
L 781.2 26.16 
" style="fill: none; stroke: #000000; stroke-width: 0.8; stroke-linejoin: miter; stroke-linecap: square"/>
   </g>
   <g id="patch_5">
    <path d="M 54.245 390.04 
L 781.2 390.04 
" style="fill: none; stroke: #000000; stroke-width: 0.8; stroke-linejoin: miter; stroke-linecap: square"/>
   </g>
   <g id="patch_6">
    <path d="M 54.245 26.16 
L 781.2 26.16 
" style="fill: none; stroke: #000000; stroke-width: 0.8; stroke-linejoin: miter; stroke-linecap: square"/>
   </g>
   <g id="text_19">
    <!-- Hierarchical BADASP Score Distributions -->
    <g transform="translate(297.046562 20.16) scale(0.12 -0.12)">
     <defs>
      <path id="DejaVuSans-48" d="M 628 4666 
L 1259 4666 
L 1259 2753 
L 3553 2753 
L 3553 4666 
L 4184 4666 
L 4184 0 
L 3553 0 
L 3553 2222 
L 1259 2222 
L 1259 0 
L 628 0 
L 628 4666 
z
" transform="scale(0.015625)"/>
      <path id="DejaVuSans-68" d="M 3513 2113 
L 3513 0 
L 2938 0 
L 2938 2094 
Q 2938 2591 2744 2837 
Q 2550 3084 2163 3084 
Q 1697 3084 1428 2787 
Q 1159 2491 1159 1978 
L 1159 0 
L 581 0 
L 581 4863 
L 1159 4863 
L 1159 2956 
Q 1366 3272 1645 3428 
Q 1925 3584 2291 3584 
Q 2894 3584 3203 3211 
Q 3513 2838 3513 2113 
z
" transform="scale(0.015625)"/>
      <path id="DejaVuSans-6c" d="M 603 4863 
L 1178 4863 
L 1178 0 
L 603 0 
L 603 4863 
z
" transform="scale(0.015625)"/>
      <path id="DejaVuSans-62" d="M 3116 1747 
Q 3116 2381 2855 2742 
Q 2594 3103 2138 3103 
Q 1681 3103 1420 2742 
Q 1159 2381 1159 1747 
Q 1159 1113 1420 752 
Q 1681 391 2138 391 
Q 2594 391 2855 752 
Q 3116 1113 3116 1747 
z
M 1159 2969 
Q 1341 3281 1617 3432 
Q 1894 3584 2278 3584 
Q 2916 3584 3314 3078 
Q 3713 2572 3713 1747 
Q 3713 922 3314 415 
Q 2916 -91 2278 -91 
Q 1894 -91 1617 61 
Q 1341 213 1159 525 
L 1159 0 
L 581 0 
L 581 4863 
L 1159 4863 
L 1159 2969 
z
" transform="scale(0.015625)"/>
      <path id="DejaVuSans-75" d="M 544 1381 
L 544 3500 
L 1119 3500 
L 1119 1403 
Q 1119 906 1312 657 
Q 1506 409 1894 409 
Q 2359 409 2629 706 
Q 2900 1003 2900 1516 
L 2900 3500 
L 3475 3500 
L 3475 0 
L 2900 0 
L 2900 538 
Q 2691 219 2414 64 
Q 2138 -91 1772 -91 
Q 1169 -91 856 284 
Q 544 659 544 1381 
z
M 1991 3584 
L 1991 3584 
z
" transform="scale(0.015625)"/>
     </defs>
     <use xlink:href="#DejaVuSans-48"/>
     <use xlink:href="#DejaVuSans-69" x="75.195312"/>
     <use xlink:href="#DejaVuSans-65" x="102.978516"/>
     <use xlink:href="#DejaVuSans-72" x="164.501953"/>
     <use xlink:href="#DejaVuSans-61" x="205.615234"/>
     <use xlink:href="#DejaVuSans-72" x="266.894531"/>
     <use xlink:href="#DejaVuSans-63" x="305.757812"/>
     <use xlink:href="#DejaVuSans-68" x="360.738281"/>
     <use xlink:href="#DejaVuSans-69" x="424.117188"/>
     <use xlink:href="#DejaVuSans-63" x="451.900391"/>
     <use xlink:href="#DejaVuSans-61" x="506.880859"/>
     <use xlink:href="#DejaVuSans-6c" x="568.160156"/>
     <use xlink:href="#DejaVuSans-20" x="595.943359"/>
     <use xlink:href="#DejaVuSans-42" x="627.730469"/>
     <use xlink:href="#DejaVuSans-41" x="696.333984"/>
     <use xlink:href="#DejaVuSans-44" x="764.742188"/>
     <use xlink:href="#DejaVuSans-41" x="839.994141"/>
     <use xlink:href="#DejaVuSans-53" x="908.402344"/>
     <use xlink:href="#DejaVuSans-50" x="971.878906"/>
     <use xlink:href="#DejaVuSans-20" x="1032.181641"/>
     <use xlink:href="#DejaVuSans-53" x="1063.96875"/>
     <use xlink:href="#DejaVuSans-63" x="1127.445312"/>
     <use xlink:href="#DejaVuSans-6f" x="1182.425781"/>
     <use xlink:href="#DejaVuSans-72" x="1243.607422"/>
     <use xlink:href="#DejaVuSans-65" x="1282.470703"/>
     <use xlink:href="#DejaVuSans-20" x="1343.994141"/>
     <use xlink:href="#DejaVuSans-44" x="1375.78125"/>
     <use xlink:href="#DejaVuSans-69" x="1452.783203"/>
     <use xlink:href="#DejaVuSans-73" x="1480.566406"/>
     <use xlink:href="#DejaVuSans-74" x="1532.666016"/>
     <use xlink:href="#DejaVuSans-72" x="1571.875"/>
     <use xlink:href="#DejaVuSans-69" x="1612.988281"/>
     <use xlink:href="#DejaVuSans-62" x="1640.771484"/>
     <use xlink:href="#DejaVuSans-75" x="1704.248047"/>
     <use xlink:href="#DejaVuSans-74" x="1767.626953"/>
     <use xlink:href="#DejaVuSans-69" x="1806.835938"/>
     <use xlink:href="#DejaVuSans-6f" x="1834.619141"/>
     <use xlink:href="#DejaVuSans-6e" x="1895.800781"/>
     <use xlink:href="#DejaVuSans-73" x="1959.179688"/>
    </g>
   </g>
   <g id="legend_1">
    <g id="line2d_23">
     <path d="M 297.46 39.258437 
L 307.46 39.258437 
L 317.46 39.258437 
" style="fill: none; stroke: #1f77b4; stroke-width: 2; stroke-linecap: square"/>
    </g>
    <g id="text_20">
     <!-- Groups -->
     <g transform="translate(325.46 42.758437) scale(0.1 -0.1)">
      <defs>
       <path id="DejaVuSans-47" d="M 3809 666 
L 3809 1919 
L 2778 1919 
L 2778 2438 
L 4434 2438 
L 4434 434 
Q 4069 175 3628 42 
Q 3188 -91 2688 -91 
Q 1594 -91 976 548 
Q 359 1188 359 2328 
Q 359 3472 976 4111 
Q 1594 4750 2688 4750 
Q 3144 4750 3555 4637 
Q 3966 4525 4313 4306 
L 4313 3634 
Q 3963 3931 3569 4081 
Q 3175 4231 2741 4231 
Q 1884 4231 1454 3753 
Q 1025 3275 1025 2328 
Q 1025 1384 1454 906 
Q 1884 428 2741 428 
Q 3075 428 3337 486 
Q 3600 544 3809 666 
z
" transform="scale(0.015625)"/>
       <path id="DejaVuSans-70" d="M 1159 525 
L 1159 -1331 
L 581 -1331 
L 581 3500 
L 1159 3500 
L 1159 2969 
Q 1341 3281 1617 3432 
Q 1894 3584 2278 3584 
Q 2916 3584 3314 3078 
Q 3713 2572 3713 1747 
Q 3713 922 3314 415 
Q 2916 -91 2278 -91 
Q 1894 -91 1617 61 
Q 1341 213 1159 525 
z
M 3116 1747 
Q 3116 2381 2855 2742 
Q 2594 3103 2138 3103 
Q 1681 3103 1420 2742 
Q 1159 2381 1159 1747 
Q 1159 1113 1420 752 
Q 1681 391 2138 391 
Q 2594 391 2855 752 
Q 3116 1113 3116 1747 
z
" transform="scale(0.015625)"/>
      </defs>
      <use xlink:href="#DejaVuSans-47"/>
      <use xlink:href="#DejaVuSans-72" x="77.490234"/>
      <use xlink:href="#DejaVuSans-6f" x="116.353516"/>
      <use xlink:href="#DejaVuSans-75" x="177.535156"/>
      <use xlink:href="#DejaVuSans-70" x="240.914062"/>
      <use xlink:href="#DejaVuSans-73" x="304.390625"/>
     </g>
    </g>
    <g id="line2d_24">
     <path d="M 297.46 53.936562 
L 307.46 53.936562 
L 317.46 53.936562 
" style="fill: none; stroke: #d95f02; stroke-width: 2; stroke-linecap: square"/>
    </g>
    <g id="text_21">
     <!-- Families -->
     <g transform="translate(325.46 57.436562) scale(0.1 -0.1)">
      <defs>
       <path id="DejaVuSans-46" d="M 628 4666 
L 3309 4666 
L 3309 4134 
L 1259 4134 
L 1259 2759 
L 3109 2759 
L 3109 2228 
L 1259 2228 
L 1259 0 
L 628 0 
L 628 4666 
z
" transform="scale(0.015625)"/>
       <path id="DejaVuSans-6d" d="M 3328 2828 
Q 3544 3216 3844 3400 
Q 4144 3584 4550 3584 
Q 5097 3584 5394 3201 
Q 5691 2819 5691 2113 
L 5691 0 
L 5113 0 
L 5113 2094 
Q 5113 2597 4934 2840 
Q 4756 3084 4391 3084 
Q 3944 3084 3684 2787 
Q 3425 2491 3425 1978 
L 3425 0 
L 2847 0 
L 2847 2094 
Q 2847 2600 2669 2842 
Q 2491 3084 2119 3084 
Q 1678 3084 1418 2786 
Q 1159 2488 1159 1978 
L 1159 0 
L 581 0 
L 581 3500 
L 1159 3500 
L 1159 2956 
Q 1356 3278 1631 3431 
Q 1906 3584 2284 3584 
Q 2666 3584 2933 3390 
Q 3200 3197 3328 2828 
z
" transform="scale(0.015625)"/>
      </defs>
      <use xlink:href="#DejaVuSans-46"/>
      <use xlink:href="#DejaVuSans-61" x="48.394531"/>
      <use xlink:href="#DejaVuSans-6d" x="109.673828"/>
      <use xlink:href="#DejaVuSans-69" x="207.085938"/>
      <use xlink:href="#DejaVuSans-6c" x="234.869141"/>
      <use xlink:href="#DejaVuSans-69" x="262.652344"/>
      <use xlink:href="#DejaVuSans-65" x="290.435547"/>
      <use xlink:href="#DejaVuSans-73" x="351.958984"/>
     </g>
    </g>
    <g id="line2d_25">
     <path d="M 297.46 68.614687 
L 307.46 68.614687 
L 317.46 68.614687 
" style="fill: none; stroke: #2ca02c; stroke-width: 2; stroke-linecap: square"/>
    </g>
    <g id="text_22">
     <!-- Subfamilies -->
     <g transform="translate(325.46 72.114687) scale(0.1 -0.1)">
      <defs>
       <path id="DejaVuSans-66" d="M 2375 4863 
L 2375 4384 
L 1825 4384 
Q 1516 4384 1395 4259 
Q 1275 4134 1275 3809 
L 1275 3500 
L 2222 3500 
L 2222 3053 
L 1275 3053 
L 1275 0 
L 697 0 
L 697 3053 
L 147 3053 
L 147 3500 
L 697 3500 
L 697 3744 
Q 697 4328 969 4595 
Q 1241 4863 1831 4863 
L 2375 4863 
z
" transform="scale(0.015625)"/>
      </defs>
      <use xlink:href="#DejaVuSans-53"/>
      <use xlink:href="#DejaVuSans-75" x="63.476562"/>
      <use xlink:href="#DejaVuSans-62" x="126.855469"/>
      <use xlink:href="#DejaVuSans-66" x="190.332031"/>
      <use xlink:href="#DejaVuSans-61" x="225.537109"/>
      <use xlink:href="#DejaVuSans-6d" x="286.816406"/>
      <use xlink:href="#DejaVuSans-69" x="384.228516"/>
      <use xlink:href="#DejaVuSans-6c" x="412.011719"/>
      <use xlink:href="#DejaVuSans-69" x="439.794922"/>
      <use xlink:href="#DejaVuSans-65" x="467.578125"/>
      <use xlink:href="#DejaVuSans-73" x="529.101562"/>
     </g>
    </g>
    <g id="line2d_26">
     <path d="M 403.580312 39.258437 
L 413.580312 39.258437 
L 423.580312 39.258437 
" style="fill: none; stroke-dasharray: 5.55,2.4; stroke-dashoffset: 0; stroke: #1f77b4; stroke-width: 1.5"/>
    </g>
    <g id="text_23">
     <!-- Groups 95th pct. -->
     <g transform="translate(431.580312 42.758437) scale(0.1 -0.1)">
      <defs>
       <path id="DejaVuSans-39" d="M 703 97 
L 703 672 
Q 941 559 1184 500 
Q 1428 441 1663 441 
Q 2288 441 2617 861 
Q 2947 1281 2994 2138 
Q 2813 1869 2534 1725 
Q 2256 1581 1919 1581 
Q 1219 1581 811 2004 
Q 403 2428 403 3163 
Q 403 3881 828 4315 
Q 1253 4750 1959 4750 
Q 2769 4750 3195 4129 
Q 3622 3509 3622 2328 
Q 3622 1225 3098 567 
Q 2575 -91 1691 -91 
Q 1453 -91 1209 -44 
Q 966 3 703 97 
z
M 1959 2075 
Q 2384 2075 2632 2365 
Q 2881 2656 2881 3163 
Q 2881 3666 2632 3958 
Q 2384 4250 1959 4250 
Q 1534 4250 1286 3958 
Q 1038 3666 1038 3163 
Q 1038 2656 1286 2365 
Q 1534 2075 1959 2075 
z
" transform="scale(0.015625)"/>
      </defs>
      <use xlink:href="#DejaVuSans-47"/>
      <use xlink:href="#DejaVuSans-72" x="77.490234"/>
      <use xlink:href="#DejaVuSans-6f" x="116.353516"/>
      <use xlink:href="#DejaVuSans-75" x="177.535156"/>
      <use xlink:href="#DejaVuSans-70" x="240.914062"/>
      <use xlink:href="#DejaVuSans-73" x="304.390625"/>
      <use xlink:href="#DejaVuSans-20" x="356.490234"/>
      <use xlink:href="#DejaVuSans-39" x="388.277344"/>
      <use xlink:href="#DejaVuSans-35" x="451.900391"/>
      <use xlink:href="#DejaVuSans-74" x="515.523438"/>
      <use xlink:href="#DejaVuSans-68" x="554.732422"/>
      <use xlink:href="#DejaVuSans-20" x="618.111328"/>
      <use xlink:href="#DejaVuSans-70" x="649.898438"/>
      <use xlink:href="#DejaVuSans-63" x="713.375"/>
      <use xlink:href="#DejaVuSans-74" x="768.355469"/>
      <use xlink:href="#DejaVuSans-2e" x="807.564453"/>
     </g>
    </g>
    <g id="line2d_27">
     <path d="M 403.580312 53.936562 
L 413.580312 53.936562 
L 423.580312 53.936562 
" style="fill: none; stroke-dasharray: 5.55,2.4; stroke-dashoffset: 0; stroke: #d95f02; stroke-width: 1.5"/>
    </g>
    <g id="text_24">
     <!-- Families 95th pct. -->
     <g transform="translate(431.580312 57.436562) scale(0.1 -0.1)">
      <use xlink:href="#DejaVuSans-46"/>
      <use xlink:href="#DejaVuSans-61" x="48.394531"/>
      <use xlink:href="#DejaVuSans-6d" x="109.673828"/>
      <use xlink:href="#DejaVuSans-69" x="207.085938"/>
      <use xlink:href="#DejaVuSans-6c" x="234.869141"/>
      <use xlink:href="#DejaVuSans-69" x="262.652344"/>
      <use xlink:href="#DejaVuSans-65" x="290.435547"/>
      <use xlink:href="#DejaVuSans-73" x="351.958984"/>
      <use xlink:href="#DejaVuSans-20" x="404.058594"/>
      <use xlink:href="#DejaVuSans-39" x="435.845703"/>
      <use xlink:href="#DejaVuSans-35" x="499.46875"/>
      <use xlink:href="#DejaVuSans-74" x="563.091797"/>
      <use xlink:href="#DejaVuSans-68" x="602.300781"/>
      <use xlink:href="#DejaVuSans-20" x="665.679688"/>
      <use xlink:href="#DejaVuSans-70" x="697.466797"/>
      <use xlink:href="#DejaVuSans-63" x="760.943359"/>
      <use xlink:href="#DejaVuSans-74" x="815.923828"/>
      <use xlink:href="#DejaVuSans-2e" x="855.132812"/>
     </g>
    </g>
    <g id="line2d_28">
     <path d="M 403.580312 68.614687 
L 413.580312 68.614687 
L 423.580312 68.614687 
" style="fill: none; stroke-dasharray: 5.55,2.4; stroke-dashoffset: 0; stroke: #2ca02c; stroke-width: 1.5"/>
    </g>
    <g id="text_25">
     <!-- Subfamilies 95th pct. -->
     <g transform="translate(431.580312 72.114687) scale(0.1 -0.1)">
      <use xlink:href="#DejaVuSans-53"/>
      <use xlink:href="#DejaVuSans-75" x="63.476562"/>
      <use xlink:href="#DejaVuSans-62" x="126.855469"/>
      <use xlink:href="#DejaVuSans-66" x="190.332031"/>
      <use xlink:href="#DejaVuSans-61" x="225.537109"/>
      <use xlink:href="#DejaVuSans-6d" x="286.816406"/>
      <use xlink:href="#DejaVuSans-69" x="384.228516"/>
      <use xlink:href="#DejaVuSans-6c" x="412.011719"/>
      <use xlink:href="#DejaVuSans-69" x="439.794922"/>
      <use xlink:href="#DejaVuSans-65" x="467.578125"/>
      <use xlink:href="#DejaVuSans-73" x="529.101562"/>
      <use xlink:href="#DejaVuSans-20" x="581.201172"/>
      <use xlink:href="#DejaVuSans-39" x="612.988281"/>
      <use xlink:href="#DejaVuSans-35" x="676.611328"/>
      <use xlink:href="#DejaVuSans-74" x="740.234375"/>
      <use xlink:href="#DejaVuSans-68" x="779.443359"/>
      <use xlink:href="#DejaVuSans-20" x="842.822266"/>
      <use xlink:href="#DejaVuSans-70" x="874.609375"/>
      <use xlink:href="#DejaVuSans-63" x="938.085938"/>
      <use xlink:href="#DejaVuSans-74" x="993.066406"/>
      <use xlink:href="#DejaVuSans-2e" x="1032.275391"/>
     </g>
    </g>
   </g>
  </g>
 </g>
 <defs>
  <clipPath id="pb3c3a5c3a3">
   <rect x="54.245" y="26.16" width="726.955" height="363.88"/>
  </clipPath>
 </defs>
</svg>
